<?xml version="1.0" standalone="no"?>
<!DOCTYPE svg PUBLIC "-//W3C//DTD SVG 1.1//EN" "http://www.w3.org/Graphics/SVG/1.1/DTD/svg11.dtd" >
<svg>
<metadata>
Created by FontForge 20120731 at Fri Nov 20 07:04:44 2015
 By ,,,
Copyright (c) 2002, 2005 Parachute :, www.parachute.gr.  All rights reserved.
</metadata>
<defs>
<font id="PFDinTextProThin" horiz-adv-x="1818" >
  <font-face 
    font-family="PFDinTextProThin"
    font-weight="200"
    font-stretch="normal"
    units-per-em="1000"
    panose-1="2 0 0 0 0 0 0 0 0 0"
    ascent="750"
    descent="-250"
    x-height="494"
    cap-height="696"
    bbox="-327 -255 1760 913"
    underline-thickness="50"
    underline-position="-50"
    unicode-range="U+0020-FB05"
  />
<missing-glyph horiz-adv-x="432" 
d="M0 0v700h432v-700h-432zM216 378l160 291h-320zM236 350l166 -301v604zM56 31h320l-160 291zM30 650v-599l166 299z" />
    <glyph glyph-name="fj" unicode="fj" horiz-adv-x="429" 
d="M31 496h59v103q0 128 134 128q85 0 135 -52l-30 -31q-40 40 -107 40q-87 0 -87 -88v-100h216v-572q0 -57 -31.5 -92t-89.5 -35h-21v40h21q77 4 77 92v530h-172v-459h-45v459h-59v37z" />
    <glyph glyph-name="ffj" unicode="ffj" horiz-adv-x="648" 
d="M351 591v-95h217v-572q0 -57 -32 -92t-90 -35h-21v40h21q77 4 77 92v530h-172v-459h-44v459h-172v-459h-45v459h-59v37h59v79q0 129 134 129q60 0 106 -28q32 46 110 46q86 0 135 -52l-30 -31q-40 40 -107 40q-87 0 -87 -88zM222 661q-87 0 -87 -88v-77h172v97q0 26 4 43
q-33 25 -89 25z" />
    <glyph glyph-name="ff" unicode="ff" horiz-adv-x="474" 
d="M224 713q57 0 103 -27q31 45 92 45h48v-41h-40q-77 0 -77 -89v-105h116v-37h-116v-459h-44v459h-172v-459h-44v459h-60v37h60v82q0 68 36 101.5t98 33.5zM134 496h172v108q0 15 1 22q0 10 3 19q-33 25 -89 25q-87 0 -87 -88v-86z" />
    <glyph glyph-name="fi" unicode="fi" horiz-adv-x="429" 
d="M351 0h-44v459h-172v-459h-45v459h-59v37h59v103q0 128 134 128q85 0 135 -52l-30 -31q-40 40 -107 40q-87 0 -87 -88v-100h216v-496z" />
    <glyph glyph-name="fl" unicode="fl" horiz-adv-x="454" 
d="M421 0q-56 0 -85 23.5t-29 78.5q-1 224 -0.5 381t0.5 183q-35 18 -86 18q-87 0 -87 -88v-100h118v-38h-118v-458h-44v458h-60v38h60v102q0 64 37 96.5t97 32.5q57 0 127 -31v-587q0 -71 77 -71h8v-38h-15z" />
    <glyph glyph-name="ffi" unicode="ffi" horiz-adv-x="648" 
d="M568 0h-45v459h-172v-459h-44v459h-172v-459h-45v459h-59v37h59v79q0 129 134 129q60 0 106 -28q32 46 110 46q86 0 135 -52l-30 -31q-40 40 -107 40q-87 0 -87 -88v-95h217v-496zM222 662q-87 0 -87 -89v-77h172v97q0 26 4 43q-35 26 -89 26z" />
    <glyph glyph-name="ffl" unicode="ffl" horiz-adv-x="671" 
d="M224 704q60 0 103 -27q32 50 114 50q57 0 127 -31v-587q0 -71 77 -71h8v-38h-15q-56 0 -85 23.5t-29 78.5v564q-35 18 -86 18q-87 0 -87 -88v-100h117v-37h-117v-459h-44v459h-172v-459h-45v459h-59v37h59v79q0 129 134 129zM222 662q-87 0 -87 -89v-77h172v103
q0 21 3 37q-35 26 -88 26z" />
    <glyph glyph-name="ft" unicode="ft" horiz-adv-x="471" 
d="M307 460h-172v-460h-45v460h-59v36h59v110q0 57 32 87.5t81 30.5h47v-40h-38q-77 0 -77 -89v-99h172v131h44v-131h92v-36h-92v-339q0 -40 15.5 -60.5t57.5 -20.5h31v-40h-44q-48 0 -76 27.5t-28 77.5v355z" />
    <glyph glyph-name=".notdef" horiz-adv-x="432" 
d="M0 0v700h432v-700h-432zM216 378l160 291h-320zM236 350l166 -301v604zM56 31h320l-160 291zM30 650v-599l166 299z" />
    <glyph glyph-name=".null" horiz-adv-x="0" 
 />
    <glyph glyph-name="nonmarkingreturn" horiz-adv-x="333" 
 />
    <glyph glyph-name="space" unicode=" " horiz-adv-x="221" 
 />
    <glyph glyph-name="exclam" unicode="!" horiz-adv-x="212" 
d="M129 696l-7 -508h-31l-7 508h45zM134 0h-54v60h54v-60z" />
    <glyph glyph-name="quotedbl" unicode="&#x22;" horiz-adv-x="243" 
d="M188 513h-34v183h34v-183zM94 513h-34v183h34v-183z" />
    <glyph glyph-name="numbersign" unicode="#" horiz-adv-x="467" 
d="M8 224v31h102q14 108 27 189h-99v31h103l29 220h33l-29 -220h145q22 146 31 220h33l-30 -220h102v-31h-106l-26 -189h103v-31h-107l-29 -224h-35l30 224h-145l-31 -224h-35l32 224h-98zM170 444l-26 -189h145l26 189h-145z" />
    <glyph glyph-name="dollar" unicode="$" horiz-adv-x="467" 
d="M247 324v-288q66 3 109.5 40.5t43.5 102.5q0 36 -12.5 62.5t-35.5 41.5t-43.5 23t-47.5 13q-2 1 -7 2.5t-7 2.5zM217 377v279q-59 -4 -99.5 -42.5t-40.5 -104.5q0 -33 12.5 -57.5t35.5 -39t44 -22t48 -13.5zM247 -120h-30v113q-118 6 -196 71q5 5 14 18t13 18
q80 -58 169 -64v294q-40 8 -70 20t-58 32t-43 53t-15 76q0 78 50.5 130t135.5 57v75h30v-76q92 -3 164 -49q-10 -16 -23 -39q-72 42 -141 46v-285q40 -10 63.5 -17t53 -21.5t45 -33t26.5 -49t11 -70.5q0 -82 -54 -132t-145 -54v-113z" />
    <glyph glyph-name="percent" unicode="%" horiz-adv-x="754" 
d="M688 109q0 -52 -36 -82t-87 -30t-87.5 30t-36.5 82v198q0 52 36.5 82t87.5 30t87 -30t36 -82v-198zM652 113v190q0 38 -24 61t-63 23t-63.5 -23t-24.5 -61v-190q0 -37 24.5 -60.5t63.5 -23.5t63 23t24 61zM311 389q0 -52 -36 -82.5t-87 -30.5q-52 0 -88 30.5t-36 82.5
v197q0 52 36 82.5t88 30.5q51 0 87 -30.5t36 -82.5v-197zM275 393v190q0 38 -24 61t-63 23t-63.5 -23.5t-24.5 -60.5v-190q0 -38 24.5 -61t63.5 -23t63 23t24 61zM608 718l-425 -744h-36l425 744h36z" />
    <glyph glyph-name="ampersand" unicode="&#x26;" horiz-adv-x="625" 
d="M228 392q-45 56 -65.5 94.5t-20.5 75.5q0 59 40 101t118 42q94 0 151 -53l-30 -34q-55 45 -125 45q-56 0 -82.5 -31t-26.5 -70q0 -21 19 -51q47 -75 256 -354q31 53 41 140q28 -2 43 -4q-13 -98 -55 -171l96 -122h-56l-69 88q-84 -94 -201 -94q-84 0 -135 46t-51 122
q0 127 153 230zM253 358q-134 -85 -134 -192q0 -62 41.5 -97t101.5 -35q100 0 172 87q-158 207 -181 237z" />
    <glyph glyph-name="quotesingle" unicode="'" horiz-adv-x="189" 
d="M112 513h-34v183h34v-183z" />
    <glyph glyph-name="parenleft" unicode="(" horiz-adv-x="262" 
d="M229 -119q-72 83 -117.5 194t-45.5 225q0 112 44 224t116 196l22 -13q-62 -88 -97 -194t-35 -208q0 -108 35.5 -215t96.5 -194z" />
    <glyph glyph-name="parenright" unicode=")" horiz-adv-x="262" 
d="M47 -121l-20 15q61 87 96 194t35 215q0 103 -34.5 208.5t-96.5 193.5l21 13q73 -84 117 -196t44 -224q0 -113 -45.5 -224.5t-116.5 -194.5z" />
    <glyph glyph-name="asterisk" unicode="*" horiz-adv-x="343" 
d="M198 543l81 -96q-1 -1 -16.5 -13t-19.5 -14l-69 108l-68 -109l-35 28l79 96q-7 2 -61 18.5t-59 17.5l6.5 19.5t6.5 21.5l118 -49l-8 125h42l-8 -125l119 49l13 -42z" />
    <glyph glyph-name="plus" unicode="+" horiz-adv-x="467" 
d="M439 261h-188v-194h-37v194h-188v38h188v192h37v-192h188v-38z" />
    <glyph glyph-name="comma" unicode="," horiz-adv-x="174" 
d="M74 -99h-29l26 99h-16v66h61v-56q-11 -40 -42 -109z" />
    <glyph glyph-name="hyphen" unicode="-" horiz-adv-x="370" 
d="M317 239h-264v42h264v-42z" />
    <glyph glyph-name="period" unicode="." horiz-adv-x="167" 
d="M115 0h-59v65h59v-65z" />
    <glyph glyph-name="slash" unicode="/" horiz-adv-x="407" 
d="M406 718l-367 -743h-38l366 743h39z" />
    <glyph glyph-name="zero" unicode="0" horiz-adv-x="467" 
d="M417 179q0 -86 -53.5 -135t-130.5 -49t-130.5 49t-53.5 135v337q0 86 53.5 135.5t130.5 49.5t130.5 -49.5t53.5 -135.5v-337zM375 186v324q0 67 -39 108.5t-103 41.5t-102.5 -41t-38.5 -109v-324q0 -68 38.5 -109.5t102.5 -41.5t103 41.5t39 109.5z" />
    <glyph glyph-name="one" unicode="1" horiz-adv-x="467" 
d="M274 696v-696h-44v648l-102 -68v48l101 68h45z" />
    <glyph glyph-name="two" unicode="2" horiz-adv-x="467" 
d="M416 0h-371v44l290 375q17 22 28 54t11 57q0 55 -36.5 91.5t-101.5 36.5q-49 0 -87 -30t-51 -78l-45 7q15 64 67 103t116 39q85 0 135 -46.5t50 -119.5q0 -74 -48 -134l-274 -356h317v-43z" />
    <glyph glyph-name="three" unicode="3" horiz-adv-x="467" 
d="M424 196q0 -90 -58.5 -146t-147.5 -56q-62 0 -109.5 28.5t-64.5 93.5l44 6q13 -41 47.5 -65t84.5 -24q65 0 112 44.5t47 114.5t-39.5 110.5t-100.5 40.5h-45v40h36q60 0 99 37t39 98q0 62 -40 103t-104 41q-43 0 -80.5 -25t-50.5 -68l-43 7q16 57 64.5 91.5t111.5 34.5
q91 0 139 -52.5t48 -129.5q0 -45 -24.5 -89.5t-79.5 -66.5q62 -21 88.5 -69.5t26.5 -98.5z" />
    <glyph glyph-name="four" unicode="4" horiz-adv-x="467" 
d="M447 112h-62v-112h-43v112h-313v42l248 542h49l-252 -542h268v215h43v-215h62v-42z" />
    <glyph glyph-name="five" unicode="5" horiz-adv-x="467" 
d="M52 115l41 9q29 -92 137 -92q72 0 110 47t38 115v72q0 69 -35 112.5t-110 43.5q-34 0 -71.5 -20.5t-56.5 -49.5h-41v344h341v-42h-300v-249q58 56 141 56q87 0 130.5 -52.5t43.5 -137.5v-45q0 -231 -192 -231q-141 0 -176 120z" />
    <glyph glyph-name="six" unicode="6" horiz-adv-x="467" 
d="M426 204q0 -106 -56 -158t-138 -52q-72 0 -125.5 52.5t-53.5 146.5q0 62 25 112l197 391h47l-168 -334l2 -1q37 30 92 30q74 0 126 -51t52 -136zM382 195q0 72 -40.5 115t-102.5 43t-103 -43t-41 -115q0 -73 39 -118t105 -45q60 0 101.5 44.5t41.5 118.5z" />
    <glyph glyph-name="seven" unicode="7" horiz-adv-x="467" 
d="M422 652l-253 -652h-49l255 653h-282v-109h-43v152h372v-44z" />
    <glyph glyph-name="eight" unicode="8" horiz-adv-x="467" 
d="M437 188q0 -85 -58 -139.5t-142 -54.5t-141.5 54.5t-57.5 139.5q0 50 30 100t86 71q-55 21 -79 64.5t-24 91.5q0 78 53.5 131.5t132.5 53.5q83 0 134.5 -53t51.5 -132q0 -50 -25.5 -91.5t-78.5 -64.5l1 -1q59 -19 88 -68t29 -102zM237 341q-64 0 -110.5 -43t-46.5 -109
t47 -111.5t110 -45.5q64 0 111 45.5t47 111.5t-47 109t-111 43zM237 662q-57 0 -100 -39.5t-43 -105.5q0 -67 42.5 -103.5t100.5 -36.5q59 0 101.5 36t42.5 104q0 66 -43 105.5t-101 39.5z" />
    <glyph glyph-name="nine" unicode="9" horiz-adv-x="467" 
d="M53 495q0 106 56 156.5t137 50.5q74 0 127.5 -52.5t53.5 -146.5q0 -63 -25 -112l-198 -391h-48l169 331l-2 1q-39 -25 -91 -25q-75 0 -127 51t-52 137zM95 501q0 -72 41 -115t104 -43q62 0 102.5 42.5t40.5 115.5t-39 118t-104 45q-60 0 -102.5 -44.5t-42.5 -118.5z" />
    <glyph glyph-name="colon" unicode=":" horiz-adv-x="174" 
d="M116 0h-59v65h59v-65zM116 314h-59v65h59v-65z" />
    <glyph glyph-name="semicolon" unicode=";" horiz-adv-x="174" 
d="M75 -99h-29l26 99h-16v66h61v-56q-1 -4 -2 -10t-2 -10zM117 313h-60v66h60v-66z" />
    <glyph glyph-name="less" unicode="&#x3c;" horiz-adv-x="467" 
d="M432 122v-42l-402 182v36l401 182v-41l-355 -159q37 -16 174.5 -77.5t181.5 -80.5z" />
    <glyph glyph-name="equal" unicode="=" horiz-adv-x="467" 
d="M439 340h-413v37h413v-37zM439 163h-413v38h413v-38z" />
    <glyph glyph-name="greater" unicode="&#x3e;" horiz-adv-x="467" 
d="M31 80v42q46 19 184 81t172 77l-354 159v41l400 -182v-36z" />
    <glyph glyph-name="question" unicode="?" horiz-adv-x="445" 
d="M78 524l-45 8q20 81 74 125t124 44q81 0 131 -49t50 -124q0 -30 -12.5 -61t-25.5 -48.5t-37 -45.5q-5 -6 -22.5 -26t-24 -28.5t-18 -25.5t-16 -33t-5.5 -34v-66h-46v68q0 46 35 97q9 13 45.5 51.5t58.5 74t22 71.5q0 51 -34 94t-107 43q-59 0 -100 -45t-47 -90zM257 0
h-56v61h56v-61z" />
    <glyph glyph-name="at" unicode="@" horiz-adv-x="774" 
d="M514 413v-176q0 -62 57 -62q64 0 98.5 57.5t34.5 155.5q0 133 -89.5 209t-209.5 76q-147 0 -240.5 -95t-93.5 -242q0 -156 94.5 -249t247.5 -93q120 0 200 40q5 -11 13 -33q-113 -40 -209 -40q-169 0 -275.5 102t-106.5 273q0 159 101.5 264t263.5 105q146 0 243.5 -86
t97.5 -231q0 -121 -47.5 -183t-123.5 -62q-9 0 -20 2t-25 6.5t-25.5 16t-14.5 27.5h-2q-28 -53 -128 -53q-54 0 -93 26t-39 78q0 47 33.5 77.5t92.5 30.5h130v52q0 43 -23 65t-83 22q-65 0 -111 -36q-4 4 -9.5 13.5t-9.5 13.5q54 42 131 42q66 0 103 -24t37 -89zM479 324
h-127q-39 0 -67 -19.5t-28 -54.5q0 -37 27.5 -57.5t74.5 -20.5q48 0 84 19t36 61v72z" />
    <glyph glyph-name="A" unicode="A" horiz-adv-x="585" 
d="M519 0l-60 170h-335l-60 -170h-50l253 696h49q170 -464 254 -696h-51zM293 639h-3q-92 -265 -152 -428h307l-90 254q-42 116 -62 174z" />
    <glyph glyph-name="B" unicode="B" horiz-adv-x="585" 
d="M546 186q0 -83 -53.5 -134.5t-133.5 -51.5h-280v696h253q93 0 145.5 -49.5t52.5 -127.5q0 -48 -27.5 -93.5t-89.5 -64.5v-2q66 -12 99.5 -63t33.5 -110zM324 655h-199v-277h199q72 0 115.5 38t43.5 101q0 61 -42 99.5t-117 38.5zM338 337h-213v-294h214q77 0 117.5 40.5
t40.5 106.5q0 63 -41 105t-118 42z" />
    <glyph glyph-name="C" unicode="C" horiz-adv-x="528" 
d="M469 153l42 -19q-27 -66 -84 -103.5t-134 -37.5q-118 0 -179 72t-61 181v207q0 106 62.5 177t177.5 71q75 0 131 -35t84 -95l-42 -21q-22 49 -67 78.5t-105 29.5q-94 0 -144.5 -59t-50.5 -148v-206q0 -89 50.5 -149t144.5 -60q122 0 175 117z" />
    <glyph glyph-name="D" unicode="D" horiz-adv-x="606" 
d="M79 696h224q163 0 224 -126q25 -56 25 -209q0 -169 -24 -227q-32 -72 -91 -103t-148 -31h-210v696zM505 274v143q0 127 -54 181.5t-155 54.5h-170v-610h170q209 0 209 231z" />
    <glyph glyph-name="E" unicode="E" horiz-adv-x="528" 
d="M501 0h-422v696h422v-43h-375v-279h320v-42h-320v-289h375v-43z" />
    <glyph glyph-name="F" unicode="F" horiz-adv-x="507" 
d="M501 653h-374v-281h319v-41h-319v-331h-48v696h422v-43z" />
    <glyph glyph-name="G" unicode="G" horiz-adv-x="585" 
d="M292 34q86 0 139.5 58.5t53.5 139.5v80h-157v40h204v-111q0 -107 -65.5 -177.5t-175.5 -70.5q-118 0 -179 72t-61 181v207q0 106 62.5 177t177.5 71q76 0 132 -35t83 -95q-3 -2 -21.5 -11t-20.5 -10q-22 49 -67 78.5t-105 29.5q-94 0 -144.5 -59t-50.5 -148v-208
q0 -89 50.5 -149t144.5 -60z" />
    <glyph glyph-name="H" unicode="H" horiz-adv-x="625" 
d="M546 0h-47v332h-374v-332h-46v696h46v-322h374v322h47v-696z" />
    <glyph glyph-name="I" unicode="I" horiz-adv-x="212" 
d="M129 0h-46v696h46v-696z" />
    <glyph glyph-name="J" unicode="J" horiz-adv-x="448" 
d="M378 696v-499q0 -103 -58.5 -153t-148.5 -50q-81 0 -141 55l34 32q52 -43 103 -43q74 0 119.5 41t45.5 135v482h46z" />
    <glyph glyph-name="K" unicode="K" horiz-adv-x="606" 
d="M528 0q-77 131 -233 393l-170 -209v-184h-47v696h47v-444h1q14 17 76 93.5t96 117.5l191 233h52l-216 -266q32 -53 119.5 -201t136.5 -229h-53z" />
    <glyph glyph-name="L" unicode="L" horiz-adv-x="528" 
d="M501 0h-422v696h46v-653h376v-43z" />
    <glyph glyph-name="M" unicode="M" horiz-adv-x="741" 
d="M626 0v591h-1l-104 -220l-126 -262h-40l-126 264l-105 218q0 -1 -1 -1v-590h-45v696h47l156 -328q32 -66 94 -200h1l95 200l156 328h45v-696h-46z" />
    <glyph glyph-name="N" unicode="N" horiz-adv-x="663" 
d="M537 0l-261 392q-89 134 -148 225l-1 -1v-616h-47v696h48l258 -388q51 -77 151 -231q1 0 1 1v618h46v-696h-47z" />
    <glyph glyph-name="O" unicode="O" horiz-adv-x="571" 
d="M286 701q110 0 174 -69t64 -179v-207q0 -116 -64 -184.5t-174 -68.5q-118 0 -179.5 72t-61.5 181v207q0 106 62.5 177t178.5 71zM287 657q-93 0 -143.5 -59t-50.5 -147v-207q0 -87 50.5 -147.5t143.5 -60.5q87 0 138 59t51 153v203q0 89 -51 147.5t-138 58.5z" />
    <glyph glyph-name="P" unicode="P" horiz-adv-x="555" 
d="M544 494q0 -77 -54 -136.5t-152 -59.5h-211v-298h-47v696h248q92 0 154 -49.5t62 -152.5zM494 497q0 76 -46.5 116t-119.5 40h-201v-311h205q81 0 121.5 45.5t40.5 109.5z" />
    <glyph glyph-name="Q" unicode="Q" horiz-adv-x="585" 
d="M286 701q110 0 174 -69t64 -179v-207q0 -81 -34 -143l100 -79l-26 -31q-4 3 -98 77q-64 -77 -180 -77q-118 0 -179 72t-61 181v207q0 106 62.5 177t177.5 71zM287 656q-93 0 -143.5 -58.5t-50.5 -146.5v-206q0 -87 50.5 -147.5t143.5 -60.5q89 0 141 63l-102 82l27 32
l97 -79q26 50 26 114v202q0 89 -51 147t-138 58z" />
    <glyph glyph-name="R" unicode="R" horiz-adv-x="585" 
d="M539 0h-56l-155 323h-201v-323h-47v696h269q88 0 143.5 -48.5t55.5 -131.5q0 -75 -46 -126t-123 -64zM498 516q0 70 -46 104.5t-115 34.5h-210v-290h207q72 0 118 39.5t46 111.5z" />
    <glyph glyph-name="S" unicode="S" horiz-adv-x="530" 
d="M503 183q0 -87 -65 -138t-176 -51q-138 0 -241 75l28 38q96 -69 216 -69q84 0 137 37.5t53 108.5q0 32 -12 57t-28.5 40t-44.5 27t-49 17.5t-53 11.5q-38 7 -62 13t-55.5 19t-49 30.5t-30.5 47t-13 67.5q0 86 59.5 137t158.5 51q116 0 199 -53l-25 -40q-87 49 -176 49
q-72 0 -120.5 -36.5t-48.5 -107.5q0 -28 10.5 -50t24.5 -34.5t41.5 -23t46 -15t53.5 -11.5q7 -1 10 -2q39 -8 63.5 -15t56 -21.5t49.5 -34t30.5 -51t12.5 -73.5z" />
    <glyph glyph-name="T" unicode="T" horiz-adv-x="478" 
d="M471 655h-207v-655h-46v655h-210v41h463v-41z" />
    <glyph glyph-name="U" unicode="U" horiz-adv-x="606" 
d="M494 696h48v-464q0 -107 -67 -172.5t-172 -65.5q-107 0 -172.5 68.5t-65.5 176.5v457h46v-446q0 -91 52.5 -151.5t139.5 -60.5q85 0 138 54.5t53 149.5v454z" />
    <glyph glyph-name="V" unicode="V" horiz-adv-x="528" 
d="M284 0h-42q-77 232 -229 696h48q54 -169 110 -339l91 -285h3q16 52 47 148t44 137l108 339h49z" />
    <glyph glyph-name="W" unicode="W" horiz-adv-x="809" 
d="M790 696l-171 -696h-43l-105 376q-9 33 -32 113.5t-35 124.5h-1l-169 -614h-44q-114 464 -170 696h48q15 -66 45 -192.5t44 -185.5l56 -239h2q39 149 65 239l105 378h40q17 -59 52 -186t54 -194l66 -237h1l54 236l89 381h49z" />
    <glyph glyph-name="X" unicode="X" horiz-adv-x="500" 
d="M488 0h-51l-187 318l-187 -318h-52l213 357l-198 339h52l172 -300l172 300h52l-199 -339z" />
    <glyph glyph-name="Y" unicode="Y" horiz-adv-x="475" 
d="M259 288v-288h-44v288l-209 408h49q63 -121 182 -365q33 65 73 148q74 144 109 217h48q-70 -136 -208 -408z" />
    <glyph glyph-name="Z" unicode="Z" horiz-adv-x="488" 
d="M455 0h-422v42l370 613h-354v41h406v-40l-370 -613h370v-43z" />
    <glyph glyph-name="bracketleft" unicode="[" horiz-adv-x="234" 
d="M218 -109h-142v806h142v-35h-99v-737h99v-34z" />
    <glyph glyph-name="backslash" unicode="\" horiz-adv-x="292" 
d="M248 -42l-252 767h36l252 -767h-36z" />
    <glyph glyph-name="bracketright" unicode="]" horiz-adv-x="234" 
d="M176 -109h-141v34h98v737h-98v35h141v-806z" />
    <glyph glyph-name="asciicircum" unicode="^" horiz-adv-x="467" 
d="M87 333h-42l171 360h36l169 -359h-41l-147 316q-15 -37 -73 -159.5t-73 -157.5z" />
    <glyph glyph-name="underscore" unicode="_" horiz-adv-x="493" 
d="M493 -107h-493v37h493v-37z" />
    <glyph glyph-name="grave" unicode="`" horiz-adv-x="482" 
d="M333 575l-28 -12l-99 147l48 19z" />
    <glyph glyph-name="a" unicode="a" horiz-adv-x="474" 
d="M377 54h-1q-38 -60 -166 -60q-75 0 -124.5 36.5t-49.5 104.5q0 62 41.5 100.5t117.5 38.5h182v71q0 57 -33 86t-110 29q-86 0 -138 -48l-28 30q61 59 167 59q86 0 136 -34t50 -120v-347h-44v54zM377 237h-172q-60 0 -93.5 -25.5t-33.5 -74.5q0 -50 37 -77.5t101 -27.5
q27 0 52.5 4.5t51.5 15.5t41.5 33t15.5 53v99z" />
    <glyph glyph-name="b" unicode="b" horiz-adv-x="465" 
d="M91 418l4 -2q55 84 150 84q52 0 89.5 -21t57.5 -58t29 -78.5t9 -90.5q0 -259 -190 -259q-47 0 -82.5 14.5t-62.5 63.5l-4 -1v-70h-44v723h44v-305zM384 247q0 213 -148 213q-77 0 -111 -60t-34 -155q0 -213 145 -213q148 0 148 215z" />
    <glyph glyph-name="c" unicode="c" horiz-adv-x="414" 
d="M395 49q-63 -56 -145 -56q-43 0 -81 14t-70 43t-50.5 79.5t-18.5 117.5t18.5 117.5t50.5 79.5t70 43t81 14q81 0 145 -54l-28 -33q-49 47 -111 47q-87 0 -134.5 -55.5t-47.5 -158.5t47.5 -159t134.5 -56q58 0 111 47z" />
    <glyph glyph-name="d" unicode="d" horiz-adv-x="465" 
d="M417 0h-43v77h-2q-52 -84 -152 -84q-98 0 -142 70.5t-44 184.5q0 50 9.5 92.5t30 80t59 59t92.5 21.5q93 0 147 -80h2v302h43v-723zM374 245q0 95 -34.5 155t-111.5 60q-148 0 -148 -213t148 -213q44 0 74.5 20t45 54t20.5 67t6 70z" />
    <glyph glyph-name="e" unicode="e" horiz-adv-x="474" 
d="M438 241h-353q-2 -93 38.5 -151.5t131.5 -58.5q62 0 120 43l25 -32q-61 -49 -143 -49q-33 0 -61 6t-57 23t-49.5 44t-33.5 73t-13 106q0 72 18 124.5t48 79.5t63.5 39.5t70.5 12.5q94 0 144.5 -63t50.5 -163v-34zM395 277q-2 92 -42 138.5t-110 46.5q-71 0 -112 -48.5
t-45 -136.5h309z" />
    <glyph glyph-name="f" unicode="f" horiz-adv-x="258" 
d="M250 460h-115v-460h-45v460h-59v36h59v110q0 57 32 87.5t81 30.5h47v-40h-38q-77 0 -77 -89v-99h115v-36z" />
    <glyph glyph-name="g" unicode="g" horiz-adv-x="498" 
d="M385 417h3v79h43l1 -493q0 -106 -59.5 -157.5t-151.5 -51.5q-75 0 -133 49l28 33q53 -42 109 -42q71 0 117 42t46 115l1 99h-2q-52 -95 -155 -95q-52 0 -89 21t-57 58t-29 79t-9 91q-1 72 15.5 127t59 92.5t109.5 37.5q105 0 153 -84zM93 247q0 -211 150 -211
q75 0 110 60.5t35 154.5q0 36 -6 69t-20.5 67t-45 54t-73.5 20q-150 0 -150 -214z" />
    <glyph glyph-name="h" unicode="h" horiz-adv-x="508" 
d="M444 0h-44v317q0 142 -139 142q-64 0 -109 -45t-45 -114v-300h-43v723h43v-313h3q23 44 67.5 67t92.5 23q83 0 128.5 -44t45.5 -124v-332z" />
    <glyph glyph-name="i" unicode="i" horiz-adv-x="199" 
d="M124 648h-50v49h50v-49zM122 0h-44v496h44v-496z" />
    <glyph glyph-name="j" unicode="j" horiz-adv-x="218" 
d="M87 648v48h50v-48h-50zM-8 -205v39h17q39 0 60 24.5t21 68.5v568h45v-573q0 -57 -34 -92t-87 -35h-22z" />
    <glyph glyph-name="k" unicode="k" horiz-adv-x="479" 
d="M423 0q-31 47 -92 141.5t-92 141.5q-84 -94 -125 -142v-141h-43v722h43v-522h1q39 43 83 93t97 109.5t83 93.5h52l-162 -183l204 -313h-49z" />
    <glyph glyph-name="l" unicode="l" horiz-adv-x="218" 
d="M185 0q-56 0 -85 23.5t-29 78.5v620h44v-613q0 -71 77 -71h8v-38h-15z" />
    <glyph glyph-name="m" unicode="m" horiz-adv-x="853" 
d="M735 0v317q0 68 -35.5 104.5t-98.5 36.5q-65 0 -110.5 -43t-45.5 -112v-303h-43v317q0 67 -38.5 104t-101.5 37q-65 0 -107 -42.5t-42 -112.5v-303h-43v496h43v-82h2q22 44 65 65t91 21q119 0 161 -99h1q52 99 177 99q75 0 122 -45t47 -123v-332h-44z" />
    <glyph glyph-name="n" unicode="n" horiz-adv-x="502" 
d="M440 0h-43v317q0 142 -140 142q-65 0 -109 -44.5t-44 -114.5v-300h-43v495h43v-85h2q23 44 68 67t92 23q83 0 128.5 -44t45.5 -124v-332z" />
    <glyph glyph-name="o" unicode="o" horiz-adv-x="489" 
d="M249 501q108 0 160 -80q35 -56 35 -177q0 -119 -49 -182q-53 -68 -154 -68q-92 0 -142 56q-55 63 -55 199q0 121 54 185q56 67 151 67zM247 462q-72 0 -116 -56q-43 -55 -43 -159q0 -107 43 -162q41 -52 113 -52q77 0 119 61q37 53 37 151q0 101 -27 147q-41 70 -126 70z
" />
    <glyph glyph-name="p" unicode="p" horiz-adv-x="492" 
d="M58 496h44v-84h1q52 90 156 90q182 0 182 -255q0 -50 -9 -92t-29.5 -79.5t-59.5 -59t-93 -21.5q-97 0 -147 87h-1v-281h-44v695zM102 250q0 -94 34 -154t111 -60q149 0 149 212q0 32 -2 57.5t-10.5 56.5t-23.5 51.5t-42.5 34.5t-65.5 14q-44 0 -75.5 -20.5t-46.5 -54.5
t-21.5 -67.5t-6.5 -69.5z" />
    <glyph glyph-name="q" unicode="q" horiz-adv-x="496" 
d="M49 243q0 259 191 259q98 0 146 -91h1v85h44v-696h-44v286h-1q-56 -91 -156 -91q-53 0 -90 21.5t-56 59t-27 78t-8 89.5zM93 248q0 -212 149 -212q75 0 110 60.5t35 153.5q0 28 -3.5 55t-13 57t-25 51.5t-42 36t-61.5 14.5q-149 0 -149 -216z" />
    <glyph glyph-name="r" unicode="r" horiz-adv-x="340" 
d="M344 489l-18 -44q-30 15 -65 15q-65 0 -106 -43t-41 -113v-304h-43v496h43v-85h3q45 90 153 90q47 0 74 -12z" />
    <glyph glyph-name="s" unicode="s" horiz-adv-x="446" 
d="M408 134q0 -62 -50 -101.5t-141 -39.5q-117 0 -195 61l26 34q71 -56 176 -56q55 0 97.5 25t42.5 79q0 81 -138 99q-33 5 -53 9t-46 13t-40.5 21t-25 33t-10.5 48q0 65 49 103.5t129 38.5q97 0 163 -45l-24 -35q-65 40 -136 40q-60 0 -98 -25.5t-39 -72.5q0 -24 10.5 -40
t33.5 -25.5t43 -14t56 -9.5q35 -5 61 -13t53 -23t41.5 -41.5t14.5 -62.5z" />
    <glyph glyph-name="t" unicode="t" horiz-adv-x="264" 
d="M241 0h-47q-102 0 -102 116v343h-68v37h68v131h45v-131h92v-37h-92v-339q0 -39 15 -60t58 -21h31v-39z" />
    <glyph glyph-name="u" unicode="u" horiz-adv-x="517" 
d="M445 0h-43v80h-2q-23 -44 -67 -64.5t-92 -20.5q-78 0 -127 45t-49 122v334h44v-317q0 -69 38 -106.5t103 -37.5t109 44.5t44 113.5v303h42v-496z" />
    <glyph glyph-name="v" unicode="v" horiz-adv-x="434" 
d="M420 494q-77 -208 -182 -494h-42q-138 372 -183 494h48q18 -49 51 -143t40 -113l64 -178h3q33 95 61 178q15 40 91 256h49z" />
    <glyph glyph-name="w" unicode="w" horiz-adv-x="703" 
d="M694 494l-155 -494h-44q-16 47 -45.5 135t-42.5 126l-57 166q-8 -24 -27 -80.5t-29 -85.5q-58 -174 -88 -261h-44l-154 494h48l80 -271l48 -160h2l53 159q6 18 39.5 118t50.5 154h44q50 -151 89 -271l53 -162h3l48 163l80 270h48z" />
    <glyph glyph-name="x" unicode="x" horiz-adv-x="441" 
d="M412 0h-52l-140 223l-139 -223h-52l165 254l-157 241h52l131 -211l130 211h53l-157 -241z" />
    <glyph glyph-name="y" unicode="y" horiz-adv-x="419" 
d="M197 -111q-15 -44 -45.5 -66.5t-68.5 -22.5h-21v39h20q26 0 47.5 18.5t31.5 52.5q18 56 28 84q-35 93 -98 264t-87 236h49l84 -233q13 -35 36.5 -105t36.5 -105h2q11 31 79 225.5t76 217.5h46z" />
    <glyph glyph-name="z" unicode="z" horiz-adv-x="421" 
d="M385 0h-350v36l300 421h-285v38h335v-37l-298 -419h298v-39z" />
    <glyph glyph-name="braceleft" unicode="{" horiz-adv-x="234" 
d="M227 -109h-47q-37 0 -58.5 28t-21.5 74v140q0 69 -15 104t-56 45v25q72 18 72 151v135q0 47 21.5 75t57.5 28h47v-29h-34q-55 0 -55 -94v-134q0 -57 -20.5 -95.5t-46.5 -47.5v-1q28 -9 47.5 -45.5t19.5 -91.5v-144q0 -94 55 -94h34v-29z" />
    <glyph glyph-name="bar" unicode="|" horiz-adv-x="174" 
d="M106 -162h-34v878h34v-878z" />
    <glyph glyph-name="braceright" unicode="}" horiz-adv-x="234" 
d="M226 282q-41 -10 -56 -45t-15 -104v-140q0 -46 -21.5 -74t-58.5 -28h-47v29h34q55 0 55 94v144q0 55 19.5 91.5t47.5 45.5v1q-26 9 -46.5 47.5t-20.5 95.5v134q0 19 -1.5 32t-6.5 29t-17 24.5t-30 8.5h-34v28h46q39 0 59.5 -28t20.5 -74v-135q0 -133 72 -151v-25z" />
    <glyph glyph-name="asciitilde" unicode="~" horiz-adv-x="467" 
d="M420 293q-45 -68 -105 -68q-23 0 -79 25t-80 25q-39 0 -79 -45l-32 23q47 65 113 65q27 0 81.5 -25t76.5 -25q20 0 35 11.5t35 37.5z" />
    <glyph glyph-name="exclamdown" unicode="&#xa1;" horiz-adv-x="212" 
d="M84 -207l6 507h33l6 -507h-45zM80 489h54v-60h-54v60z" />
    <glyph glyph-name="cent" unicode="&#xa2;" horiz-adv-x="467" 
d="M271 -6v-107h-28v107q-82 9 -135 71.5t-53 181.5q0 117 53 179t135 72v109h28v-107q51 -4 82.5 -15.5t65.5 -38.5l-27 -32q-53 46 -121 46v-428q62 0 121 47q4 -5 13.5 -15.5t14.5 -15.5q-60 -52 -149 -54zM99 247q0 -92 37 -146.5t107 -65.5v422q-70 -11 -107 -65
t-37 -145z" />
    <glyph glyph-name="sterling" unicode="&#xa3;" horiz-adv-x="467" 
d="M34 0v37q85 112 85 266h-86v34h79q-5 30 -27 93t-22 100q0 70 45.5 119.5t128.5 49.5q65 0 107 -20.5t74 -65.5l-37 -24q-51 72 -147 72q-47 0 -86 -31.5t-39 -99.5q0 -30 21 -93t28 -100h150v-34h-147q-2 -163 -76 -262h347v-41h-398z" />
    <glyph glyph-name="currency" unicode="&#xa4;" horiz-adv-x="514" 
d="M137 432l-58 58q7 8 27 28l58 -58q50 38 109 38q54 0 106 -36l58 58q7 -8 27 -28l-58 -58q42 -51 42 -110q0 -57 -38 -109l58 -57q-4 -5 -28 -29l-58 58q-48 -38 -109 -40q-61 1 -111 43l-58 -58l-14.5 14.5l-13.5 13.5l58 58q-35 49 -35 106q-1 56 38 108zM140 324
q0 -56 38.5 -95t93.5 -39q57 0 95.5 39t38.5 95t-38.5 95t-94.5 39q-56 -1 -94.5 -39.5t-38.5 -94.5z" />
    <glyph glyph-name="yen" unicode="&#xa5;" horiz-adv-x="467" 
d="M429 228v-34h-174v-194h-43v194h-172v34h172v58q-2 5 -6.5 14.5t-5.5 11.5h-160v33h144q-23 47 -83 166t-92 185h47l177 -365h2l175 365h46q-76 -158 -172 -351h145v-33h-161l-13 -26v-58h174z" />
    <glyph glyph-name="brokenbar" unicode="&#xa6;" horiz-adv-x="174" 
d="M106 305h-34v411h34v-411zM72 249h34v-411h-34v411z" />
    <glyph glyph-name="section" unicode="&#xa7;" horiz-adv-x="447" 
d="M410 281q0 -68 -51 -113q37 -43 37 -96q0 -67 -48 -109t-133 -42q-45 0 -90 18.5t-73 46.5l26 28q62 -54 136 -54q64 0 101.5 27.5t37.5 85.5q0 45 -35 72.5t-106 52.5q-89 31 -124.5 64t-35.5 91q0 63 57 110q-44 42 -44 96q0 65 44 104.5t115 39.5q91 0 154 -52
l-26 -34q-58 46 -129 46q-52 0 -84 -27.5t-32 -71.5q0 -24 11 -43t33 -33t41.5 -22.5t50.5 -19.5q9 -3 14 -5q153 -52 153 -160zM369 281q1 48 -34.5 74.5t-111.5 53.5q-44 16 -78 34q-53 -38 -53 -88q0 -18 6.5 -33.5t15 -25t25 -19.5t26 -14.5t30.5 -12.5t27 -11
q74 -29 104 -46q43 32 43 88z" />
    <glyph glyph-name="dieresis" unicode="&#xa8;" horiz-adv-x="482" 
d="M366 608h-55v54h55v-54zM176 608h-54v54h54v-54z" />
    <glyph glyph-name="copyright" unicode="&#xa9;" horiz-adv-x="780" 
d="M496 226l35 -16q-17 -40 -52.5 -63t-81.5 -23q-72 0 -109.5 43.5t-37.5 109.5v122q0 64 39 107.5t108 43.5q46 0 80 -21.5t52 -59.5l-34 -17q-13 28 -38.5 45t-58.5 17q-54 0 -82.5 -33.5t-28.5 -83.5v-120q0 -50 29 -84t82 -34q67 0 98 67zM393 -10q-146 0 -243.5 100.5
t-97.5 250.5t98 251t243 101q146 0 244.5 -101t98.5 -251t-98.5 -250.5t-244.5 -100.5zM393 658q-128 0 -215.5 -91.5t-87.5 -225.5q0 -133 87.5 -225t215.5 -92q129 0 217 92t88 225q0 134 -87.5 225.5t-217.5 91.5z" />
    <glyph glyph-name="ordfeminine" unicode="&#xaa;" horiz-adv-x="327" 
d="M162 610q131 0 131 -103v-226h-36v39q-41 -44 -113 -44q-54 0 -87.5 24.5t-33.5 70.5q0 42 28.5 67t83.5 25h122v43q0 71 -95 71q-58 0 -95 -33l-24 24q45 42 119 42zM58 372q0 -30 24.5 -47t67.5 -17q40 0 73.5 17t33.5 54v54h-115q-84 0 -84 -61z" />
    <glyph glyph-name="guillemotleft" unicode="&#xab;" horiz-adv-x="407" 
d="M359 46h-45l-117 173l118 172h44l-115 -172zM224 46h-46l-116 173l118 172h44l-115 -172z" />
    <glyph glyph-name="logicalnot" unicode="&#xac;" horiz-adv-x="467" 
d="M439 299l-1 -232h-36v194h-376v38h413z" />
    <glyph glyph-name="sfthyphen" unicode="&#xad;" horiz-adv-x="370" 
d="M317 239h-264v42h264v-42z" />
    <glyph glyph-name="registered" unicode="&#xae;" horiz-adv-x="546" 
d="M479 492q0 -90 -58.5 -150t-145.5 -60q-86 0 -145 60t-59 150t59 150.5t145 60.5q87 0 145.5 -60t58.5 -151zM452 492q0 80 -50.5 134t-126.5 54q-75 0 -125.5 -54t-50.5 -134t50 -133.5t126 -53.5t126.5 53.5t50.5 133.5zM344 370l-56 109h-61v-109h-26v244h97
q32 0 52.5 -17.5t20.5 -47.5q0 -25 -15 -43.5t-41 -23.5l59 -112h-30zM294 591h-67v-88h66q23 0 37.5 12t14.5 34q0 21 -14.5 31.5t-36.5 10.5z" />
    <glyph glyph-name="macron" unicode="&#xaf;" horiz-adv-x="474" 
d="M384 593h-255v41h255v-41z" />
    <glyph glyph-name="degree" unicode="&#xb0;" horiz-adv-x="362" 
d="M304 577q0 -51 -35.5 -86.5t-87.5 -35.5q-51 0 -86.5 35.5t-35.5 86.5t36 86.5t86 35.5q52 0 87.5 -35.5t35.5 -86.5zM271 577q0 38 -26.5 64.5t-63.5 26.5t-63 -26.5t-26 -64.5t26 -64t63 -26q38 0 64 25.5t26 64.5z" />
    <glyph glyph-name="plusminus" unicode="&#xb1;" horiz-adv-x="467" 
d="M438 271h-186v-189h-37v189h-186v37h186v187h37v-187h186v-37zM440 0h-411v37h411v-37z" />
    <glyph glyph-name="twosuperior" unicode="&#xb2;" horiz-adv-x="286" 
d="M260 370h-248v31l188 221q25 31 25 63q0 30 -23 50t-62 20q-30 0 -54.5 -17.5t-32.5 -46.5l-37 6q10 41 45.5 65.5t79.5 24.5q57 0 89.5 -28t32.5 -73q0 -47 -32 -83l-172 -200h201v-33z" />
    <glyph glyph-name="threesuperior" unicode="&#xb3;" horiz-adv-x="283" 
d="M266 488q0 -54 -39 -88t-98 -34q-97 0 -118 79l36 5q18 -52 83 -52q40 0 69.5 24.5t29.5 63.5q0 40 -24.5 62t-62.5 22h-33v32h28q36 0 60.5 21t24.5 55t-25 57t-65 23q-25 0 -49 -15t-33 -41l-36 7q12 36 45 58t75 22q61 0 93 -31.5t32 -78.5q0 -65 -60 -92
q67 -27 67 -99z" />
    <glyph glyph-name="acute" unicode="&#xb4;" horiz-adv-x="482" 
d="M233 563l-27 12l78 154l49 -19z" />
    <glyph glyph-name="mu" unicode="&#xb5;" horiz-adv-x="514" 
d="M450 0h-42v80h-3q-45 -85 -154 -85q-86 0 -135 59h-2v-254h-43v696h43v-317q0 -67 41.5 -105t104.5 -38q64 0 106 43.5t42 113.5v303h42v-496z" />
    <glyph glyph-name="mu" unicode="&#x3bc;" horiz-adv-x="514" 
d="M450 0h-42v80h-3q-45 -85 -154 -85q-86 0 -135 59h-2v-254h-43v696h43v-317q0 -67 41.5 -105t104.5 -38q64 0 106 43.5t42 113.5v303h42v-496z" />
    <glyph glyph-name="paragraph" unicode="&#xb6;" horiz-adv-x="494" 
d="M359 682h-100v-763h-46v440q-82 0 -133.5 48.5t-51.5 133.5q0 78 46 130.5t134 52.5h259v-42h-62v-763h-46v763z" />
    <glyph glyph-name="periodcentered" unicode="&#xb7;" horiz-adv-x="174" 
d="M117 232h-59v65h59v-65z" />
    <glyph glyph-name="cedilla" unicode="&#xb8;" horiz-adv-x="414" 
d="M254 14q-12 -38 -19 -57q52 -4 73 -26.5t21 -50.5q0 -26 -23 -49t-68 -23q-43 0 -80 13l10 25q33 -12 68 -12q19 0 38 12t19 35t-22.5 36.5t-56.5 13.5h-4l-10 8l25 76q5 0 15 -0.5t14 -0.5z" />
    <glyph glyph-name="onesuperior" unicode="&#xb9;" horiz-adv-x="225" 
d="M143 786v-416h-37v376l-66 -40v39l68 41h35z" />
    <glyph glyph-name="ordmasculine" unicode="&#xba;" horiz-adv-x="338" 
d="M170 609q75 0 112 -53q26 -38 26 -111q-1 -75 -23 -111q-36 -58 -119 -58q-59 0 -93 31q-46 38 -46 137q0 50 16 87q38 78 127 78zM170 577q-59 0 -87 -47q-19 -29 -19 -88q0 -51 13 -80q25 -55 91 -55q53 0 80 35q25 33 25 102q0 60 -19 89q-29 44 -84 44z" />
    <glyph glyph-name="guillemotright" unicode="&#xbb;" horiz-adv-x="407" 
d="M108 46h-44l115 173l-116 172h44l118 -172zM243 46h-45l115 173l-115 172h44l118 -172z" />
    <glyph glyph-name="onequarter" unicode="&#xbc;" horiz-adv-x="750" 
d="M190 696v-416h-37v376l-66 -40v39l68 41h35zM599 718l-425 -744h-36l425 744h36zM664 65h-39v-65h-39v65h-201v30l162 321h41l-163 -318h161v126h39v-126h39v-33z" />
    <glyph glyph-name="onehalf" unicode="&#xbd;" horiz-adv-x="750" 
d="M672 0h-248v32l188 221q25 30 25 62q0 30 -23 50t-62 20q-30 0 -54.5 -17.5t-32.5 -46.5l-37 7q10 40 45.5 64.5t79.5 24.5q57 0 89.5 -28t32.5 -73q0 -46 -32 -82l-172 -200h201v-34zM585 718l-425 -744h-36l425 744h36zM178 696v-416h-37v376l-66 -40v39l68 41h35z" />
    <glyph glyph-name="threequarters" unicode="&#xbe;" horiz-adv-x="750" 
d="M292 398q0 -54 -39 -88t-98 -34q-97 0 -118 79l36 5q18 -52 83 -52q40 0 69.5 24.5t29.5 63.5q0 40 -24.5 62t-62.5 22h-33v32h28q36 0 60.5 21t24.5 55t-25 57t-65 23q-25 0 -49 -15t-33 -41l-36 7q12 36 45 58t75 22q61 0 93 -31.5t32 -78.5q0 -65 -60 -92
q67 -27 67 -99zM645 718l-425 -744h-36l425 744h36zM713 65h-39v-65h-39v65h-201v30l162 321h41l-163 -318h161v126h39v-126h39v-33z" />
    <glyph glyph-name="questiondown" unicode="&#xbf;" horiz-adv-x="429" 
d="M360 -34l44 -8q-19 -81 -73 -125t-125 -44q-80 0 -130 49t-50 124q0 70 75 155q2 3 14.5 16t15.5 17t13.5 16t14 18t10.5 17.5t9.5 20t5.5 19.5t3 22v66h46v-68q0 -47 -35 -96q-10 -15 -35 -41.5t-43 -47.5t-33 -50.5t-15 -57.5q0 -51 33.5 -94t106.5 -43q60 0 101 45
t47 90zM181 490h55v-61h-55v61z" />
    <glyph glyph-name="Agrave" unicode="&#xc0;" horiz-adv-x="598" 
d="M519 0l-60 170h-335l-60 -170h-50l253 696h49q170 -464 254 -696h-51zM293 639h-3q-92 -265 -152 -428h307l-90 254q-42 116 -62 174zM318 751q-12 -16 -19 -23l-151 93l35 38l42.5 -34l50 -40z" />
    <glyph glyph-name="Aacute" unicode="&#xc1;" horiz-adv-x="585" 
d="M519 0l-60 170h-335l-60 -170h-50l253 696h49q170 -464 254 -696h-51zM293 639h-3q-92 -265 -152 -428h307l-90 254q-42 116 -62 174zM282 728q-4 4 -11.5 13t-8.5 10q14 11 62 49t74 59q1 -1 35 -38z" />
    <glyph glyph-name="Acircumflex" unicode="&#xc2;" horiz-adv-x="585" 
d="M519 0l-60 170h-335l-60 -170h-50l253 696h49q170 -464 254 -696h-51zM293 639h-3q-92 -265 -152 -428h307l-90 254q-42 116 -62 174zM422 730q-19 12 -62 40t-67 43l-130 -84l-18 21l132 110h36l127 -109z" />
    <glyph glyph-name="Atilde" unicode="&#xc3;" horiz-adv-x="585" 
d="M519 0l-60 170h-335l-60 -170h-50l253 696h49q170 -464 254 -696h-51zM293 639h-3q-92 -265 -152 -428h307l-90 254q-42 116 -62 174zM360 758q-20 0 -64 20.5t-63 20.5q-32 0 -64 -38l-28 16q39 65 92 65q22 0 66 -21t60 -21q31 0 57 40l29 -17q-35 -65 -85 -65z" />
    <glyph glyph-name="Adieresis" unicode="&#xc4;" horiz-adv-x="585" 
d="M519 0l-60 170h-335l-60 -170h-50l253 696h49q170 -464 254 -696h-51zM293 639h-3q-92 -265 -152 -428h307l-90 254q-42 116 -62 174zM352 758v53h55v-53h-55zM174 758v53h54v-53h-54z" />
    <glyph glyph-name="Aring" unicode="&#xc5;" horiz-adv-x="585" 
d="M519 0l-60 170h-335l-60 -170h-50l253 696h49q170 -464 254 -696h-51zM293 639h-3q-92 -265 -152 -428h307l-90 254q-42 116 -62 174zM291 714q-37 0 -63.5 26.5t-26.5 63.5t26 63t64 26t64.5 -26t26.5 -63t-27 -63.5t-64 -26.5zM291 867q-26 0 -44 -18.5t-18 -44.5
t18 -44.5t44 -18.5q27 0 45 18.5t18 44.5t-18 44.5t-45 18.5z" />
    <glyph glyph-name="AE" unicode="&#xc6;" horiz-adv-x="920" 
d="M886 0h-422v185h-292l-117 -185h-51l439 696h443v-43h-374v-279h320v-42h-320v-289h374v-43zM464 651l-265 -425h265v425z" />
    <glyph glyph-name="Ccedilla" unicode="&#xc7;" horiz-adv-x="528" 
d="M468 153l42 -20q-26 -63 -82 -100.5t-131 -38.5q-1 -3 -12 -37q52 -4 73 -26.5t21 -50.5q0 -26 -23 -49t-68 -23q-43 0 -79 13l9 25q33 -12 68 -12q19 0 38 12t19 35t-22 36.5t-56 13.5q-3 0 -14 8q3 9 8.5 28t8.5 28q-106 6 -161 76.5t-55 173.5v208q0 106 62.5 177
t177.5 71q76 0 132 -35t83 -96l-13 -6.5t-15.5 -8t-13.5 -6.5q-21 49 -66 78.5t-106 29.5q-94 0 -144.5 -59t-50.5 -148v-206q0 -88 51 -148.5t144 -60.5q124 0 175 118z" />
    <glyph glyph-name="Egrave" unicode="&#xc8;" horiz-adv-x="528" 
d="M501 0h-422v696h422v-43h-375v-279h320v-42h-320v-289h375v-43zM337 751l-20 -22l-151 93l36 37z" />
    <glyph glyph-name="Eacute" unicode="&#xc9;" horiz-adv-x="528" 
d="M501 0h-422v696h422v-43h-375v-279h320v-42h-320v-289h375v-43zM250 729l-19 22l135 108l35 -37z" />
    <glyph glyph-name="Ecircumflex" unicode="&#xca;" horiz-adv-x="528" 
d="M501 0h-422v696h422v-43h-375v-279h320v-42h-320v-289h375v-43zM422 731l-129 83l-130 -84l-18 21l131 109h37l127 -108z" />
    <glyph glyph-name="Edieresis" unicode="&#xcb;" horiz-adv-x="528" 
d="M501 0h-422v696h422v-43h-375v-279h320v-42h-320v-289h375v-43zM406 758h-55v53h55v-53zM227 758h-55v53h55v-53z" />
    <glyph glyph-name="Igrave" unicode="&#xcc;" horiz-adv-x="212" 
d="M129 0h-46v696h46v-696zM133 751l-20 -22l-151 93l36 37z" />
    <glyph glyph-name="Iacute" unicode="&#xcd;" horiz-adv-x="212" 
d="M129 0h-46v696h46v-696zM108 729l-19 22l135 108l35 -37z" />
    <glyph glyph-name="Icircumflex" unicode="&#xce;" horiz-adv-x="270" 
d="M143 0h-46v696h46v-696zM251 731l-129 83l-130 -84l-18 21l132 109h37l126 -108z" />
    <glyph glyph-name="Idieresis" unicode="&#xcf;" horiz-adv-x="212" 
d="M129 0h-46v696h46v-696zM224 758h-54v53h54v-53zM46 758h-55v53h55v-53z" />
    <glyph glyph-name="Eth" unicode="&#xd0;" horiz-adv-x="606" 
d="M79 696h224q163 0 224 -126q25 -56 25 -209q0 -169 -24 -227q-32 -72 -91 -103t-148 -31h-210v353h-66v36h66v307zM505 274v143q0 127 -54 181.5t-155 54.5h-170v-264h150v-36h-150v-310h170q209 0 209 231z" />
    <glyph glyph-name="Ntilde" unicode="&#xd1;" horiz-adv-x="663" 
d="M537 0l-261 392q-89 134 -148 225l-1 -1v-616h-47v696h48l258 -388q51 -77 151 -231q1 0 1 1v618h46v-696h-47zM406 758q-20 0 -64 20.5t-63 20.5q-32 0 -64 -38l-28 16q39 65 92 65q22 0 66 -21t60 -21q31 0 57 40l29 -17q-35 -65 -85 -65z" />
    <glyph glyph-name="Ograve" unicode="&#xd2;" horiz-adv-x="571" 
d="M286 701q110 0 174 -69t64 -179v-207q0 -116 -64 -184.5t-174 -68.5q-118 0 -179.5 72t-61.5 181v207q0 106 62.5 177t178.5 71zM287 657q-93 0 -143.5 -59t-50.5 -147v-207q0 -87 50.5 -147.5t143.5 -60.5q87 0 138 59t51 153v203q0 89 -51 147.5t-138 58.5zM350 751
l-19 -22l-152 93l36 37z" />
    <glyph glyph-name="Oacute" unicode="&#xd3;" horiz-adv-x="571" 
d="M286 701q110 0 174 -69t64 -179v-207q0 -116 -64 -184.5t-174 -68.5q-118 0 -179.5 72t-61.5 181v207q0 106 62.5 177t178.5 71zM287 657q-93 0 -143.5 -59t-50.5 -147v-207q0 -87 50.5 -147.5t143.5 -60.5q87 0 138 59t51 153v203q0 89 -51 147.5t-138 58.5zM259 729
l-19 22l135 108l36 -37z" />
    <glyph glyph-name="Ocircumflex" unicode="&#xd4;" horiz-adv-x="571" 
d="M286 701q110 0 174 -69t64 -179v-207q0 -116 -64 -184.5t-174 -68.5q-118 0 -179.5 72t-61.5 181v207q0 106 62.5 177t178.5 71zM287 657q-93 0 -143.5 -59t-50.5 -147v-207q0 -87 50.5 -147.5t143.5 -60.5q87 0 138 59t51 153v203q0 89 -51 147.5t-138 58.5zM414 731
l-129 83l-130 -84l-17 21l131 109h37l126 -108z" />
    <glyph glyph-name="Otilde" unicode="&#xd5;" horiz-adv-x="571" 
d="M286 701q110 0 174 -69t64 -179v-207q0 -116 -64 -184.5t-174 -68.5q-118 0 -179.5 72t-61.5 181v207q0 106 62.5 177t178.5 71zM287 657q-93 0 -143.5 -59t-50.5 -147v-207q0 -87 50.5 -147.5t143.5 -60.5q87 0 138 59t51 153v203q0 89 -51 147.5t-138 58.5zM350 758
q-20 0 -64 20.5t-63 20.5q-32 0 -64 -38l-28 16q39 65 92 65q22 0 66 -21t60 -21q31 0 57 40l29 -17q-35 -65 -85 -65z" />
    <glyph glyph-name="Odieresis" unicode="&#xd6;" horiz-adv-x="571" 
d="M286 701q110 0 174 -69t64 -179v-207q0 -116 -64 -184.5t-174 -68.5q-118 0 -179.5 72t-61.5 181v207q0 106 62.5 177t178.5 71zM287 657q-93 0 -143.5 -59t-50.5 -147v-207q0 -87 50.5 -147.5t143.5 -60.5q87 0 138 59t51 153v203q0 89 -51 147.5t-138 58.5zM400 759
h-54v53h54v-53zM222 759h-55v53h55v-53z" />
    <glyph glyph-name="multiply" unicode="&#xd7;" horiz-adv-x="495" 
d="M437 432l-159 -159l158 -158l-26 -26l-158 157l-160 -160l-26 26l160 161l-156 157l26 26l157 -157l159 159z" />
    <glyph glyph-name="Oslash" unicode="&#xd8;" horiz-adv-x="571" 
d="M286 701q102 0 167 -63l41 62l27 -18l-45 -70q48 -66 48 -159v-207q0 -116 -64 -184.5t-174 -68.5q-112 0 -175 68l-43 -64l-27 18l48 72q-44 65 -44 159v207q0 106 62.5 177t178.5 71zM476 451q0 66 -30 117l-308 -465q54 -67 149 -67q87 0 138 59t51 153v203zM287 657
q-93 0 -143.5 -59t-50.5 -147v-207q0 -63 27 -111l306 464q-55 60 -139 60z" />
    <glyph glyph-name="Ugrave" unicode="&#xd9;" horiz-adv-x="606" 
d="M494 696h48v-464q0 -107 -67 -172.5t-172 -65.5q-107 0 -172.5 68.5t-65.5 176.5v457h46v-446q0 -91 52.5 -151.5t139.5 -60.5q85 0 138 54.5t53 149.5v454zM348 751l-20 -22l-151 93l35 37z" />
    <glyph glyph-name="Uacute" unicode="&#xda;" horiz-adv-x="606" 
d="M494 696h48v-464q0 -107 -67 -172.5t-172 -65.5q-107 0 -172.5 68.5t-65.5 176.5v457h46v-446q0 -91 52.5 -151.5t139.5 -60.5q85 0 138 54.5t53 149.5v454zM257 729l-20 22l136 108l35 -37z" />
    <glyph glyph-name="Ucircumflex" unicode="&#xdb;" horiz-adv-x="606" 
d="M494 696h48v-464q0 -107 -67 -172.5t-172 -65.5q-107 0 -172.5 68.5t-65.5 176.5v457h46v-446q0 -91 52.5 -151.5t139.5 -60.5q85 0 138 54.5t53 149.5v454zM431 731l-129 83l-130 -84l-18 21l131 109h37l127 -108z" />
    <glyph glyph-name="Udieresis" unicode="&#xdc;" horiz-adv-x="606" 
d="M494 696h48v-464q0 -107 -67 -172.5t-172 -65.5q-107 0 -172.5 68.5t-65.5 176.5v457h46v-446q0 -91 52.5 -151.5t139.5 -60.5q85 0 138 54.5t53 149.5v454zM421 759h-54v53h54v-53zM243 759h-55v53h55v-53z" />
    <glyph glyph-name="Yacute" unicode="&#xdd;" horiz-adv-x="475" 
d="M259 288v-288h-44v288l-209 408h49q63 -121 182 -365q33 65 73 148q74 144 109 217h48q-70 -136 -208 -408zM199 728l-19 23l135 108l36 -38z" />
    <glyph glyph-name="Thorn" unicode="&#xde;" horiz-adv-x="555" 
d="M80 0v695h47v-144h201q92 0 154 -49.5t62 -152.5q0 -77 -54 -136.5t-152 -59.5h-211v-153h-47zM494 352q0 76 -46.5 116t-119.5 40h-201v-312h205q80 0 121 46t41 110z" />
    <glyph glyph-name="germandbls" unicode="&#xdf;" horiz-adv-x="509" 
d="M457 228q0 -113 -49.5 -170.5t-132.5 -57.5h-30v37h26q73 0 106.5 53.5t33.5 138.5q0 73 -37.5 118t-97.5 45h-16v38h16q51 0 81 39t30 85q0 52 -33.5 91.5t-101.5 39.5q-52 0 -84.5 -27t-42.5 -59.5t-10 -69.5v-529h-43v533q0 87 48.5 138.5t136.5 51.5q80 0 127 -48
t47 -112q0 -44 -20 -86t-64 -62v-2q56 -17 83 -68t27 -117z" />
    <glyph glyph-name="agrave" unicode="&#xe0;" horiz-adv-x="474" 
d="M377 54h-1q-38 -60 -166 -60q-75 0 -124.5 36.5t-49.5 104.5q0 62 41.5 100.5t117.5 38.5h182v71q0 57 -33 86t-110 29q-86 0 -138 -48l-28 30q61 59 167 59q86 0 136 -34t50 -120v-347h-44v54zM377 237h-172q-60 0 -93.5 -25.5t-33.5 -74.5q0 -50 37 -77.5t101 -27.5
q27 0 52.5 4.5t51.5 15.5t41.5 33t15.5 53v99zM282 575q-4 -2 -8.5 -4t-10 -4.5t-8.5 -3.5l-99 146q7 2 23 9t25 10z" />
    <glyph glyph-name="aacute" unicode="&#xe1;" horiz-adv-x="474" 
d="M377 54h-1q-38 -60 -166 -60q-75 0 -124.5 36.5t-49.5 104.5q0 62 41.5 100.5t117.5 38.5h182v71q0 57 -33 86t-110 29q-86 0 -138 -48l-28 30q61 59 167 59q86 0 136 -34t50 -120v-347h-44v54zM377 237h-172q-60 0 -93.5 -25.5t-33.5 -74.5q0 -50 37 -77.5t101 -27.5
q27 0 52.5 4.5t51.5 15.5t41.5 33t15.5 53v99zM260 563l-27 12l79 153q7 -2 23 -9t25 -10z" />
    <glyph glyph-name="acircumflex" unicode="&#xe2;" horiz-adv-x="474" 
d="M377 54h-1q-38 -60 -166 -60q-75 0 -124.5 36.5t-49.5 104.5q0 62 41.5 100.5t117.5 38.5h182v71q0 57 -33 86t-110 29q-86 0 -138 -48l-28 30q61 59 167 59q86 0 136 -34t50 -120v-347h-44v54zM377 237h-172q-60 0 -93.5 -25.5t-33.5 -74.5q0 -50 37 -77.5t101 -27.5
q27 0 52.5 4.5t51.5 15.5t41.5 33t15.5 53v99zM367 557l-126 96q-42 -33 -126 -97l-6.5 6.5l-8 8l-6.5 6.5l131 124h37l126 -124z" />
    <glyph glyph-name="atilde" unicode="&#xe3;" horiz-adv-x="474" 
d="M377 54h-1q-38 -60 -166 -60q-75 0 -124.5 36.5t-49.5 104.5q0 62 41.5 100.5t117.5 38.5h182v71q0 57 -33 86t-110 29q-86 0 -138 -48l-28 30q61 59 167 59q86 0 136 -34t50 -120v-347h-44v54zM377 237h-172q-60 0 -93.5 -25.5t-33.5 -74.5q0 -50 37 -77.5t101 -27.5
q27 0 52.5 4.5t51.5 15.5t41.5 33t15.5 53v99zM325 588q-20 0 -64 20.5t-63 20.5q-32 0 -64 -38l-28 16q39 65 92 65q22 0 66 -21t60 -21q31 0 57 40l29 -17q-35 -65 -85 -65z" />
    <glyph glyph-name="adieresis" unicode="&#xe4;" horiz-adv-x="474" 
d="M377 54h-1q-38 -60 -166 -60q-75 0 -124.5 36.5t-49.5 104.5q0 62 41.5 100.5t117.5 38.5h182v71q0 57 -33 86t-110 29q-86 0 -138 -48l-28 30q61 59 167 59q86 0 136 -34t50 -120v-347h-44v54zM377 237h-172q-60 0 -93.5 -25.5t-33.5 -74.5q0 -50 37 -77.5t101 -27.5
q27 0 52.5 4.5t51.5 15.5t41.5 33t15.5 53v99zM315 608v53h54v-53h-54zM126 608v53h54v-53h-54z" />
    <glyph glyph-name="aring" unicode="&#xe5;" horiz-adv-x="474" 
d="M377 54h-1q-38 -60 -166 -60q-75 0 -124.5 36.5t-49.5 104.5q0 62 41.5 100.5t117.5 38.5h182v71q0 57 -33 86t-110 29q-86 0 -138 -48l-28 30q61 59 167 59q86 0 136 -34t50 -120v-347h-44v54zM377 237h-172q-60 0 -93.5 -25.5t-33.5 -74.5q0 -50 37 -77.5t101 -27.5
q27 0 52.5 4.5t51.5 15.5t41.5 33t15.5 53v99zM245 553q-37 0 -63.5 26.5t-26.5 63.5t26.5 63t63.5 26q38 0 64.5 -26t26.5 -63t-27 -63.5t-64 -26.5zM245 706q-26 0 -44 -18.5t-18 -44.5t18 -44.5t44 -18.5q27 0 45 18.5t18 44.5t-18 44.5t-45 18.5z" />
    <glyph glyph-name="ae" unicode="&#xe6;" horiz-adv-x="809" 
d="M420 238q0 -207 170 -207q65 0 119 42l27 -32q-60 -47 -144 -47q-138 0 -186 106q-19 -45 -67.5 -75.5t-128.5 -30.5q-76 0 -125 34.5t-49 102.5q0 63 41.5 103t117.5 40h182v75q0 111 -131 111q-93 0 -147 -45l-27 31q64 55 170 55q144 0 170 -100q50 100 165 100
q96 0 146 -63.5t50 -162.5v-37h-353zM377 238h-170q-57 0 -92.5 -26t-35.5 -75q0 -50 36.5 -77.5t100.5 -27.5q70 0 115.5 33.5t45.5 96.5v76zM578 461q-70 0 -111 -49t-45 -138h306q-4 92 -43 139.5t-107 47.5z" />
    <glyph glyph-name="ccedilla" unicode="&#xe7;" horiz-adv-x="414" 
d="M250 -6h-3l-12 -37q52 -4 73 -26.5t21 -50.5q0 -26 -23 -49t-68 -23q-43 0 -80 13l10 25q33 -12 68 -12q20 0 38.5 12.5t18.5 34.5q0 23 -22.5 36.5t-56.5 13.5q-4 0 -8 3.5t-6 4.5l19 57q-82 8 -135.5 70t-53.5 181q0 130 63.5 192t156.5 62q81 0 144 -55l-27 -32
q-52 46 -112 46q-87 0 -134.5 -55t-47.5 -158t47.5 -159t134.5 -56q57 0 112 47q2 -2 28 -31q-64 -54 -145 -54z" />
    <glyph glyph-name="egrave" unicode="&#xe8;" horiz-adv-x="474" 
d="M438 241h-353q-2 -93 38.5 -151.5t131.5 -58.5q63 0 119 41l27 -30q-61 -49 -144 -49q-33 0 -61 6t-57 23t-49.5 44t-33.5 73t-13 106q0 72 17.5 124.5t48 79.5t63.5 39.5t70 12.5q94 0 145 -63t51 -163v-34zM392 277q-3 92 -42 138.5t-107 46.5q-71 0 -112 -48.5
t-45 -136.5h306zM285 575l-28 -12l-99 147l48 19z" />
    <glyph glyph-name="eacute" unicode="&#xe9;" horiz-adv-x="474" 
d="M438 241h-353q-2 -93 38.5 -151.5t131.5 -58.5q63 0 119 41l27 -30q-61 -49 -144 -49q-33 0 -61 6t-57 23t-49.5 44t-33.5 73t-13 106q0 72 17.5 124.5t48 79.5t63.5 39.5t70 12.5q94 0 145 -63t51 -163v-34zM392 277q-3 92 -42 138.5t-107 46.5q-71 0 -112 -48.5
t-45 -136.5h306zM236 563l-27 12l78 154l49 -19z" />
    <glyph glyph-name="ecircumflex" unicode="&#xea;" horiz-adv-x="474" 
d="M438 241h-353q-2 -93 38.5 -151.5t131.5 -58.5q63 0 119 41l27 -30q-61 -49 -144 -49q-33 0 -61 6t-57 23t-49.5 44t-33.5 73t-13 106q0 72 17.5 124.5t48 79.5t63.5 39.5t70 12.5q94 0 145 -63t51 -163v-34zM392 277q-3 92 -42 138.5t-107 46.5q-71 0 -112 -48.5
t-45 -136.5h306zM368 557l-126 97l-127 -98l-21 21l132 124h37l126 -123z" />
    <glyph glyph-name="edieresis" unicode="&#xeb;" horiz-adv-x="474" 
d="M438 241h-353q-2 -93 38.5 -151.5t131.5 -58.5q63 0 119 41l27 -30q-61 -49 -144 -49q-33 0 -61 6t-57 23t-49.5 44t-33.5 73t-13 106q0 72 17.5 124.5t48 79.5t63.5 39.5t70 12.5q94 0 145 -63t51 -163v-34zM392 277q-3 92 -42 138.5t-107 46.5q-71 0 -112 -48.5
t-45 -136.5h306zM369 608h-55v54h55v-54zM180 608h-55v54h55v-54z" />
    <glyph glyph-name="igrave" unicode="&#xec;" horiz-adv-x="200" 
d="M119 0h-46v496h46v-496zM117 575l-27 -12l-100 147l48 19z" />
    <glyph glyph-name="iacute" unicode="&#xed;" horiz-adv-x="200" 
d="M119 0h-46v496h46v-496zM111 563l-28 12l79 154l48 -19z" />
    <glyph glyph-name="icircumflex" unicode="&#xee;" horiz-adv-x="255" 
d="M151 0h-46v496h46v-496zM253 557l-125 97l-127 -98l-21 21l131 124h37l127 -123z" />
    <glyph glyph-name="idieresis" unicode="&#xef;" horiz-adv-x="204" 
d="M126 0h-46v496h46v-496zM224 608h-55v54h55v-54zM35 608h-55v54h55v-54z" />
    <glyph glyph-name="eth" unicode="&#xf0;" horiz-adv-x="491" 
d="M245 476q53 0 98 -28.5t60 -75.5h3q0 146 -42 215l-73 -52l-15 22l73 52q-49 67 -154 80l7 37q122 -8 182 -90l74 53l17 -23l-75 -53q49 -84 49 -281q0 -195 -57 -270q-52 -68 -153 -68q-94 0 -142 55q-55 61 -55 188q0 110 55 174q57 65 148 65zM244 436q-78 0 -122 -60
q-36 -50 -36 -142q0 -95 42 -150q40 -51 114 -51q73 0 117 60q40 54 40 146q0 96 -44 147q-44 50 -111 50z" />
    <glyph glyph-name="ntilde" unicode="&#xf1;" horiz-adv-x="502" 
d="M440 0h-43v317q0 142 -140 142q-65 0 -109 -44.5t-44 -114.5v-300h-43v495h43v-85h2q23 44 68 67t92 23q83 0 128.5 -44t45.5 -124v-332zM308 588q-20 0 -64 20.5t-63 20.5q-32 0 -64 -38l-28 16q39 65 92 65q22 0 66 -21t60 -21q31 0 57 40l29 -17q-35 -65 -85 -65z" />
    <glyph glyph-name="ograve" unicode="&#xf2;" horiz-adv-x="489" 
d="M281 575l-28 -12l-99 147l48 19zM249 501q108 0 160 -80q35 -56 35 -177q0 -119 -49 -182q-53 -68 -154 -68q-92 0 -142 56q-55 63 -55 199q0 121 54 185q56 67 151 67zM247 462q-72 0 -116 -56q-43 -55 -43 -159q0 -107 43 -162q41 -52 113 -52q77 0 119 61
q37 53 37 151q0 101 -27 147q-41 70 -126 70z" />
    <glyph glyph-name="oacute" unicode="&#xf3;" horiz-adv-x="489" 
d="M253 563l-28 12l79 154l48 -19zM249 501q108 0 160 -80q35 -56 35 -177q0 -119 -49 -182q-53 -68 -154 -68q-92 0 -142 56q-55 63 -55 199q0 121 54 185q56 67 151 67zM247 462q-72 0 -116 -56q-43 -55 -43 -159q0 -107 43 -162q41 -52 113 -52q77 0 119 61q37 53 37 151
q0 101 -27 147q-41 70 -126 70z" />
    <glyph glyph-name="ocircumflex" unicode="&#xf4;" horiz-adv-x="489" 
d="M370 557l-126 97l-126 -98l-21 21l131 124h37l126 -123zM249 501q108 0 160 -80q35 -56 35 -177q0 -119 -49 -182q-53 -68 -154 -68q-92 0 -142 56q-55 63 -55 199q0 121 54 185q56 67 151 67zM247 462q-72 0 -116 -56q-43 -55 -43 -159q0 -107 43 -162q41 -52 113 -52
q77 0 119 61q37 53 37 151q0 101 -27 147q-41 70 -126 70z" />
    <glyph glyph-name="otilde" unicode="&#xf5;" horiz-adv-x="489" 
d="M249 501q108 0 160 -80q35 -56 35 -177q0 -119 -49 -182q-53 -68 -154 -68q-92 0 -142 56q-55 63 -55 199q0 121 54 185q56 67 151 67zM247 462q-72 0 -116 -56q-43 -55 -43 -159q0 -107 43 -162q41 -52 113 -52q77 0 119 61q37 53 37 151q0 101 -27 147q-41 70 -126 70z
M313 588q-20 0 -64 20.5t-63 20.5q-32 0 -64 -38l-28 16q39 65 92 65q22 0 66 -21t60 -21q31 0 57 40l29 -17q-35 -65 -85 -65z" />
    <glyph glyph-name="odieresis" unicode="&#xf6;" horiz-adv-x="489" 
d="M365 608h-55v54h55v-54zM176 608h-55v54h55v-54zM249 501q108 0 160 -80q35 -56 35 -177q0 -119 -49 -182q-53 -68 -154 -68q-92 0 -142 56q-55 63 -55 199q0 121 54 185q56 67 151 67zM247 462q-72 0 -116 -56q-43 -55 -43 -159q0 -107 43 -162q41 -52 113 -52
q77 0 119 61q37 53 37 151q0 101 -27 147q-41 70 -126 70z" />
    <glyph glyph-name="divide" unicode="&#xf7;" horiz-adv-x="467" 
d="M274 448q0 -16 -11 -27.5t-27 -11.5t-27.5 11.5t-11.5 27.5q0 17 11.5 27t27.5 10t27 -10t11 -27zM441 261h-416v37h416v-37zM237 147q15 0 26 -10t11 -27q0 -16 -11 -27t-27 -11t-27.5 11t-11.5 27t12 26.5t28 10.5z" />
    <glyph glyph-name="oslash" unicode="&#xf8;" horiz-adv-x="489" 
d="M249 501q80 0 131 -46l40 53l24 -18l-43 -58q1 -1 2.5 -3t3 -4.5t2.5 -3.5q35 -56 35 -177q0 -119 -49 -182q-53 -68 -154 -68q-84 0 -133 46l-37 -50l-24 18l41 55q-44 62 -44 186q0 121 54 185q56 67 151 67zM373 392l-1 1l-235 -315q39 -45 107 -45q77 0 119 61
q37 53 37 151q0 101 -27 147zM247 462q-72 0 -116 -56q-43 -55 -43 -159q0 -93 30 -144l235 315q-42 44 -106 44z" />
    <glyph glyph-name="ugrave" unicode="&#xf9;" horiz-adv-x="517" 
d="M445 0h-43v80h-2q-45 -85 -154 -85q-78 0 -129.5 45.5t-51.5 121.5v334h44v-317q0 -68 40.5 -106t105.5 -38q64 0 106 44t42 114v303h42v-496zM296 575l-27 -12l-100 147l49 19z" />
    <glyph glyph-name="uacute" unicode="&#xfa;" horiz-adv-x="517" 
d="M445 0h-43v80h-2q-45 -85 -154 -85q-78 0 -129.5 45.5t-51.5 121.5v334h44v-317q0 -68 40.5 -106t105.5 -38q64 0 106 44t42 114v303h42v-496zM269 563l-27 12l78 154l49 -19z" />
    <glyph glyph-name="ucircumflex" unicode="&#xfb;" horiz-adv-x="517" 
d="M445 0h-43v80h-2q-45 -85 -154 -85q-78 0 -129.5 45.5t-51.5 121.5v334h44v-317q0 -68 40.5 -106t105.5 -38q64 0 106 44t42 114v303h42v-496zM382 557l-125 97l-127 -98l-21 21l131 124h37l127 -123z" />
    <glyph glyph-name="udieresis" unicode="&#xfc;" horiz-adv-x="517" 
d="M445 0h-43v80h-2q-45 -85 -154 -85q-78 0 -129.5 45.5t-51.5 121.5v334h44v-317q0 -68 40.5 -106t105.5 -38q64 0 106 44t42 114v303h42v-496zM373 608h-55v54h55v-54zM184 608h-55v54h55v-54z" />
    <glyph glyph-name="yacute" unicode="&#xfd;" horiz-adv-x="419" 
d="M197 -111q-15 -44 -45.5 -66.5t-68.5 -22.5h-21v39h20q26 0 47.5 18.5t31.5 52.5q18 56 28 84q-35 93 -98 264t-87 236h49l84 -233q13 -35 36.5 -105t36.5 -105h2q11 31 79 225.5t76 217.5h46zM213 563q-3 1 -8.5 3.5t-10 4.5t-8.5 4l79 153q7 -2 23 -9t25 -10z" />
    <glyph glyph-name="thorn" unicode="&#xfe;" horiz-adv-x="497" 
d="M58 696h44v-284h1q52 90 152 90q98 0 142 -70.5t44 -184.5q0 -50 -9.5 -92t-30 -79.5t-59.5 -59t-92 -21.5q-93 0 -147 87h-1v-281h-44v895zM102 250q0 -94 34 -154t111 -60q148 0 148 212q0 214 -148 214q-44 0 -75 -20.5t-45 -55t-19.5 -67t-5.5 -69.5z" />
    <glyph glyph-name="ydieresis" unicode="&#xff;" horiz-adv-x="419" 
d="M197 -111q-15 -44 -45.5 -66.5t-68.5 -22.5h-21v39h20q26 0 47.5 18.5t31.5 52.5q18 56 28 84q-35 93 -98 264t-87 236h49l84 -233q13 -35 36.5 -105t36.5 -105h2q11 31 79 225.5t76 217.5h46zM283 608v53h55v-53h-55zM94 608v53h54v-53h-54z" />
    <glyph glyph-name="Amacron" unicode="&#x100;" horiz-adv-x="585" 
d="M519 0l-60 170h-335l-60 -170h-50l253 696h49q170 -464 254 -696h-51zM293 639h-3q-92 -265 -152 -428h307l-90 254q-42 116 -62 174zM164 769v41h254v-41h-254z" />
    <glyph glyph-name="amacron" unicode="&#x101;" horiz-adv-x="474" 
d="M377 54h-1q-38 -60 -166 -60q-75 0 -124.5 36.5t-49.5 104.5q0 62 41.5 100.5t117.5 38.5h182v71q0 57 -33 86t-110 29q-86 0 -138 -48l-28 30q61 59 167 59q86 0 136 -34t50 -120v-347h-44v54zM377 237h-172q-60 0 -93.5 -25.5t-33.5 -74.5q0 -50 37 -77.5t101 -27.5
q27 0 52.5 4.5t51.5 15.5t41.5 33t15.5 53v99zM122 593v41h254v-41h-254z" />
    <glyph glyph-name="Abreve" unicode="&#x102;" horiz-adv-x="585" 
d="M519 0l-60 170h-335l-60 -170h-50l253 696h49q170 -464 254 -696h-51zM293 639h-3q-92 -265 -152 -428h307l-90 254q-42 116 -62 174zM292 766q36 0 60.5 21.5t28.5 51.5h38q-6 -44 -37.5 -77t-89.5 -33q-59 0 -91 33t-36 77h38q5 -30 30 -51.5t59 -21.5z" />
    <glyph glyph-name="abreve" unicode="&#x103;" horiz-adv-x="474" 
d="M377 54h-1q-38 -60 -166 -60q-75 0 -124.5 36.5t-49.5 104.5q0 62 41.5 100.5t117.5 38.5h182v71q0 57 -33 86t-110 29q-86 0 -138 -48l-28 30q61 59 167 59q86 0 136 -34t50 -120v-347h-44v54zM377 237h-172q-60 0 -93.5 -25.5t-33.5 -74.5q0 -50 37 -77.5t101 -27.5
q27 0 52.5 4.5t51.5 15.5t41.5 33t15.5 53v99zM253 601q73 0 89 73h38q-6 -45 -37.5 -78t-89.5 -33t-90.5 33.5t-36.5 77.5h39q5 -32 30.5 -52.5t57.5 -20.5z" />
    <glyph glyph-name="Aogonek" unicode="&#x104;" horiz-adv-x="585" 
d="M476 -92q0 49 42 92l-59 170h-335l-60 -170h-50l253 696h49q170 -464 254 -696h-16q-39 -46 -39 -85q0 -26 15 -39.5t40 -13.5t57 16l13 -29q-38 -22 -78 -22q-38 0 -62 23.5t-24 57.5zM293 639h-3q-92 -265 -152 -428h307l-90 254q-42 116 -62 174z" />
    <glyph glyph-name="aogonek" unicode="&#x105;" horiz-adv-x="474" 
d="M336 -92q0 47 41 92l-1 54q-38 -60 -166 -60q-75 0 -124.5 36.5t-49.5 104.5q0 62 41.5 100.5t117.5 38.5h182v71q0 58 -33 86.5t-110 28.5q-86 0 -138 -48l-28 30q61 59 167 59q86 0 136 -34t50 -120v-347q-46 -44 -46 -85q0 -26 15 -39.5t40 -13.5t57 16l13 -29
q-38 -22 -78 -22q-38 0 -62 23.5t-24 57.5zM377 237h-172q-60 0 -93.5 -25.5t-33.5 -74.5q0 -50 37 -77.5t101 -27.5q27 0 52.5 4.5t51.5 15.5t41.5 33t15.5 53v99z" />
    <glyph glyph-name="Cacute" unicode="&#x106;" horiz-adv-x="528" 
d="M469 153l42 -19q-27 -66 -84 -103.5t-134 -37.5q-118 0 -179 72t-61 181v207q0 106 62.5 177t177.5 71q75 0 131 -35t84 -95l-42 -21q-22 49 -67 78.5t-105 29.5q-94 0 -144.5 -59t-50.5 -148v-206q0 -89 50.5 -149t144.5 -60q122 0 175 117zM250 729l-19 22l135 108
l35 -37z" />
    <glyph glyph-name="cacute" unicode="&#x107;" horiz-adv-x="414" 
d="M395 49q-63 -56 -145 -56q-43 0 -81 14t-70 43t-50.5 79.5t-18.5 117.5t18.5 117.5t50.5 79.5t70 43t81 14q81 0 145 -54l-28 -33q-49 47 -111 47q-87 0 -134.5 -55.5t-47.5 -158.5t47.5 -159t134.5 -56q58 0 111 47zM235 563l-27 12l78 154l49 -19z" />
    <glyph glyph-name="Ccircumflex" unicode="&#x108;" horiz-adv-x="528" 
d="M469 153l42 -19q-27 -66 -84 -103.5t-134 -37.5q-118 0 -179 72t-61 181v207q0 106 62.5 177t177.5 71q75 0 131 -35t84 -95l-42 -21q-22 49 -67 78.5t-105 29.5q-94 0 -144.5 -59t-50.5 -148v-206q0 -89 50.5 -149t144.5 -60q122 0 175 117zM422 731l-129 83l-130 -84
l-18 21l131 109h37l127 -108z" />
    <glyph glyph-name="ccircumflex" unicode="&#x109;" horiz-adv-x="414" 
d="M395 49q-63 -56 -145 -56q-43 0 -81 14t-70 43t-50.5 79.5t-18.5 117.5t18.5 117.5t50.5 79.5t70 43t81 14q81 0 145 -54l-28 -33q-49 47 -111 47q-87 0 -134.5 -55.5t-47.5 -158.5t47.5 -159t134.5 -56q58 0 111 47zM362 557l-126 97l-127 -98l-21 21l132 124h37
l126 -123z" />
    <glyph glyph-name="Cdotaccent" unicode="&#x10a;" horiz-adv-x="528" 
d="M469 153l42 -19q-27 -66 -84 -103.5t-134 -37.5q-118 0 -179 72t-61 181v207q0 106 62.5 177t177.5 71q75 0 131 -35t84 -95l-42 -21q-22 49 -67 78.5t-105 29.5q-94 0 -144.5 -59t-50.5 -148v-206q0 -89 50.5 -149t144.5 -60q122 0 175 117zM316 765h-55v53h55v-53z" />
    <glyph glyph-name="cdotaccent" unicode="&#x10b;" horiz-adv-x="414" 
d="M395 49q-63 -56 -145 -56q-43 0 -81 14t-70 43t-50.5 79.5t-18.5 117.5t18.5 117.5t50.5 79.5t70 43t81 14q81 0 145 -54l-28 -33q-49 47 -111 47q-87 0 -134.5 -55.5t-47.5 -158.5t47.5 -159t134.5 -56q58 0 111 47zM272 608h-54v54h54v-54z" />
    <glyph glyph-name="Ccaron" unicode="&#x10c;" horiz-adv-x="528" 
d="M469 153l42 -19q-27 -66 -84 -103.5t-134 -37.5q-118 0 -179 72t-61 181v207q0 106 62.5 177t177.5 71q75 0 131 -35t84 -95l-42 -21q-22 49 -67 78.5t-105 29.5q-94 0 -144.5 -59t-50.5 -148v-206q0 -89 50.5 -149t144.5 -60q122 0 175 117zM289 778l129 83l18 -21
l-126 -109h-37l-131 110l17 21z" />
    <glyph glyph-name="ccaron" unicode="&#x10d;" horiz-adv-x="414" 
d="M395 49q-63 -56 -145 -56q-43 0 -81 14t-70 43t-50.5 79.5t-18.5 117.5t18.5 117.5t50.5 79.5t70 43t81 14q81 0 145 -54l-28 -33q-49 47 -111 47q-87 0 -134.5 -55.5t-47.5 -158.5t47.5 -159t134.5 -56q58 0 111 47zM241 605l126 96l21 -20l-126 -124h-37l-131 124
l21 21z" />
    <glyph glyph-name="Dcaron" unicode="&#x10e;" horiz-adv-x="606" 
d="M262 778l129 83l18 -21l-126 -109h-37l-132 110l18 21zM79 696h224q163 0 224 -126q25 -56 25 -209q0 -169 -24 -227q-32 -72 -91 -103t-148 -31h-210v696zM505 274v143q0 127 -54 181.5t-155 54.5h-170v-610h170q209 0 209 231z" />
    <glyph glyph-name="dcaron" unicode="&#x10f;" horiz-adv-x="567" 
d="M544 655l-42 -90h-28l28 92h-18v66h60v-68zM417 0h-43v86h-2q-31 -55 -68 -74t-84 -19q-98 0 -142 70.5t-44 184.5q0 50 9.5 92.5t30 79.5t59 58.5t92.5 21.5q56 0 88.5 -22.5t58.5 -64.5h2v310h43v-723zM374 245q0 95 -34.5 155t-111.5 60q-148 0 -148 -213t148 -213
q44 0 74.5 20t45 54t20.5 67t6 70z" />
    <glyph glyph-name="Dcroat" unicode="&#x110;" horiz-adv-x="606" 
d="M79 696h224q163 0 224 -126q25 -56 25 -209q0 -169 -24 -227q-32 -72 -91 -103t-148 -31h-210v353h-66v36h66v307zM505 274v143q0 127 -54 181.5t-155 54.5h-170v-264h150v-36h-150v-310h170q209 0 209 231z" />
    <glyph glyph-name="dcroat" unicode="&#x111;" horiz-adv-x="465" 
d="M246 580v32h128v111h43v-111h56v-32h-56v-580h-43v86h-2q-31 -55 -68 -74t-84 -19q-98 0 -142 70.5t-44 184.5q0 50 9.5 92.5t30 79.5t59 58.5t92.5 21.5q56 0 88.5 -22.5t58.5 -64.5h2v167h-128zM374 245q0 95 -34.5 155t-111.5 60q-148 0 -148 -213t148 -213
q44 0 74.5 20t45 54t20.5 67t6 70z" />
    <glyph glyph-name="Emacron" unicode="&#x112;" horiz-adv-x="528" 
d="M501 0h-422v696h422v-43h-375v-279h320v-42h-320v-289h375v-43zM420 769h-255v41h255v-41z" />
    <glyph glyph-name="emacron" unicode="&#x113;" horiz-adv-x="474" 
d="M438 241h-353q-2 -93 38.5 -151.5t131.5 -58.5q63 0 119 41l27 -30q-61 -49 -144 -49q-33 0 -61 6t-57 23t-49.5 44t-33.5 73t-13 106q0 72 17.5 124.5t48 79.5t63.5 39.5t70 12.5q94 0 145 -63t51 -163v-34zM392 277q-3 92 -42 138.5t-107 46.5q-71 0 -112 -48.5
t-45 -136.5h306zM375 593h-255v41h255v-41z" />
    <glyph glyph-name="Ebreve" unicode="&#x114;" horiz-adv-x="528" 
d="M501 0h-422v696h422v-43h-375v-279h320v-42h-320v-289h375v-43zM162 840h38q5 -30 30.5 -51.5t58.5 -21.5q36 0 60.5 21.5t28.5 51.5h38q-6 -44 -37.5 -77t-89.5 -33q-59 0 -91 33t-36 77z" />
    <glyph glyph-name="ebreve" unicode="&#x115;" horiz-adv-x="474" 
d="M438 241h-353q-2 -93 38.5 -151.5t131.5 -58.5q63 0 119 41l27 -30q-61 -49 -144 -49q-33 0 -61 6t-57 23t-49.5 44t-33.5 73t-13 106q0 72 17.5 124.5t48 79.5t63.5 39.5t70 12.5q94 0 145 -63t51 -163v-34zM392 277q-3 92 -42 138.5t-107 46.5q-71 0 -112 -48.5
t-45 -136.5h306zM114 674h39q6 -33 31 -53t58 -20q73 0 88 73h39q-6 -44 -37.5 -77t-89.5 -33q-59 0 -91.5 33.5t-36.5 76.5z" />
    <glyph glyph-name="Edotaccent" unicode="&#x116;" horiz-adv-x="528" 
d="M501 0h-422v696h422v-43h-375v-279h320v-42h-320v-289h375v-43zM312 765h-54v53h54v-53z" />
    <glyph glyph-name="edotaccent" unicode="&#x117;" horiz-adv-x="474" 
d="M438 241h-353q-2 -93 38.5 -151.5t131.5 -58.5q63 0 119 41l27 -30q-61 -49 -144 -49q-33 0 -61 6t-57 23t-49.5 44t-33.5 73t-13 106q0 72 17.5 124.5t48 79.5t63.5 39.5t70 12.5q94 0 145 -63t51 -163v-34zM392 277q-3 92 -42 138.5t-107 46.5q-71 0 -112 -48.5
t-45 -136.5h306zM271 608h-55v54h55v-54z" />
    <glyph glyph-name="Eogonek" unicode="&#x118;" horiz-adv-x="528" 
d="M423 -93q0 48 41 93h-385v696h422v-43h-375v-279h320v-42h-320v-289h375v-43q-39 -47 -39 -86q0 -52 55 -52q25 0 57 16l13 -30q-36 -21 -78 -21q-39 0 -62.5 23.5t-23.5 56.5z" />
    <glyph glyph-name="eogonek" unicode="&#x119;" horiz-adv-x="474" 
d="M306 -64q0 33 22 68q-36 -11 -71 -11q-33 0 -61 6t-57 23t-49.5 44t-33.5 73t-13 106q0 72 17.5 124.5t48 79.5t63.5 39.5t70 12.5q94 0 145 -63t51 -163v-34h-353q-2 -93 38.5 -151.5t131.5 -58.5q63 0 119 41l27 -30q-2 -2 -8 -6.5t-9 -6.5q-39 -47 -39 -86
q0 -52 55 -52q25 0 57 16l13 -30q-36 -21 -78 -21q-39 0 -62.5 23.5t-23.5 56.5zM392 277q-3 92 -42 138.5t-107 46.5q-71 0 -112 -48.5t-45 -136.5h306z" />
    <glyph glyph-name="Ecaron" unicode="&#x11a;" horiz-adv-x="528" 
d="M501 0h-422v696h422v-43h-375v-279h320v-42h-320v-289h375v-43zM284 778l129 83l18 -21l-126 -109h-37l-131 110l17 21z" />
    <glyph glyph-name="ecaron" unicode="&#x11b;" horiz-adv-x="474" 
d="M438 241h-353q-2 -93 38.5 -151.5t131.5 -58.5q63 0 119 41l27 -30q-61 -49 -144 -49q-33 0 -61 6t-57 23t-49.5 44t-33.5 73t-13 106q0 72 17.5 124.5t48 79.5t63.5 39.5t70 12.5q94 0 145 -63t51 -163v-34zM392 277q-3 92 -42 138.5t-107 46.5q-71 0 -112 -48.5
t-45 -136.5h306zM245 605l126 96l21 -20l-126 -124h-37l-131 124l21 21z" />
    <glyph glyph-name="Gcircumflex" unicode="&#x11c;" horiz-adv-x="585" 
d="M292 34q86 0 139.5 58.5t53.5 139.5v78h-157v42h204v-111q0 -107 -65.5 -177.5t-175.5 -70.5q-118 0 -179 72t-61 181v207q0 106 62.5 177t177.5 71q76 0 132 -35t83 -95q-3 -2 -21.5 -11t-20.5 -10q-22 49 -67 78.5t-105 29.5q-94 0 -144.5 -59t-50.5 -148v-208
q0 -89 50.5 -149t144.5 -60zM421 731l-129 83l-130 -84l-18 21l132 109h37l126 -108z" />
    <glyph glyph-name="gcircumflex" unicode="&#x11d;" horiz-adv-x="498" 
d="M432 3q0 -106 -59.5 -157.5t-151.5 -51.5q-75 0 -133 49l28 33q53 -42 109 -42q71 0 117 42t46 115l1 99h-2q-52 -95 -155 -95q-52 0 -89 21t-57 58t-29 79t-9 91q-1 72 15.5 127t59 92.5t109.5 37.5q107 0 155 -87h1v82h43zM93 247q0 -211 150 -211q75 0 110 60.5
t35 154.5q0 36 -6 69t-20.5 67t-45 54t-73.5 20q-150 0 -150 -214zM368 557l-126 97l-127 -98l-21 21l132 124h37l126 -123z" />
    <glyph glyph-name="Gbreve" unicode="&#x11e;" horiz-adv-x="585" 
d="M292 34q86 0 139.5 58.5t53.5 139.5v78h-157v42h204v-111q0 -107 -65.5 -177.5t-175.5 -70.5q-118 0 -179 72t-61 181v207q0 106 62.5 177t177.5 71q76 0 132 -35t83 -95q-3 -2 -21.5 -11t-20.5 -10q-22 49 -67 78.5t-105 29.5q-94 0 -144.5 -59t-50.5 -148v-208
q0 -89 50.5 -149t144.5 -60zM165 840h39q5 -30 30 -51.5t59 -21.5q36 0 60 21.5t28 51.5h39q-6 -44 -37.5 -77t-89.5 -33q-59 0 -91.5 33.5t-36.5 76.5z" />
    <glyph glyph-name="gbreve" unicode="&#x11f;" horiz-adv-x="498" 
d="M432 3q0 -106 -59.5 -157.5t-151.5 -51.5q-75 0 -133 49l28 33q53 -42 109 -42q71 0 117 42t46 115l1 99h-2q-52 -95 -155 -95q-52 0 -89 21t-57 58t-29 79t-9 91q-1 72 15.5 127t59 92.5t109.5 37.5q107 0 155 -87h1v82h43zM93 247q0 -211 150 -211q75 0 110 60.5
t35 154.5q0 36 -6 69t-20.5 67t-45 54t-73.5 20q-150 0 -150 -214zM126 674h39q6 -33 31 -53t58 -20q73 0 88 73h39q-7 -44 -38.5 -77t-88.5 -33q-59 0 -91.5 33.5t-36.5 76.5z" />
    <glyph glyph-name="Gdotaccent" unicode="&#x120;" horiz-adv-x="585" 
d="M292 34q86 0 139.5 58.5t53.5 139.5v78h-157v42h204v-111q0 -107 -65.5 -177.5t-175.5 -70.5q-118 0 -179 72t-61 181v207q0 106 62.5 177t177.5 71q76 0 132 -35t83 -95q-3 -2 -21.5 -11t-20.5 -10q-22 49 -67 78.5t-105 29.5q-94 0 -144.5 -59t-50.5 -148v-208
q0 -89 50.5 -149t144.5 -60zM318 765h-55v53h55v-53z" />
    <glyph glyph-name="gdotaccent" unicode="&#x121;" horiz-adv-x="498" 
d="M432 3q0 -106 -59.5 -157.5t-151.5 -51.5q-75 0 -133 49l28 33q53 -42 109 -42q71 0 117 42t46 115l1 99h-2q-52 -95 -155 -95q-52 0 -89 21t-57 58t-29 79t-9 91q-1 72 15.5 127t59 92.5t109.5 37.5q107 0 155 -87h1v82h43zM93 247q0 -211 150 -211q75 0 110 60.5
t35 154.5q0 36 -6 69t-20.5 67t-45 54t-73.5 20q-150 0 -150 -214zM283 608h-55v54h55v-54z" />
    <glyph glyph-name="Gcommaaccent" unicode="&#x122;" horiz-adv-x="585" 
d="M292 34q86 0 139.5 58.5t53.5 139.5v78h-157v42h204v-111q0 -107 -65.5 -177.5t-175.5 -70.5q-118 0 -179 72t-61 181v207q0 106 62.5 177t177.5 71q76 0 132 -35t83 -95q-3 -2 -21.5 -11t-20.5 -10q-22 49 -67 78.5t-105 29.5q-94 0 -144.5 -59t-50.5 -148v-208
q0 -89 50.5 -149t144.5 -60zM326 -146l-42 -90h-28l28 91h-18v66h60v-67z" />
    <glyph glyph-name="gcommaaccent" unicode="&#x123;" horiz-adv-x="498" 
d="M231 642l42 90h28l-28 -91h18v-67h-60v68zM432 3q0 -106 -59.5 -157.5t-151.5 -51.5q-75 0 -133 49l28 33q53 -42 109 -42q71 0 117 42t46 115l1 99h-2q-52 -95 -155 -95q-52 0 -89 21t-57 58t-29 79t-9 91q-1 72 15.5 127t59 92.5t109.5 37.5q107 0 155 -87h1v82h43z
M93 247q0 -211 150 -211q75 0 110 60.5t35 154.5q0 36 -6 69t-20.5 67t-45 54t-73.5 20q-150 0 -150 -214z" />
    <glyph glyph-name="Hcircumflex" unicode="&#x124;" horiz-adv-x="625" 
d="M546 0h-47v332h-374v-332h-46v696h46v-322h374v322h47v-696zM438 731l-129 83l-130 -84l-18 21l131 109h37l127 -108z" />
    <glyph glyph-name="hcircumflex" unicode="&#x125;" horiz-adv-x="523" 
d="M458 0h-43v317q0 67 -40.5 104.5t-105.5 37.5q-64 0 -105.5 -43t-41.5 -113v-303h-43v723h43v-310h2q47 87 155 87q78 0 128.5 -45t50.5 -123v-332zM229 731l-129 83l-129 -84l-18 21l131 109h37l126 -108z" />
    <glyph glyph-name="Hbar" unicode="&#x126;" horiz-adv-x="625" 
d="M546 0h-47v332h-374v-332h-46v542h-56v33h56v121h46v-121h374v121h47v-121h58v-33h-58v-542zM125 374h374v168h-374v-168z" />
    <glyph glyph-name="hbar" unicode="&#x127;" horiz-adv-x="508" 
d="M13 586v38h60v99h43v-99h236v-38h-236v-186h2q23 44 68 67t92 23q83 0 128.5 -44t45.5 -124v-322h-43v307q0 142 -139 142q-65 0 -109.5 -45t-44.5 -114v-290h-43v586h-60z" />
    <glyph glyph-name="Itilde" unicode="&#x128;" horiz-adv-x="212" 
d="M129 0h-46v696h46v-696zM176 758q-20 0 -64 20.5t-63 20.5q-32 0 -64 -38l-28 16q39 65 92 65q22 0 66 -21t60 -21q31 0 57 40l29 -17q-35 -65 -85 -65z" />
    <glyph glyph-name="itilde" unicode="&#x129;" horiz-adv-x="257" 
d="M160 0h-46v496h46v-496zM206 588q-20 0 -64 20.5t-63 20.5q-32 0 -64 -38l-28 16q39 65 92 65q22 0 66 -21t60 -21q31 0 57 40l29 -17q-35 -65 -85 -65z" />
    <glyph glyph-name="Imacron" unicode="&#x12a;" horiz-adv-x="212" 
d="M129 0h-46v696h46v-696zM234 769h-254v41h254v-41z" />
    <glyph glyph-name="imacron" unicode="&#x12b;" horiz-adv-x="215" 
d="M131 0h-46v496h46v-496zM232 593h-255v41h255v-41z" />
    <glyph glyph-name="Ibreve" unicode="&#x12c;" horiz-adv-x="271" 
d="M11 840h38q5 -30 30 -51.5t59 -21.5q35 0 59.5 21t29.5 52h38q-6 -44 -37.5 -77t-89.5 -33q-59 0 -91 33t-36 77zM160 0h-46v696h46v-696z" />
    <glyph glyph-name="ibreve" unicode="&#x12d;" horiz-adv-x="258" 
d="M147 0h-46v496h46v-496zM-3 680h38q6 -33 31 -53t58 -20q73 0 89 73h38q-6 -44 -37.5 -77t-89.5 -33q-59 0 -91 33t-36 77z" />
    <glyph glyph-name="Iogonek" unicode="&#x12e;" horiz-adv-x="212" 
d="M41 -92q0 47 41 92v696h47v-696h-5q-44 -51 -44 -85q0 -26 15 -39.5t40 -13.5t57 16l13 -29q-38 -22 -78 -22q-39 0 -62.5 23.5t-23.5 57.5z" />
    <glyph glyph-name="iogonek" unicode="&#x12f;" horiz-adv-x="199" 
d="M37 -92q0 48 40 92v496h44v-496q-46 -46 -46 -85q0 -26 15 -39.5t40 -13.5t57 16q5 -9 13 -29q-36 -21 -78 -21q-38 0 -61.5 23t-23.5 57zM74 648v48h49v-48h-49z" />
    <glyph glyph-name="Idotaccent" unicode="&#x130;" horiz-adv-x="212" 
d="M129 0h-46v696h46v-696zM132 765h-55v53h55v-53z" />
    <glyph glyph-name="dotlessi" unicode="&#x131;" horiz-adv-x="191" 
d="M119 0h-46v496h46v-496z" />
    <glyph glyph-name="IJ" unicode="&#x132;" horiz-adv-x="657" 
d="M130 0h-47v696h47v-696zM587 696v-499q0 -103 -59 -153t-149 -50q-81 0 -141 55l34 32q53 -43 103 -43q74 0 119.5 41t45.5 135v482h47z" />
    <glyph glyph-name="ij" unicode="&#x133;" horiz-adv-x="397" 
d="M75 648v48h49v-48h-49zM122 0h-44v496h44v-496zM266 648v48h50v-48h-50zM170 -205v39h17q39 0 60 24.5t21 68.5v568h45v-573q0 -57 -34 -92t-87 -35h-22z" />
    <glyph glyph-name="Jcircumflex" unicode="&#x134;" horiz-adv-x="448" 
d="M378 697v-499q0 -103 -58.5 -153t-148.5 -50q-81 0 -141 55l34 32q52 -43 103 -43q74 0 119.5 41t45.5 135v482h46zM484 733l-129 83l-130 -84l-18 21l132 109h37l126 -108z" />
    <glyph glyph-name="jcircumflex" unicode="&#x135;" horiz-adv-x="254" 
d="M6 -205v39h17q39 0 60 24.5t21 68.5v568h45v-573q0 -57 -34 -92t-87 -35h-22zM252 557l-125 96l-126 -97l-6.5 6.5l-8 8l-6.5 6.5l130 124h37q126 -123 127 -124z" />
    <glyph glyph-name="Kcommaaccent" unicode="&#x136;" horiz-adv-x="606" 
d="M528 0q-77 131 -233 393l-170 -209v-184h-47v696h47v-444h1q14 17 76 93.5t96 117.5l191 233h52l-216 -266q32 -53 119.5 -201t136.5 -229h-53zM287 -216h-28q15 52 28 92h-18v66h60v-68z" />
    <glyph glyph-name="kcommaaccent" unicode="&#x137;" horiz-adv-x="479" 
d="M423 0q-31 47 -92 141.5t-92 141.5q-84 -94 -125 -142v-141h-43v722h43v-522h1q39 43 83 93t97 109.5t83 93.5h52l-162 -183l204 -313h-49zM247 -236h-28q13 40 28 92h-18v66h60v-68z" />
    <glyph glyph-name="kgreenlandic" unicode="&#x138;" horiz-adv-x="479" 
d="M424 0l-185 283q-84 -94 -125 -142v-141h-43v496h43v-296h1q39 43 83 93t97 109.5t83 93.5h52l-162 -183l207 -313h-51z" />
    <glyph glyph-name="Lacute" unicode="&#x139;" horiz-adv-x="528" 
d="M501 0h-422v696h46v-653h376v-43zM100 729l-19 22l135 108l35 -37z" />
    <glyph glyph-name="lacute" unicode="&#x13a;" horiz-adv-x="218" 
d="M185 0q-56 0 -85 23.5t-29 78.5v620h44v-613q0 -71 77 -71h8v-38h-15zM92 745l-20 22l42.5 34l50 40l42.5 34l36 -37q-120 -74 -151 -93z" />
    <glyph glyph-name="Lcommaaccent" unicode="&#x13b;" horiz-adv-x="528" 
d="M501 0h-422v696h46v-653h376v-43zM323 -146l-42 -90h-28l28 91h-18v66h60v-67z" />
    <glyph glyph-name="lcommaaccent" unicode="&#x13c;" horiz-adv-x="218" 
d="M185 0q-56 0 -85 23.5t-29 78.5v620h44v-613q0 -71 77 -71h8v-38h-15zM116 -236h-29l29 92h-18v66h60v-68z" />
    <glyph glyph-name="Lcaron" unicode="&#x13d;" horiz-adv-x="528" 
d="M501 0h-422v696h46v-653h376v-43zM404 629l-42 -90h-28l28 91h-18v66h60v-67z" />
    <glyph glyph-name="lcaron" unicode="&#x13e;" horiz-adv-x="284" 
d="M228 564h-28q13 40 28 92h-18v66h60v-68q-5 -10 -13 -28.5t-15 -33.5t-14 -28zM185 0q-56 0 -85 23.5t-29 78.5v620h44v-613q0 -71 77 -71h8v-38h-15z" />
    <glyph glyph-name="Ldot" unicode="&#x13f;" horiz-adv-x="528" 
d="M501 0h-422v696h46v-653h376v-43zM345 347h-54v53h54v-53z" />
    <glyph glyph-name="ldot" unicode="&#x140;" horiz-adv-x="315" 
d="M218 355v53h54v-53h-54zM185 0q-56 0 -85 23.5t-29 78.5v620h44v-613q0 -71 77 -71h8v-38h-15z" />
    <glyph glyph-name="Lslash" unicode="&#x141;" horiz-adv-x="550" 
d="M523 0h-422v267l-85 -48l-19 33l104 59v385h46v-358l133 78l19 -33l-152 -88v-252h376v-43z" />
    <glyph glyph-name="lslash" unicode="&#x142;" horiz-adv-x="274" 
d="M220 0q-56 0 -85 23.5t-29 78.5v220l-87 -50l-19 33l106 61v356h44v-331l105 60l19 -32l-124 -72v-238q0 -71 77 -71h8v-38h-15z" />
    <glyph glyph-name="Nacute" unicode="&#x143;" horiz-adv-x="663" 
d="M537 0l-261 392q-89 134 -148 225l-1 -1v-616h-47v696h48l258 -388q100 -150 151 -231q1 0 1 1v618h46v-696h-47zM286 728l-19 23l42.5 34l50 40l42.5 34l36 -38z" />
    <glyph glyph-name="nacute" unicode="&#x144;" horiz-adv-x="502" 
d="M440 0h-44v317q0 67 -40.5 104.5t-104.5 37.5t-105.5 -43.5t-41.5 -112.5v-303h-43v496h43v-81h3q22 44 63.5 64.5t89.5 20.5q79 0 129.5 -45t50.5 -122v-333zM240 563l-28 12l79 154l48 -19z" />
    <glyph glyph-name="Ncommaaccent" unicode="&#x145;" horiz-adv-x="663" 
d="M537 0l-261 392q-89 134 -148 225l-1 -1v-616h-47v696h48l258 -388q100 -150 151 -231q1 0 1 1v618h46v-696h-47zM316 -202h-28q21 70 28 91h-18v66h60v-67q-7 -13 -14 -28t-15 -33.5t-13 -28.5z" />
    <glyph glyph-name="ncommaaccent" unicode="&#x146;" horiz-adv-x="502" 
d="M440 0h-44v317q0 67 -40.5 104.5t-104.5 37.5t-105.5 -43.5t-41.5 -112.5v-303h-43v496h43v-81h3q22 44 63.5 64.5t89.5 20.5q79 0 129.5 -45t50.5 -122v-333zM279 -146l-42 -90h-28l28 91h-18v66h60v-67z" />
    <glyph glyph-name="Ncaron" unicode="&#x147;" horiz-adv-x="663" 
d="M537 0l-261 392q-89 134 -148 225l-1 -1v-616h-47v696h48l258 -388q100 -150 151 -231q1 0 1 1v618h46v-696h-47zM331 777q14 9 40 26.5t47.5 31.5t41.5 26l18 -21l-127 -109h-36l-132 109l18 22q22 -14 65 -42.5t65 -42.5z" />
    <glyph glyph-name="ncaron" unicode="&#x148;" horiz-adv-x="502" 
d="M440 0h-44v317q0 67 -40.5 104.5t-104.5 37.5t-105.5 -43.5t-41.5 -112.5v-303h-43v496h43v-81h3q22 44 63.5 64.5t89.5 20.5q79 0 129.5 -45t50.5 -122v-333zM242 605l126 96l21 -20l-126 -124h-37l-132 124l21 21z" />
    <glyph glyph-name="napostrophe" unicode="&#x149;" horiz-adv-x="553" 
d="M491 0h-44v317q0 67 -40.5 104.5t-104.5 37.5t-105.5 -43.5t-41.5 -112.5v-303h-43v496h43v-81h3q22 44 63.5 64.5t89.5 20.5q79 0 129.5 -45t50.5 -122v-333zM76 581l-42 -90h-28l28 91h-18v66h60v-67z" />
    <glyph glyph-name="Eng" unicode="&#x14a;" horiz-adv-x="673" 
d="M489 -130q24 0 37.5 15t13.5 42v69q-22 34 -120 180.5t-151 225.5l-141 215l-1 -1v-616h-47v696h48q30 -45 265 -400q58 -86 144 -219q1 0 1 1v618h46v-764q0 -51 -25 -76t-64 -25t-76 21l14 34q34 -16 56 -16z" />
    <glyph glyph-name="eng" unicode="&#x14b;" horiz-adv-x="502" 
d="M440 -68q0 -51 -25 -76t-64 -25t-76 21l14 34q34 -16 56 -16q24 0 37.5 15t13.5 42v390q0 68 -37 105t-100 37q-65 0 -110 -44t-45 -112v-303h-43v496h43v-81h3q22 44 67 64.5t94 20.5q78 0 125 -44.5t47 -122.5v-401z" />
    <glyph glyph-name="Omacron" unicode="&#x14c;" horiz-adv-x="571" 
d="M286 701q110 0 174 -69t64 -179v-207q0 -116 -64 -184.5t-174 -68.5q-118 0 -179.5 72t-61.5 181v207q0 106 62.5 177t178.5 71zM287 657q-93 0 -143.5 -59t-50.5 -147v-207q0 -87 50.5 -147.5t143.5 -60.5q87 0 138 59t51 153v203q0 89 -51 147.5t-138 58.5zM420 769
h-255v41h255v-41z" />
    <glyph glyph-name="omacron" unicode="&#x14d;" horiz-adv-x="489" 
d="M378 593h-255v41h255v-41zM249 501q108 0 160 -80q35 -56 35 -177q0 -119 -49 -182q-53 -68 -154 -68q-92 0 -142 56q-55 63 -55 199q0 121 54 185q56 67 151 67zM247 462q-72 0 -116 -56q-43 -55 -43 -159q0 -107 43 -162q41 -52 113 -52q77 0 119 61q37 53 37 151
q0 101 -27 147q-41 70 -126 70z" />
    <glyph glyph-name="Obreve" unicode="&#x14e;" horiz-adv-x="571" 
d="M286 701q110 0 174 -69t64 -179v-207q0 -116 -64 -184.5t-174 -68.5q-118 0 -179.5 72t-61.5 181v207q0 106 62.5 177t178.5 71zM287 657q-93 0 -143.5 -59t-50.5 -147v-207q0 -87 50.5 -147.5t143.5 -60.5q87 0 138 59t51 153v203q0 89 -51 147.5t-138 58.5zM163 840h38
q5 -30 30.5 -51.5t58.5 -21.5q36 0 60.5 21.5t28.5 51.5h38q-6 -44 -37.5 -77t-89.5 -33q-59 0 -91 33t-36 77z" />
    <glyph glyph-name="obreve" unicode="&#x14f;" horiz-adv-x="489" 
d="M117 674h39q5 -32 30.5 -52.5t57.5 -20.5q73 0 89 73h38q-6 -44 -37.5 -77t-89.5 -33q-59 0 -91 33t-36 77zM249 501q108 0 160 -80q35 -56 35 -177q0 -119 -49 -182q-53 -68 -154 -68q-92 0 -142 56q-55 63 -55 199q0 121 54 185q56 67 151 67zM247 462q-72 0 -116 -56
q-43 -55 -43 -159q0 -107 43 -162q41 -52 113 -52q77 0 119 61q37 53 37 151q0 101 -27 147q-41 70 -126 70z" />
    <glyph glyph-name="Ohungarumlaut" unicode="&#x150;" horiz-adv-x="571" 
d="M286 701q110 0 174 -69t64 -179v-207q0 -116 -64 -184.5t-174 -68.5q-118 0 -179.5 72t-61.5 181v207q0 106 62.5 177t178.5 71zM287 657q-93 0 -143.5 -59t-50.5 -147v-207q0 -87 50.5 -147.5t143.5 -60.5q87 0 138 59t51 153v203q0 89 -51 147.5t-138 58.5zM332 729
l-20 22l135 108l36 -37zM214 729l-20 22l136 108l35 -37z" />
    <glyph glyph-name="ohungarumlaut" unicode="&#x151;" horiz-adv-x="489" 
d="M205 563l-28 12l79 154l48 -19zM306 563l-28 12l79 154l48 -19zM249 501q108 0 160 -80q35 -56 35 -177q0 -119 -49 -182q-53 -68 -154 -68q-92 0 -142 56q-55 63 -55 199q0 121 54 185q56 67 151 67zM247 462q-72 0 -116 -56q-43 -55 -43 -159q0 -107 43 -162
q41 -52 113 -52q77 0 119 61q37 53 37 151q0 101 -27 147q-41 70 -126 70z" />
    <glyph glyph-name="OE" unicode="&#x152;" horiz-adv-x="790" 
d="M763 0h-417q-35 -7 -63 -7q-118 0 -179 72t-61 181v207q0 106 62.5 177t177.5 71q37 0 61 -5h419v-43h-375v-279h321v-42h-321v-289h375v-43zM284 36q30 0 57 8v607q-26 6 -57 6q-93 0 -143.5 -59t-50.5 -147v-207q0 -87 50.5 -147.5t143.5 -60.5z" />
    <glyph glyph-name="oe" unicode="&#x153;" horiz-adv-x="829" 
d="M442 241q0 -66 16 -109q39 -99 152 -99q69 0 121 40l27 -32q-60 -47 -144 -47q-150 0 -193 126q-14 -46 -42 -74q-51 -52 -140 -52q-83 0 -133 45q-65 67 -65 210q0 147 72 206q55 45 130 45q109 0 161 -80q13 -20 18 -46q24 67 72 97t105 30q95 0 145.5 -63t50.5 -163
v-34h-353zM242 461q-67 0 -109 -45q-48 -56 -48 -169q0 -84 20 -128q39 -87 136 -87q68 0 109 43q25 27 35 61q12 37 12 109q0 103 -28 147q-41 69 -127 69zM600 461q-71 0 -112 -48t-45 -136h306q-3 91 -42 137.5t-107 46.5z" />
    <glyph glyph-name="Racute" unicode="&#x154;" horiz-adv-x="585" 
d="M549 0h-56l-165 323h-201v-323h-47v696h269q88 0 143.5 -48.5t55.5 -131.5q0 -75 -46 -126t-123 -64zM498 516q0 70 -46 104.5t-115 34.5h-210v-290h207q72 0 118 39.5t46 111.5zM237 729l-20 22l136 108l35 -37z" />
    <glyph glyph-name="racute" unicode="&#x155;" horiz-adv-x="340" 
d="M344 489l-18 -44q-30 15 -65 15q-65 0 -106 -43t-41 -113v-304h-43v496h43v-85h3q45 90 153 90q47 0 74 -12zM170 563l-27 12l78 154l49 -19z" />
    <glyph glyph-name="Rcommaaccent" unicode="&#x156;" horiz-adv-x="585" 
d="M549 0h-56l-165 323h-201v-323h-47v696h269q88 0 143.5 -48.5t55.5 -131.5q0 -75 -46 -126t-123 -64zM498 516q0 70 -46 104.5t-115 34.5h-210v-290h207q72 0 118 39.5t46 111.5zM326 -126l-42 -90h-28l28 91h-18v66h60v-67z" />
    <glyph glyph-name="rcommaaccent" unicode="&#x157;" horiz-adv-x="340" 
d="M344 489l-18 -44q-30 15 -65 15q-65 0 -106 -43t-41 -113v-304h-43v496h43v-85h3q45 90 153 90q47 0 74 -12zM129 -146l-42 -90h-28l28 91h-18v66h60v-67z" />
    <glyph glyph-name="Rcaron" unicode="&#x158;" horiz-adv-x="585" 
d="M549 0h-56l-165 323h-201v-323h-47v696h269q88 0 143.5 -48.5t55.5 -131.5q0 -75 -46 -126t-123 -64zM498 516q0 70 -46 104.5t-115 34.5h-210v-290h207q72 0 118 39.5t46 111.5zM273 778l129 83l18 -21l-126 -109h-37l-131 110l17 21z" />
    <glyph glyph-name="rcaron" unicode="&#x159;" horiz-adv-x="340" 
d="M344 489l-18 -44q-30 15 -65 15q-65 0 -106 -43t-41 -113v-304h-43v496h43v-85h3q45 90 153 90q47 0 74 -12zM180 605l125 96l21 -20l-126 -124h-37l-131 124l21 21z" />
    <glyph glyph-name="Sacute" unicode="&#x15a;" horiz-adv-x="530" 
d="M503 183q0 -87 -65 -138t-176 -51q-138 0 -241 75l28 38q96 -69 216 -69q84 0 137 37.5t53 108.5q0 32 -12 57t-28.5 40t-44.5 27t-49 17.5t-53 11.5q-38 7 -62 13t-55.5 19t-49 30.5t-30.5 47t-13 67.5q0 86 59.5 137t158.5 51q116 0 199 -53l-25 -40q-87 49 -176 49
q-72 0 -120.5 -36.5t-48.5 -107.5q0 -28 10.5 -50t24.5 -34.5t41.5 -23t46 -15t53.5 -11.5q7 -1 10 -2q39 -8 63.5 -15t56 -21.5t49.5 -34t30.5 -51t12.5 -73.5zM217 729l-20 22l136 108l35 -37z" />
    <glyph glyph-name="sacute" unicode="&#x15b;" horiz-adv-x="446" 
d="M408 134q0 -62 -50 -101.5t-141 -39.5q-117 0 -195 61l26 34q71 -56 176 -56q55 0 97.5 25t42.5 79q0 81 -138 99q-33 5 -53 9t-46 13t-40.5 21t-25 33t-10.5 48q0 65 49 103.5t129 38.5q97 0 163 -45l-24 -35q-65 40 -136 40q-60 0 -98 -25.5t-39 -72.5q0 -24 10.5 -40
t33.5 -25.5t43 -14t56 -9.5q35 -5 61 -13t53 -23t41.5 -41.5t14.5 -62.5zM222 563l-27 12l78 154l49 -19z" />
    <glyph glyph-name="Scircumflex" unicode="&#x15c;" horiz-adv-x="530" 
d="M503 183q0 -87 -65 -138t-176 -51q-138 0 -241 75l28 38q96 -69 216 -69q84 0 137 37.5t53 108.5q0 32 -12 57t-28.5 40t-44.5 27t-49 17.5t-53 11.5q-38 7 -62 13t-55.5 19t-49 30.5t-30.5 47t-13 67.5q0 86 59.5 137t158.5 51q116 0 199 -53l-25 -40q-87 49 -176 49
q-72 0 -120.5 -36.5t-48.5 -107.5q0 -28 10.5 -50t24.5 -34.5t41.5 -23t46 -15t53.5 -11.5q7 -1 10 -2q39 -8 63.5 -15t56 -21.5t49.5 -34t30.5 -51t12.5 -73.5zM405 731l-129 83l-130 -84l-18 21l131 109h37l127 -108z" />
    <glyph glyph-name="scircumflex" unicode="&#x15d;" horiz-adv-x="446" 
d="M408 134q0 -62 -50 -101.5t-141 -39.5q-117 0 -195 61l26 34q71 -56 176 -56q55 0 97.5 25t42.5 79q0 81 -138 99q-33 5 -53 9t-46 13t-40.5 21t-25 33t-10.5 48q0 65 49 103.5t129 38.5q97 0 163 -45l-24 -35q-65 40 -136 40q-60 0 -98 -25.5t-39 -72.5q0 -24 10.5 -40
t33.5 -25.5t43 -14t56 -9.5q35 -5 61 -13t53 -23t41.5 -41.5t14.5 -62.5zM348 557l-126 97l-127 -98l-21 21l132 124h37l126 -123z" />
    <glyph glyph-name="Scedilla" unicode="&#x15e;" horiz-adv-x="530" 
d="M503 183q0 -84 -61 -134.5t-166 -54.5q-2 -5 -6.5 -17.5t-6.5 -19.5q52 -4 73 -26.5t21 -50.5q0 -26 -23 -49t-68 -23q-43 0 -80 13l10 25q33 -12 68 -12q19 0 38 12t19 35t-22.5 36.5t-56.5 13.5h-4l-10 8l18 55q-128 5 -225 75l28 38q96 -69 216 -69q84 0 137 37.5
t53 108.5q0 32 -12 57t-28.5 40t-44.5 27t-49 17.5t-53 11.5q-38 7 -62 13t-55.5 19t-49 30.5t-30.5 47t-13 67.5q0 86 59.5 137t158.5 51q116 0 199 -53l-25 -40q-87 49 -176 49q-72 0 -120.5 -36.5t-48.5 -107.5q0 -28 10.5 -50t24.5 -34.5t41.5 -23t46 -15t53.5 -11.5
q7 -1 10 -2q39 -8 63.5 -15t56 -21.5t49.5 -34t30.5 -51t12.5 -73.5z" />
    <glyph glyph-name="scedilla" unicode="&#x15f;" horiz-adv-x="446" 
d="M408 134q0 -60 -47 -99t-132 -42l-12 -36q52 -4 73 -26.5t21 -50.5q0 -26 -23 -49t-68 -23q-43 0 -80 13l10 25q33 -12 68 -12q19 0 38 12t19 35t-22.5 36.5t-56.5 13.5h-4l-10 8l18 55q-109 5 -178 60l26 34q71 -56 176 -56q55 0 97.5 25t42.5 79q0 81 -138 99
q-33 5 -53 9t-46 13t-40.5 21t-25 33t-10.5 48q0 65 49 103.5t129 38.5q97 0 163 -45l-24 -35q-65 40 -136 40q-60 0 -98 -25.5t-39 -72.5q0 -24 10.5 -40t33.5 -25.5t43 -14t56 -9.5q35 -5 61 -13t53 -23t41.5 -41.5t14.5 -62.5z" />
    <glyph glyph-name="Scaron" unicode="&#x160;" horiz-adv-x="546" 
d="M509 181q0 -85 -64.5 -136t-173.5 -51q-137 0 -239 72l28 37q100 -65 213 -65q80 0 133.5 38t53.5 105q0 32 -12.5 57t-29 39.5t-44.5 25.5t-47.5 15.5t-49.5 9.5q-54 8 -90 19t-69.5 31t-50 54t-16.5 82q0 83 58.5 135.5t159.5 52.5q112 0 202 -53l-27 -41
q-93 50 -180 50q-67 0 -116 -38t-49 -108q0 -30 12.5 -53.5t29.5 -37t45 -24t47.5 -15t48.5 -9.5q52 -10 86.5 -21t70 -31.5t53 -55.5t17.5 -84zM271 778l129 83l18 -21l-126 -109h-37l-131 110l17 21z" />
    <glyph glyph-name="scaron" unicode="&#x161;" horiz-adv-x="460" 
d="M420 133q0 -62 -52 -101t-146 -39q-108 0 -191 62l26 34q74 -57 174 -57q56 0 99.5 25t43.5 79q0 29 -12.5 48t-36.5 28.5t-43 13.5t-49 6q-37 3 -65 9t-58.5 19.5t-47 39t-16.5 62.5q0 65 49 102t129 37q96 0 165 -43l-24 -37q-67 40 -141 40q-58 0 -95.5 -26.5
t-37.5 -73.5q0 -18 6 -32t21.5 -23t25 -14.5t34.5 -9.5t31.5 -4.5t32.5 -3.5q38 -4 64.5 -10t55 -20t43.5 -42t15 -69zM215 605l126 96l21 -20l-126 -124h-37l-132 124l21 21z" />
    <glyph glyph-name="Tcommaaccent" unicode="&#x162;" horiz-adv-x="478" 
d="M471 655h-207v-655h-46v655h-210v41h463v-41zM271 -146l-42 -90h-28l28 91h-18v66h60v-67z" />
    <glyph glyph-name="tcommaaccent" unicode="&#x163;" horiz-adv-x="264" 
d="M124 -236h-28q15 52 28 92h-18v66h60v-68zM241 0h-47q-102 0 -102 116v343h-68v37h68v131h45v-131h92v-37h-92v-339q0 -39 15 -60t58 -21h31v-39z" />
    <glyph glyph-name="Tcaron" unicode="&#x164;" horiz-adv-x="478" 
d="M471 655h-207v-655h-46v655h-210v41h463v-41zM238 778l129 83l18 -21l-126 -109h-37l-131 110l17 21z" />
    <glyph glyph-name="tcaron" unicode="&#x165;" horiz-adv-x="303" 
d="M241 0h-47q-102 0 -102 116v343h-68v37h68v131h45v-131h92v-37h-92v-339q0 -39 15 -60t58 -21h31v-39zM235 572h-29l29 92h-19v66h61v-68z" />
    <glyph glyph-name="Tbar" unicode="&#x166;" horiz-adv-x="478" 
d="M471 655h-207v-265h154v-37h-154v-353h-46v353h-156v37h156v265h-210v41h463v-41z" />
    <glyph glyph-name="tbar" unicode="&#x167;" horiz-adv-x="264" 
d="M21 263v35h71v161h-68v37h68v131h45v-131h92v-37h-92v-161h88v-35h-88v-143q0 -81 73 -81h31v-39h-45q-52 0 -78 28t-26 74v161h-71z" />
    <glyph glyph-name="Utilde" unicode="&#x168;" horiz-adv-x="606" 
d="M494 696h48v-464q0 -107 -67 -172.5t-172 -65.5q-107 0 -172.5 68.5t-65.5 176.5v457h46v-446q0 -91 52.5 -151.5t139.5 -60.5q85 0 138 54.5t53 149.5v454zM374 758q-20 0 -64 20.5t-63 20.5q-32 0 -64 -38l-28 16q39 65 92 65q22 0 66 -21t60 -21q31 0 57 40l29 -17
q-35 -65 -85 -65z" />
    <glyph glyph-name="utilde" unicode="&#x169;" horiz-adv-x="517" 
d="M445 0h-43v80h-2q-23 -44 -67 -64.5t-92 -20.5q-78 0 -127 45t-49 122v334h44v-317q0 -69 38 -106.5t103 -37.5t109 44.5t44 113.5v303h42v-496zM331 588q-20 0 -64 20.5t-63 20.5q-32 0 -64 -38l-28 16q39 65 92 65q22 0 66 -21t60 -21q31 0 57 40l29 -17
q-35 -65 -85 -65z" />
    <glyph glyph-name="Umacron" unicode="&#x16a;" horiz-adv-x="606" 
d="M494 696h48v-464q0 -107 -67 -172.5t-172 -65.5q-107 0 -172.5 68.5t-65.5 176.5v457h46v-446q0 -91 52.5 -151.5t139.5 -60.5q85 0 138 54.5t53 149.5v454zM420 769h-255v41h255v-41z" />
    <glyph glyph-name="umacron" unicode="&#x16b;" horiz-adv-x="517" 
d="M445 0h-43v80h-2q-45 -85 -154 -85q-78 0 -129.5 45.5t-51.5 121.5v334h44v-317q0 -68 40.5 -106t105.5 -38q64 0 106 44t42 114v303h42v-496zM384 593h-255v41h255v-41z" />
    <glyph glyph-name="Ubreve" unicode="&#x16c;" horiz-adv-x="606" 
d="M494 696h48v-464q0 -107 -67 -172.5t-172 -65.5q-107 0 -172.5 68.5t-65.5 176.5v457h46v-446q0 -91 52.5 -151.5t139.5 -60.5q85 0 138 54.5t53 149.5v454zM171 824h39q5 -32 30.5 -52.5t57.5 -20.5q73 0 89 73h38q-6 -44 -37.5 -77t-89.5 -33q-59 0 -91 33t-36 77z" />
    <glyph glyph-name="ubreve" unicode="&#x16d;" horiz-adv-x="517" 
d="M445 0h-43v80h-2q-45 -85 -154 -85q-78 0 -129.5 45.5t-51.5 121.5v334h44v-317q0 -68 40.5 -106t105.5 -38q64 0 106 44t42 114v303h42v-496zM129 674h39q5 -32 30.5 -52.5t57.5 -20.5q73 0 89 73h38q-6 -44 -37.5 -77t-89.5 -33q-59 0 -91 33t-36 77z" />
    <glyph glyph-name="Uring" unicode="&#x16e;" horiz-adv-x="606" 
d="M494 696h48v-464q0 -107 -67 -172.5t-172 -65.5q-107 0 -172.5 68.5t-65.5 176.5v457h46v-446q0 -91 52.5 -151.5t139.5 -60.5q85 0 138 54.5t53 149.5v454zM304 715q-37 0 -64 26.5t-27 63.5t26.5 63.5t64.5 26.5t64 -26.5t26 -63.5t-26.5 -63.5t-63.5 -26.5zM304 868
q-26 0 -44.5 -18.5t-18.5 -44.5t18.5 -44.5t44.5 -18.5t44.5 18.5t18.5 44.5t-18.5 44.5t-44.5 18.5z" />
    <glyph glyph-name="uring" unicode="&#x16f;" horiz-adv-x="517" 
d="M445 0h-43v80h-2q-45 -85 -154 -85q-78 0 -129.5 45.5t-51.5 121.5v334h44v-317q0 -68 40.5 -106t105.5 -38q64 0 106 44t42 114v303h42v-496zM252 553q-37 0 -64 26.5t-27 63.5t26.5 63.5t64.5 26.5t64 -26.5t26 -63.5t-26.5 -63.5t-63.5 -26.5zM252 706
q-26 0 -44.5 -18.5t-18.5 -44.5t18.5 -44.5t44.5 -18.5t44.5 18.5t18.5 44.5t-18.5 44.5t-44.5 18.5z" />
    <glyph glyph-name="Uhungarumlaut" unicode="&#x170;" horiz-adv-x="606" 
d="M494 696h48v-464q0 -107 -67 -172.5t-172 -65.5q-107 0 -172.5 68.5t-65.5 176.5v457h46v-446q0 -91 52.5 -151.5t139.5 -60.5q85 0 138 54.5t53 149.5v454zM339 729l-20 22l136 108l35 -37zM221 729l-19 22l135 108l36 -37z" />
    <glyph glyph-name="uhungarumlaut" unicode="&#x171;" horiz-adv-x="517" 
d="M445 0h-43v80h-2q-45 -85 -154 -85q-78 0 -129.5 45.5t-51.5 121.5v334h44v-317q0 -68 40.5 -106t105.5 -38q64 0 106 44t42 114v303h42v-496zM205 563l-28 12l79 154l48 -19zM306 563l-28 12l79 154l48 -19z" />
    <glyph glyph-name="Uogonek" unicode="&#x172;" horiz-adv-x="606" 
d="M255 -91q0 44 34 85q-101 5 -162.5 72.5t-61.5 172.5v457h46v-446q0 -91 52.5 -151.5t139.5 -60.5q85 0 138 54.5t53 149.5v454h48v-464q0 -101 -59.5 -165t-155.5 -71q-33 -44 -33 -80q0 -52 55 -52q25 0 57 16l13 -30q-36 -21 -78 -21q-39 0 -62.5 23.5t-23.5 56.5z
" />
    <glyph glyph-name="uogonek" unicode="&#x173;" horiz-adv-x="517" 
d="M360 -92q0 49 41 93v79h-2q-45 -85 -153 -85q-78 0 -129.5 45t-51.5 122v334h44v-318q0 -68 40 -105.5t106 -37.5q64 0 105.5 43.5t41.5 113.5v304h42v-496q-45 -42 -45 -85q0 -52 55 -52q25 0 57 16l13 -29q-35 -22 -78 -22q-39 0 -62.5 23.5t-23.5 56.5z" />
    <glyph glyph-name="Wcircumflex" unicode="&#x174;" horiz-adv-x="809" 
d="M790 696l-171 -696h-43l-105 376q-9 33 -32 113.5t-35 124.5h-1l-169 -614h-44q-114 464 -170 696h48q15 -66 45 -192.5t44 -185.5l56 -239h2q39 149 65 239l105 378h40q17 -59 52 -186t54 -194l66 -237h1l54 236l89 381h49zM534 730q-102 67 -129 83l-129 -84l-18 21
l131 110h37l126 -109z" />
    <glyph glyph-name="wcircumflex" unicode="&#x175;" horiz-adv-x="703" 
d="M694 494l-155 -494h-44q-16 47 -45.5 135t-42.5 126l-57 166q-8 -24 -27 -80.5t-29 -85.5q-58 -174 -88 -261h-44l-154 494h48l80 -271l48 -160h2l53 159q6 18 39.5 118t50.5 154h44q50 -151 89 -271l53 -162h3l48 163l80 270h48zM476 557l-126 96q-42 -33 -126 -97
l-6.5 6.5l-8 8l-6.5 6.5l131 124h37l126 -124z" />
    <glyph glyph-name="Ycircumflex" unicode="&#x176;" horiz-adv-x="475" 
d="M259 288v-288h-44v288l-209 408h49q63 -121 182 -365q33 65 73 148q74 144 109 217h48q-70 -136 -208 -408zM366 730q-19 12 -62 40t-67 43l-130 -84l-18 21l131 110h37l127 -109z" />
    <glyph glyph-name="ycircumflex" unicode="&#x177;" horiz-adv-x="419" 
d="M197 -111q-15 -44 -45.5 -66.5t-68.5 -22.5h-21v39h20q26 0 47.5 18.5t31.5 52.5q18 56 28 84q-35 93 -98 264t-87 236h49l84 -233q13 -35 36.5 -105t36.5 -105h2q11 31 79 225.5t76 217.5h46zM341 557l-126 96q-42 -33 -126 -97l-6.5 6.5l-8 8l-6.5 6.5l131 124h37
l126 -124z" />
    <glyph glyph-name="Ydieresis" unicode="&#x178;" horiz-adv-x="475" 
d="M259 288v-288h-44v288l-209 408h49q63 -121 182 -365q33 65 73 148q74 144 109 217h48q-70 -136 -208 -408zM308 758v53h55v-53h-55zM130 758v53h54v-53h-54z" />
    <glyph glyph-name="Zacute" unicode="&#x179;" horiz-adv-x="488" 
d="M455 0h-422v42l370 613h-354v41h406v-40l-370 -613h370v-43zM222 729l-20 22l135 108l36 -37z" />
    <glyph glyph-name="zacute" unicode="&#x17a;" horiz-adv-x="421" 
d="M385 0h-350v36l300 421h-285v38h335v-37l-298 -419h298v-39zM227 563l-28 12l79 154l48 -19z" />
    <glyph glyph-name="Zdotaccent" unicode="&#x17b;" horiz-adv-x="488" 
d="M455 0h-422v42l370 613h-354v41h406v-40l-370 -613h370v-43zM286 765h-55v53h55v-53z" />
    <glyph glyph-name="zdotaccent" unicode="&#x17c;" horiz-adv-x="421" 
d="M385 0h-350v36l300 421h-285v38h335v-37l-298 -419h298v-39zM248 608h-55v54h55v-54z" />
    <glyph glyph-name="Zcaron" unicode="&#x17d;" horiz-adv-x="488" 
d="M455 0h-422v42l370 613h-354v41h406v-40l-370 -613h370v-43zM257 778l129 83l18 -21l-126 -109h-37l-131 110l17 21z" />
    <glyph glyph-name="zcaron" unicode="&#x17e;" horiz-adv-x="421" 
d="M385 0h-350v36l300 421h-285v38h335v-37l-298 -419h298v-39zM212 605l126 96l21 -20l-126 -124h-37l-132 124l21 21z" />
    <glyph glyph-name="florin" unicode="&#x192;" horiz-adv-x="467" 
d="M125 369v38h97q20 140 35 184q34 98 120 109q11 1 24 1q38 0 73 -11l-12 -41q-30 10 -62 10q-18 0 -32.5 -3.5t-26.5 -13.5t-20 -19t-15.5 -30t-12 -34.5t-9.5 -44.5t-8 -49t-8 -58h111v-38h-116l-34 -243q-15 -111 -50 -165t-114 -54q-37 0 -76 12q8 23 12 39
q33 -11 61 -11q48 0 76.5 35t39.5 113l39 274h-92z" />
    <glyph glyph-name="Ohorn" unicode="&#x1a0;" horiz-adv-x="574" 
d="M286 701q96 0 160 -56q74 2 74 99v26h42v-28q0 -112 -85 -132q47 -66 47 -157v-207q0 -116 -64 -184.5t-174 -68.5q-118 0 -179.5 72t-61.5 181v207q0 106 62.5 177t178.5 71zM287 657q-93 0 -143.5 -59t-50.5 -147v-207q0 -87 50.5 -147.5t143.5 -60.5q87 0 138 59
t51 153v203q0 89 -51 147.5t-138 58.5z" />
    <glyph glyph-name="ohorn" unicode="&#x1a1;" horiz-adv-x="511" 
d="M248 501q91 0 144 -59h2q77 0 77 99v26h42v-28q0 -119 -96 -134q27 -52 27 -154q0 -130 -48 -190q-51 -67 -155 -67q-92 0 -142 56q-55 63 -55 199q0 122 55 184q53 68 149 68zM247 462q-75 0 -116 -56q-43 -51 -43 -159q0 -109 43 -162q39 -52 113 -52q81 0 119 61
q37 47 37 157q0 97 -27 141q-41 70 -126 70z" />
    <glyph glyph-name="Uhorn" unicode="&#x1af;" horiz-adv-x="638" 
d="M494 696h48v-51q77 0 77 99v26h41v-28q0 -133 -118 -136v-374q0 -107 -67 -172.5t-172 -65.5q-107 0 -172.5 68.5t-65.5 176.5v457h46v-446q0 -91 52.5 -151.5t139.5 -60.5q85 0 138 54.5t53 149.5v454z" />
    <glyph glyph-name="uhorn" unicode="&#x1b0;" horiz-adv-x="549" 
d="M445 0h-43v80h-2q-45 -85 -154 -85q-79 0 -130 44.5t-51 123.5v333h44v-317q0 -70 40 -107t106 -37q64 0 106 44t42 114v303h42v-54q75 2 75 99v26h42v-28q0 -132 -117 -136v-403z" />
    <glyph glyph-name="AEacute" unicode="&#x1fc;" horiz-adv-x="919" 
d="M886 0h-422v185h-292l-117 -185h-51l439 696h443v-43h-374v-279h320v-42h-320v-289h374v-43zM464 651l-265 -425h265v425zM606 729l-20 22l136 108l35 -37z" />
    <glyph glyph-name="aeacute" unicode="&#x1fd;" horiz-adv-x="799" 
d="M420 238q0 -207 170 -207q65 0 119 42l27 -32q-60 -47 -144 -47q-138 0 -186 106q-19 -45 -67.5 -75.5t-128.5 -30.5q-76 0 -125 34.5t-49 102.5q0 63 41.5 103t117.5 40h182v75q0 111 -131 111q-93 0 -147 -45l-27 31q64 55 170 55q144 0 170 -100q50 100 165 100
q96 0 146 -63.5t50 -162.5v-37h-353zM377 238h-170q-57 0 -92.5 -26t-35.5 -75q0 -50 36.5 -77.5t100.5 -27.5q70 0 115.5 33.5t45.5 96.5v76zM578 461q-70 0 -111 -49t-45 -138h306q-4 92 -43 139.5t-107 47.5zM433 563q-20 8 -28 12l79 153l48 -19z" />
    <glyph glyph-name="Oslashacute" unicode="&#x1fe;" horiz-adv-x="571" 
d="M286 701q102 0 167 -63l41 62l27 -18l-45 -70q48 -66 48 -159v-207q0 -116 -64 -184.5t-174 -68.5q-112 0 -175 68l-43 -64l-27 18l48 72q-44 65 -44 159v207q0 106 62.5 177t178.5 71zM476 451q0 66 -30 117l-308 -465q54 -67 149 -67q87 0 138 59t51 153v203zM287 657
q-93 0 -143.5 -59t-50.5 -147v-207q0 -63 27 -111l306 464q-55 60 -139 60zM259 729l-19 22l135 108l36 -37z" />
    <glyph glyph-name="oslashacute" unicode="&#x1ff;" horiz-adv-x="489" 
d="M246 501q81 0 133 -49l41 56l24 -18l-45 -60q42 -56 42 -137v-88q0 -96 -52.5 -153.5t-146.5 -57.5q-83 0 -133 47l-38 -51l-24 18l41 55q-40 54 -40 142v88q0 87 52 147.5t146 60.5zM397 298q0 53 -26 94l-235 -314q42 -45 109 -45q68 0 110 46.5t42 117.5v101zM245 461
q-72 0 -112.5 -49t-40.5 -116v-97q0 -55 25 -96l235 313q-42 45 -107 45zM248 563l-28 12l79 154l48 -19z" />
    <glyph glyph-name="Scommaaccent" unicode="&#x218;" horiz-adv-x="530" 
d="M503 183q0 -87 -65 -138t-176 -51q-138 0 -241 75l28 38q96 -69 216 -69q84 0 137 37.5t53 108.5q0 32 -12 57t-28.5 40t-44.5 27t-49 17.5t-53 11.5q-38 7 -62 13t-55.5 19t-49 30.5t-30.5 47t-13 67.5q0 86 59.5 137t158.5 51q116 0 199 -53l-25 -40q-87 49 -176 49
q-72 0 -120.5 -36.5t-48.5 -107.5q0 -28 10.5 -50t24.5 -34.5t41.5 -23t46 -15t53.5 -11.5q7 -1 10 -2q39 -8 63.5 -15t56 -21.5t49.5 -34t30.5 -51t12.5 -73.5zM303 -146l-42 -90h-28l28 91h-18v66h60v-67z" />
    <glyph glyph-name="scommaaccent" unicode="&#x219;" horiz-adv-x="446" 
d="M408 134q0 -62 -50 -101.5t-141 -39.5q-117 0 -195 61l26 34q71 -56 176 -56q55 0 97.5 25t42.5 79q0 81 -138 99q-33 5 -53 9t-46 13t-40.5 21t-25 33t-10.5 48q0 65 49 103.5t129 38.5q97 0 163 -45l-24 -35q-65 40 -136 40q-60 0 -98 -25.5t-39 -72.5q0 -24 10.5 -40
t33.5 -25.5t43 -14t56 -9.5q35 -5 61 -13t53 -23t41.5 -41.5t14.5 -62.5zM256 -146l-42 -90h-28l28 91h-18v66h60v-67z" />
    <glyph glyph-name="schwa" unicode="&#x259;" horiz-adv-x="474" 
d="M44 253h353q2 93 -38.5 151.5t-131.5 58.5q-63 0 -119 -41l-27 30q61 49 144 49q33 0 61 -6t57 -23t49.5 -44t33.5 -73t13 -106q0 -72 -17.5 -124.5t-48 -79.5t-63.5 -39.5t-70 -12.5q-94 0 -145 63t-51 163v34zM90 217q3 -92 42 -138.5t107 -46.5q71 0 112 48.5
t45 136.5h-306z" />
    <glyph glyph-name="primemod" unicode="&#x2b9;" horiz-adv-x="194" 
d="M125 686l62 -15l-123 -248l-33 8z" />
    <glyph glyph-name="circumflex" unicode="&#x2c6;" horiz-adv-x="482" 
d="M368 557l-126 97l-127 -98l-21 21l132 124h37l126 -123z" />
    <glyph glyph-name="caron" unicode="&#x2c7;" horiz-adv-x="482" 
d="M242 605l126 96l21 -20l-126 -124h-37l-132 124l21 21z" />
    <glyph glyph-name="breve" unicode="&#x2d8;" horiz-adv-x="498" 
d="M126 674h39q6 -33 31 -53t58 -20q73 0 88 73h39q-7 -44 -38.5 -77t-88.5 -33q-59 0 -91.5 33.5t-36.5 76.5z" />
    <glyph glyph-name="dotaccent" unicode="&#x2d9;" horiz-adv-x="474" 
d="M273 608h-55v54h55v-54z" />
    <glyph glyph-name="ring" unicode="&#x2da;" horiz-adv-x="474" 
d="M256 553q-37 0 -63.5 26.5t-26.5 63.5t26 63.5t64 26.5t64.5 -26.5t26.5 -63.5t-27 -63.5t-64 -26.5zM256 706q-26 0 -44 -18.5t-18 -44.5t18 -44.5t44 -18.5q27 0 45 18.5t18 44.5t-18 44.5t-45 18.5z" />
    <glyph glyph-name="ogonek" unicode="&#x2db;" horiz-adv-x="404" 
d="M123 -93q0 49 42 94h34l1 -1q-38 -46 -38 -86q0 -52 54 -52q26 0 58 16l13 -30q-38 -21 -79 -21q-38 0 -61.5 23.5t-23.5 56.5z" />
    <glyph glyph-name="tilde" unicode="&#x2dc;" horiz-adv-x="482" 
d="M314 588q-20 0 -64 20.5t-63 20.5q-32 0 -64 -38l-28 16q39 65 92 65q22 0 66 -21t60 -21q31 0 57 40l29 -17q-35 -65 -85 -65z" />
    <glyph glyph-name="hungarumlaut" unicode="&#x2dd;" horiz-adv-x="497" 
d="M205 563l-28 12l79 154l48 -19zM306 563l-28 12l79 154l48 -19z" />
    <glyph glyph-name="tonos" unicode="&#x384;" horiz-adv-x="482" 
d="M233 563l-27 12l78 154l49 -19z" />
    <glyph glyph-name="dieresistonos" unicode="&#x385;" horiz-adv-x="449" 
d="M348 606h-55v53h55v-53zM140 606h-54v53h54v-53zM187 563l-28 12l79 154l48 -19z" />
    <glyph glyph-name="Alphatonos" unicode="&#x386;" horiz-adv-x="585" 
d="M519 0l-60 170h-335l-60 -170h-50l253 696h49q170 -464 254 -696h-51zM293 639h-3q-92 -265 -152 -428h307l-90 254q-42 116 -62 174zM14 556l-26 12q26 52 78 153l48 -18z" />
    <glyph glyph-name="anoteleia" unicode="&#x387;" horiz-adv-x="174" 
d="M116 314h-59v65h59v-65z" />
    <glyph glyph-name="Epsilontonos" unicode="&#x388;" horiz-adv-x="528" 
d="M501 0h-422v696h422v-43h-375v-279h320v-42h-320v-289h375v-43zM-73 556l-28 12l79 154l48 -19z" />
    <glyph glyph-name="Etatonos" unicode="&#x389;" horiz-adv-x="625" 
d="M546 0h-47v332h-374v-332h-46v696h46v-322h374v322h47v-696zM-69 556l-28 12l79 154l48 -19z" />
    <glyph glyph-name="Iotatonos" unicode="&#x38a;" horiz-adv-x="212" 
d="M129 0h-46v696h46v-696zM-75 556l-27 12l78 154l49 -19z" />
    <glyph glyph-name="Omicrontonos" unicode="&#x38c;" horiz-adv-x="571" 
d="M286 701q110 0 174 -69t64 -179v-207q0 -116 -64 -184.5t-174 -68.5q-118 0 -179.5 72t-61.5 181v207q0 106 62.5 177t178.5 71zM287 657q-93 0 -143.5 -59t-50.5 -147v-207q0 -87 50.5 -147.5t143.5 -60.5q87 0 138 59t51 153v203q0 89 -51 147.5t-138 58.5zM-69 556
l-27 12l78 154l49 -19z" />
    <glyph glyph-name="Upsilontonos" unicode="&#x38e;" horiz-adv-x="475" 
d="M259 288v-288h-44v288l-209 408h49q63 -121 182 -365q33 65 73 148q74 144 109 217h48q-70 -136 -208 -408zM-116 556l-28 12l79 153l48 -18z" />
    <glyph glyph-name="Omegatonos" unicode="&#x38f;" horiz-adv-x="566" 
d="M147 42q-48 22 -76.5 81.5t-28.5 133.5v196q0 106 62.5 177t177.5 71q110 0 174 -69t64 -179v-196q0 -154 -102 -214l1 -1h117v-42h-191v51q60 19 93.5 74t33.5 131v195q0 90 -50.5 148t-138.5 58q-94 0 -144 -58.5t-50 -147.5v-195q0 -71 33.5 -128.5t95.5 -77.5v-50
h-191v42h120zM-70 556l-27 12l79 153q3 -1 20 -8t27 -10q-14 -22 -30.5 -46.5t-37 -54.5t-31.5 -46z" />
    <glyph glyph-name="iotadieresistonos" unicode="&#x390;" horiz-adv-x="206" 
d="M168 36v-38h-15q-44 0 -61.5 22.5t-17.5 69.5v404h43v-406q0 -30 10.5 -41t36.5 -11h4zM232 606h-55v53h55v-53zM24 606h-54v53h54v-53zM71 563l-28 12l79 154l48 -19z" />
    <glyph glyph-name="Alpha" unicode="&#x391;" horiz-adv-x="585" 
d="M519 0l-60 170h-335l-60 -170h-50l253 696h49q170 -464 254 -696h-51zM293 639h-3q-92 -265 -152 -428h307l-90 254q-42 116 -62 174z" />
    <glyph glyph-name="Beta" unicode="&#x392;" horiz-adv-x="585" 
d="M546 186q0 -83 -53.5 -134.5t-133.5 -51.5h-280v696h253q93 0 145.5 -49.5t52.5 -127.5q0 -48 -27.5 -93.5t-89.5 -64.5v-2q66 -12 99.5 -63t33.5 -110zM324 655h-199v-277h199q72 0 115.5 38t43.5 101q0 61 -42 99.5t-117 38.5zM338 337h-213v-294h214q77 0 117.5 40.5
t40.5 106.5q0 63 -41 105t-118 42z" />
    <glyph glyph-name="Gamma" unicode="&#x393;" horiz-adv-x="507" 
d="M501 653h-374v-653h-48v696h422v-43z" />
    <glyph glyph-name="Delta" unicode="&#x394;" horiz-adv-x="585" 
d="M14 0l253 696h49q170 -464 254 -696h-556zM293 643h-3l-78 -227q-5 -15 -133 -375h426l-133 376q-10 29 -37.5 106.5t-41.5 119.5z" />
    <glyph glyph-name="Delta" unicode="&#x2206;" horiz-adv-x="585" 
d="M14 0l253 696h49q170 -464 254 -696h-556zM293 643h-3l-78 -227q-5 -15 -133 -375h426l-133 376q-10 29 -37.5 106.5t-41.5 119.5z" />
    <glyph glyph-name="Epsilon" unicode="&#x395;" horiz-adv-x="528" 
d="M501 0h-422v696h422v-43h-375v-279h320v-42h-320v-289h375v-43z" />
    <glyph glyph-name="Zeta" unicode="&#x396;" horiz-adv-x="488" 
d="M455 0h-422v42l370 613h-354v41h406v-40l-370 -613h370v-43z" />
    <glyph glyph-name="Eta" unicode="&#x397;" horiz-adv-x="625" 
d="M546 0h-47v332h-374v-332h-46v696h46v-322h374v322h47v-696z" />
    <glyph glyph-name="Theta" unicode="&#x398;" horiz-adv-x="566" 
d="M283 701q110 0 174 -69t64 -179v-207q0 -116 -64 -184.5t-174 -68.5q-118 0 -179 72t-61 181v207q0 106 62.5 177t177.5 71zM284 656q-93 0 -143.5 -58.5t-50.5 -146.5v-206q0 -87 50.5 -147.5t143.5 -60.5q87 0 138 59t51 153v202q0 89 -51 147t-138 58zM136 335v41h294
v-41h-294z" />
    <glyph glyph-name="Iota" unicode="&#x399;" horiz-adv-x="212" 
d="M129 0h-46v696h46v-696z" />
    <glyph glyph-name="Kappa" unicode="&#x39a;" horiz-adv-x="606" 
d="M528 0q-77 131 -233 393l-170 -209v-184h-47v696h47v-444h1q14 17 76 93.5t96 117.5l191 233h52l-216 -266q32 -53 119.5 -201t136.5 -229h-53z" />
    <glyph glyph-name="Lambda" unicode="&#x39b;" horiz-adv-x="585" 
d="M570 0h-51q-66 191 -226 637h-3q-43 -123 -77 -219t-55.5 -155t-27.5 -76l-66 -187h-50l253 696h49q170 -464 254 -696z" />
    <glyph glyph-name="Mu" unicode="&#x39c;" horiz-adv-x="741" 
d="M626 0v591h-1l-104 -220l-126 -262h-40l-126 264l-105 218q0 -1 -1 -1v-590h-45v696h47l156 -328q32 -66 94 -200h1l251 528h45v-696h-46z" />
    <glyph glyph-name="Nu" unicode="&#x39d;" horiz-adv-x="663" 
d="M537 0l-261 392q-89 134 -148 225l-1 -1v-616h-47v696h48l258 -388q100 -150 151 -231q1 0 1 1v618h46v-696h-47z" />
    <glyph glyph-name="Xi" unicode="&#x39e;" horiz-adv-x="554" 
d="M491 653h-433v43h433v-43zM434 332h-318v41h318v-41zM491 0h-433v43h433v-43z" />
    <glyph glyph-name="Omicron" unicode="&#x39f;" horiz-adv-x="571" 
d="M286 701q110 0 174 -69t64 -179v-207q0 -116 -64 -184.5t-174 -68.5q-118 0 -179.5 72t-61.5 181v207q0 106 62.5 177t178.5 71zM287 657q-93 0 -143.5 -59t-50.5 -147v-207q0 -87 50.5 -147.5t143.5 -60.5q87 0 138 59t51 153v203q0 89 -51 147.5t-138 58.5z" />
    <glyph glyph-name="Pi" unicode="&#x3a0;" horiz-adv-x="625" 
d="M546 0h-47v655h-374v-655h-46v696h467v-696z" />
    <glyph glyph-name="Rho" unicode="&#x3a1;" horiz-adv-x="555" 
d="M544 494q0 -77 -54 -136.5t-152 -59.5h-211v-298h-47v696h248q92 0 154 -49.5t62 -152.5zM494 497q0 76 -46.5 116t-119.5 40h-201v-311h205q81 0 121.5 45.5t40.5 109.5z" />
    <glyph glyph-name="Sigma" unicode="&#x3a3;" horiz-adv-x="484" 
d="M455 0h-422v42l188 319l-186 295v40h409v-41h-357l188 -294l-189 -318h369v-43z" />
    <glyph glyph-name="Tau" unicode="&#x3a4;" horiz-adv-x="478" 
d="M471 655h-207v-655h-46v655h-210v41h463v-41z" />
    <glyph glyph-name="Upsilon" unicode="&#x3a5;" horiz-adv-x="475" 
d="M259 288v-288h-44v288l-209 408h49q63 -121 182 -365q33 65 73 148q74 144 109 217h48q-70 -136 -208 -408z" />
    <glyph glyph-name="Phi" unicode="&#x3a6;" horiz-adv-x="726" 
d="M685 356q0 -144 -81 -218t-217 -80v-58h-46v58q-147 6 -221 85.5t-74 212.5q0 44 7 82.5t27 79.5t51.5 71t85.5 50t124 23v34h46v-33q153 -4 225.5 -86t72.5 -221zM387 624v-527q116 3 185 65t69 194q0 133 -67 200t-187 68zM341 625q-252 -13 -252 -269q3 -248 252 -259
v528z" />
    <glyph glyph-name="Chi" unicode="&#x3a7;" horiz-adv-x="500" 
d="M488 0h-51l-187 318l-187 -318h-52l213 357l-198 339h52l172 -300l172 300h52l-199 -339z" />
    <glyph glyph-name="Psi" unicode="&#x3a8;" horiz-adv-x="718" 
d="M651 389q0 -107 -71.5 -172t-197.5 -70v-147h-46v148q-127 4 -198 72.5t-71 179.5v296h45v-292q0 -93 60 -151t164 -61v504h46v-503q103 1 162.5 53.5t59.5 146.5v303h47v-307z" />
    <glyph glyph-name="Omega" unicode="&#x3a9;" horiz-adv-x="566" 
d="M147 42q-48 22 -76.5 81.5t-28.5 133.5v196q0 106 62.5 177t177.5 71q110 0 174 -69t64 -179v-196q0 -154 -102 -214l1 -1h117v-42h-191v51q60 19 93.5 74t33.5 131v195q0 90 -50.5 148t-138.5 58q-94 0 -144 -58.5t-50 -147.5v-195q0 -71 33.5 -128.5t95.5 -77.5v-50
h-191v42h120z" />
    <glyph glyph-name="Iotadieresis" unicode="&#x3aa;" horiz-adv-x="212" 
d="M129 0h-46v696h46v-696zM223 759h-54v53h54v-53zM45 759h-55v53h55v-53z" />
    <glyph glyph-name="Upsilondieresis" unicode="&#x3ab;" horiz-adv-x="475" 
d="M259 288v-288h-44v288l-209 408h49q63 -121 182 -365q33 65 73 148q74 144 109 217h48q-70 -136 -208 -408zM299 758v53h54v-53h-54zM120 758v53h54v-53h-54z" />
    <glyph glyph-name="alphatonos" unicode="&#x3ac;" horiz-adv-x="500" 
d="M55 242q0 116 44.5 188t144.5 72q105 0 149 -91l1 1v84h44v-496h-44v91h-1q-51 -96 -152 -96q-52 0 -89.5 21t-58 57.5t-29.5 78t-9 90.5zM101 248q0 -212 148 -212q52 0 86 31.5t46.5 77.5t12.5 105q0 212 -145 212q-148 0 -148 -214zM242 563l-28 12l79 154l48 -19z
" />
    <glyph glyph-name="epsilontonos" unicode="&#x3ad;" horiz-adv-x="427" 
d="M145 259v2q-81 22 -81 107q0 54 45.5 93.5t134.5 39.5q92 0 155 -52l-27 -32q-56 44 -129 44q-59 0 -97.5 -25t-38.5 -69q0 -42 32 -64.5t88 -22.5h64v-37h-67q-51 0 -89 -29t-38 -76q0 -49 43 -75.5t109 -26.5q31 0 67 12t60 31l27 -32q-63 -51 -160 -51
q-92 0 -141 39.5t-49 105.5q0 31 21 66.5t71 51.5zM227 563l-28 12l79 154l48 -19z" />
    <glyph glyph-name="etatonos" unicode="&#x3ae;" horiz-adv-x="508" 
d="M443 0h-43v317q0 142 -140 142q-65 0 -109 -44.5t-44 -114.5v-300h-43v495h43v-85h2q23 44 68 67t92 23q83 0 128.5 -44t45.5 -124v-332zM218 563l-27 12l78 154l49 -19z" />
    <glyph glyph-name="iotatonos" unicode="&#x3af;" horiz-adv-x="206" 
d="M168 36v-38h-15q-44 0 -61.5 22.5t-17.5 69.5v404h43v-406q0 -30 10.5 -41t36.5 -11h4zM100 563l-27 12l78 154l49 -19z" />
    <glyph glyph-name="upsilondieresistonos" unicode="&#x3b0;" horiz-adv-x="522" 
d="M452 495v-317q0 -88 -52 -136.5t-139 -48.5q-85 0 -137.5 51t-52.5 132v319h43v-302q0 -71 40 -115t108 -44t107 40.5t39 109.5v311h44zM391 606h-54v53h54v-53zM184 606h-54v53h54v-53zM230 563l-27 12l78 154l49 -19z" />
    <glyph glyph-name="alpha" unicode="&#x3b1;" horiz-adv-x="500" 
d="M55 242q0 116 44.5 188t144.5 72q105 0 149 -91l1 1v84h44v-496h-44v91h-1q-51 -96 -152 -96q-52 0 -89.5 21t-58 57.5t-29.5 78t-9 90.5zM101 248q0 -212 148 -212q52 0 86 31.5t46.5 77.5t12.5 105q0 212 -145 212q-148 0 -148 -214z" />
    <glyph glyph-name="beta" unicode="&#x3b2;" horiz-adv-x="504" 
d="M453 228q-1 -108 -50 -171t-141 -63q-105 0 -149 94l-1 -221h-43v662q0 88 46 141t136 53q85 0 126.5 -51t41.5 -114q0 -44 -20 -84.5t-58 -56.5v-2q59 -12 85.5 -65.5t26.5 -121.5zM271 394h-74v37h60q57 0 87.5 35.5t30.5 87.5q0 46 -30 88.5t-95 42.5
q-51 0 -83.5 -25.5t-43.5 -57.5t-11 -69v-307q0 -31 6.5 -62t21.5 -62t45 -50.5t71 -19.5q81 0 117.5 57t36.5 139q0 70 -33.5 118t-105.5 48z" />
    <glyph glyph-name="gamma" unicode="&#x3b3;" horiz-adv-x="421" 
d="M237 15v-215h-44v210q-78 238 -145 414q-13 34 -32 34q-3 0 -13 -2l-3 38q18 5 30 5q38 0 58 -51q61 -168 127 -370q16 46 80 216.5t76 200.5h47q-75 -186 -181 -480z" />
    <glyph glyph-name="delta" unicode="&#x3b4;" horiz-adv-x="482" 
d="M262 723q72 0 138 -33q-14 -26 -20 -39q-61 32 -119 32q-47 0 -82 -26t-35 -68q0 -19 7.5 -34.5t16.5 -25.5t26.5 -20t29 -14.5t32.5 -12t28 -10.5q81 -31 114 -78q40 -57 40 -160q0 -67 -12 -107.5t-43 -76.5q-53 -56 -145 -56q-82 0 -129 41q-68 61 -68 199
q0 90 37 150q38 59 107 82q-87 44 -87 122q0 56 44.5 95.5t119.5 39.5zM240 32q65 0 108 43q29 29 37.5 64.5t8.5 94.5q0 84 -30 131q-36 60 -125 77q-83 -9 -127 -81q-27 -48 -27 -126q0 -60 10.5 -98.5t38.5 -66.5q36 -38 106 -38z" />
    <glyph glyph-name="epsilon" unicode="&#x3b5;" horiz-adv-x="427" 
d="M145 259v2q-81 22 -81 107q0 54 45.5 93.5t134.5 39.5q92 0 155 -52l-27 -32q-56 44 -129 44q-59 0 -97.5 -25t-38.5 -69q0 -42 32 -64.5t88 -22.5h64v-37h-67q-51 0 -89 -29t-38 -76q0 -49 43 -75.5t109 -26.5q31 0 67 12t60 31l27 -32q-63 -51 -160 -51
q-92 0 -141 39.5t-49 105.5q0 31 21 66.5t71 51.5z" />
    <glyph glyph-name="zeta" unicode="&#x3b6;" horiz-adv-x="373" 
d="M88 207q0 -60 32.5 -93t88.5 -54l123 -45q70 -26 70 -78q0 -40 -64 -126l-34 20l28 47q18 32 18 52q0 30 -48 48l-115 41q-145 54 -145 187q0 87 83 213.5t247 252.5h-290v39h352v-37q-136 -102 -241 -235.5t-105 -231.5z" />
    <glyph glyph-name="eta" unicode="&#x3b7;" horiz-adv-x="508" 
d="M443 0h-43v317q0 142 -140 142q-65 0 -109 -44.5t-44 -114.5v-300h-43v495h43v-85h2q23 44 68 67t92 23q83 0 128.5 -44t45.5 -124v-332z" />
    <glyph glyph-name="theta" unicode="&#x3b8;" horiz-adv-x="489" 
d="M249 724q101 0 152 -81q44 -71 44 -277q0 -229 -57 -304q-52 -68 -146 -68q-87 0 -137 58q-60 69 -60 311q0 213 62 292q54 69 142 69zM403 358h-316q-1 -127 11.5 -185.5t34.5 -88.5q39 -51 112 -51t114 61q45 68 44 264zM247 684q-70 0 -110 -55q-15 -20 -23.5 -38.5
t-17 -68.5t-9.5 -125h316q-1 154 -35 217q-38 70 -121 70z" />
    <glyph glyph-name="iota" unicode="&#x3b9;" horiz-adv-x="206" 
d="M168 36v-38h-15q-44 0 -61.5 22.5t-17.5 69.5v404h43v-406q0 -30 10.5 -41t36.5 -11h4z" />
    <glyph glyph-name="kappa" unicode="&#x3ba;" horiz-adv-x="479" 
d="M424 0l-185 283q-84 -94 -125 -142v-141h-43v496h43v-296h1q39 43 83 93t97 109.5t83 93.5h52l-162 -183l207 -313h-51z" />
    <glyph glyph-name="lambda" unicode="&#x3bb;" horiz-adv-x="430" 
d="M428 37l1 -37q-9 -2 -25 -2q-23 0 -36.5 12.5t-24.5 42.5q-8 26 -62.5 190t-60.5 182h-1l-170 -425h-47l195 485q-44 134 -48 146q-10 28 -21 39t-35 11q-13 0 -19 -1l-3 40q17 4 34 4q29 0 46.5 -14t31.5 -45q12 -28 21 -55l181 -541q7 -20 16 -26t27 -6z" />
    <glyph glyph-name="nu" unicode="&#x3bd;" horiz-adv-x="429" 
d="M416 494l-182 -494h-41l-183 494h47q89 -239 156 -433h2l63 180q8 24 41 114t50 139h47z" />
    <glyph glyph-name="xi" unicode="&#x3be;" horiz-adv-x="395" 
d="M212 58q114 -41 131 -48q61 -24 61 -72q0 -31 -25 -71q-20 -33 -35 -54l-35 20q21 35 27 47q17 34 17 46q0 32 -49 50q-37 14 -115 41q-151 53 -151 188q0 22 6 46t19.5 53t43 54.5t70.5 40.5q-45 11 -73 41.5t-35.5 57t-7.5 52.5q0 84 59 128.5t148 44.5q81 -2 141 -33
q-4 -7 -11 -20.5t-9 -17.5q-57 30 -126 30q-68 0 -112 -37t-44 -96q0 -61 49.5 -96.5t114.5 -35.5h83v-39h-109q-71 0 -115.5 -52t-44.5 -120q0 -102 127 -148z" />
    <glyph glyph-name="omicron" unicode="&#x3bf;" horiz-adv-x="489" 
d="M249 501q108 0 160 -80q35 -56 35 -177q0 -119 -49 -182q-53 -68 -154 -68q-92 0 -142 56q-55 63 -55 199q0 121 54 185q56 67 151 67zM247 462q-72 0 -116 -56q-43 -55 -43 -159q0 -107 43 -162q41 -52 113 -52q77 0 119 61q37 53 37 151q0 101 -27 147q-41 70 -126 70z
" />
    <glyph glyph-name="pi" unicode="&#x3c0;" horiz-adv-x="522" 
d="M451 0h-44v459h-293v-459h-43v495h380v-495z" />
    <glyph glyph-name="rho" unicode="&#x3c1;" horiz-adv-x="498" 
d="M256 501q109 0 161 -80q36 -56 36 -177t-49 -182q-50 -67 -147 -67q-100 0 -151 84l-1 -1v-278h-44v449q0 124 50 184q58 68 145 68zM255 462q-68 0 -112 -57q-38 -47 -38 -158q0 -34 2.5 -58t11.5 -54t24.5 -49.5t44 -34t67.5 -16.5q80 0 117 59q37 47 37 151
q0 101 -27 147q-41 70 -127 70z" />
    <glyph glyph-name="sigma1" unicode="&#x3c2;" horiz-adv-x="417" 
d="M295 -11l-92 33q-84 32 -118 82t-34 143q0 66 19.5 117t52 79.5t70.5 43t80 14.5q91 0 152 -51q-6 -6 -15.5 -19t-13.5 -17q-49 43 -119 43q-83 0 -131.5 -54t-48.5 -154q0 -67 25 -110.5t89 -69.5q68 -26 118 -46q67 -26 67 -76q0 -40 -60 -120l-34 20q13 20 23 38
q20 33 20 52q0 33 -50 52z" />
    <glyph glyph-name="sigma" unicode="&#x3c3;" horiz-adv-x="497" 
d="M352 457v-3q86 -43 86 -212q0 -130 -55 -189t-145 -59q-196 0 -196 253q0 126 54 187.5t146 61.5h235v-39h-125zM241 455q-155 0 -155 -209q0 -213 154 -213q71 0 112.5 46.5t41.5 163.5q0 212 -153 212z" />
    <glyph glyph-name="tau" unicode="&#x3c4;" horiz-adv-x="327" 
d="M290 0h-51q-48 0 -76 27t-28 78v353h-120v38h299v-38h-136v-338q0 -42 18 -61.5t56 -19.5h38v-39z" />
    <glyph glyph-name="upsilon" unicode="&#x3c5;" horiz-adv-x="522" 
d="M452 495v-317q0 -88 -52 -136.5t-139 -48.5q-85 0 -137.5 51t-52.5 132v319h43v-302q0 -71 40 -115t108 -44t107 40.5t39 109.5v311h44z" />
    <glyph glyph-name="phi" unicode="&#x3c6;" horiz-adv-x="576" 
d="M310 461v-428q95 0 137 60q39 45 39 154q0 103 -27 146q-43 68 -149 68zM264 -200v195q-105 0 -157 53q-61 57 -61 197q0 94 27.5 154t100.5 89l16 -37q-61 -29 -80.5 -77t-19.5 -130q0 -114 43 -160q46 -52 131 -52v468h49q128 0 182 -79q35 -54 35 -175
q0 -128 -50 -184q-56 -66 -170 -67v-195h-46z" />
    <glyph glyph-name="chi" unicode="&#x3c7;" horiz-adv-x="441" 
d="M412 0h-52l-140 223l-139 -223h-52l165 254l-157 241h52l131 -211l130 211h53l-157 -241z" />
    <glyph glyph-name="psi" unicode="&#x3c8;" horiz-adv-x="610" 
d="M547 197q0 -89 -60 -143t-161 -57v-197h-43v197q-100 3 -159.5 58t-59.5 133v306h43v-291q0 -71 46 -115.5t130 -49.5v476h43v-476q79 2 128.5 46t49.5 123v287h43v-297z" />
    <glyph glyph-name="omega" unicode="&#x3c9;" horiz-adv-x="737" 
d="M533 457l8 41q155 -21 155 -252q0 -119 -44.5 -185t-134.5 -66q-112 0 -149 101q-45 -102 -146 -102q-179 0 -179 253q0 225 157 250l7 -41q-120 -23 -120 -210q0 -212 135 -212q58 0 90 43.5t32 102.5v189h44v-189q0 -59 33.5 -102t95.5 -43q66 0 100 55t34 156
q0 191 -118 211z" />
    <glyph glyph-name="iotadieresis" unicode="&#x3ca;" horiz-adv-x="206" 
d="M168 36v-38h-15q-44 0 -61.5 22.5t-17.5 69.5v404h43v-406q0 -30 10.5 -41t36.5 -11h4zM217 608h-55v54h55v-54zM27 608h-54v54h54v-54z" />
    <glyph glyph-name="upsilondieresis" unicode="&#x3cb;" horiz-adv-x="522" 
d="M452 495v-317q0 -88 -52 -136.5t-139 -48.5q-85 0 -137.5 51t-52.5 132v319h43v-302q0 -71 40 -115t108 -44t107 40.5t39 109.5v311h44zM381 608h-55v54h55v-54zM191 608h-54v54h54v-54z" />
    <glyph glyph-name="omicrontonos" unicode="&#x3cc;" horiz-adv-x="489" 
d="M238 563l-28 12l79 154l48 -19zM249 501q108 0 160 -80q35 -56 35 -177q0 -119 -49 -182q-53 -68 -154 -68q-92 0 -142 56q-55 63 -55 199q0 121 54 185q56 67 151 67zM247 462q-72 0 -116 -56q-43 -55 -43 -159q0 -107 43 -162q41 -52 113 -52q77 0 119 61q37 53 37 151
q0 101 -27 147q-41 70 -126 70z" />
    <glyph glyph-name="upsilontonos" unicode="&#x3cd;" horiz-adv-x="522" 
d="M452 495v-317q0 -88 -52 -136.5t-139 -48.5q-85 0 -137.5 51t-52.5 132v319h43v-302q0 -71 40 -115t108 -44t107 40.5t39 109.5v311h44zM242 563l-28 12l79 154l48 -19z" />
    <glyph glyph-name="omegatonos" unicode="&#x3ce;" horiz-adv-x="758" 
d="M537 -5q-117 0 -157 100q-48 -101 -156 -101q-54 0 -90.5 20t-55 57.5t-25.5 79t-7 97.5q0 68 12.5 116.5t49 85.5t97.5 47l5 -41q-28 -5 -48.5 -17t-33.5 -31t-21 -39t-11.5 -49t-4.5 -51.5t-1 -56.5q0 -77 33.5 -128t100.5 -51q61 0 96.5 44t35.5 102v190h43v-190
q0 -58 36.5 -101.5t102.5 -43.5q74 0 103.5 54.5t29.5 159.5q0 87 -25.5 142t-94.5 67l5 41q61 -9 98 -46.5t49.5 -86t12.5 -116.5q0 -55 -7 -97t-25.5 -79.5t-55.5 -57.5t-91 -20zM362 563q-3 1 -8.5 3.5t-10 4.5t-8.5 4l79 153q7 -2 23 -9t25 -10z" />
    <glyph glyph-name="afii10023" unicode="&#x401;" horiz-adv-x="528" 
d="M501 0h-422v696h422v-43h-375v-279h320v-42h-320v-289h375v-43zM409 759h-54v53h54v-53zM231 759h-55v53h55v-53z" />
    <glyph glyph-name="afii10051" unicode="&#x402;" horiz-adv-x="683" 
d="M264 392h1q80 78 184 78q91 0 149.5 -59t58.5 -176t-62.5 -186t-189.5 -65v39q102 -2 154 51t52 155q0 92 -42.5 145t-123.5 53q-48 0 -96 -23.5t-85 -66.5v-337h-46v655h-210v41h541v-41h-285v-263z" />
    <glyph glyph-name="afii10052" unicode="&#x403;" horiz-adv-x="507" 
d="M501 653h-374v-653h-48v696h422v-43zM234 729l-19 22l135 108l35 -37z" />
    <glyph glyph-name="afii10053" unicode="&#x404;" horiz-adv-x="521" 
d="M469 153l42 -19q-27 -66 -84 -103.5t-134 -37.5q-118 0 -179 72t-61 181v207q0 106 62.5 177t177.5 71q75 0 131 -35t84 -95l-42 -21q-22 49 -67 78.5t-105 29.5q-94 0 -144.5 -59t-50.5 -148v-77h272v-42h-272v-87q0 -89 50.5 -149t144.5 -60q122 0 175 117z" />
    <glyph glyph-name="afii10054" unicode="&#x405;" horiz-adv-x="530" 
d="M503 183q0 -87 -65 -138t-176 -51q-138 0 -241 75l28 38q96 -69 216 -69q84 0 137 37.5t53 108.5q0 32 -12 57t-28.5 40t-44.5 27t-49 17.5t-53 11.5q-38 7 -62 13t-55.5 19t-49 30.5t-30.5 47t-13 67.5q0 86 59.5 137t158.5 51q116 0 199 -53l-25 -40q-87 49 -176 49
q-72 0 -120.5 -36.5t-48.5 -107.5q0 -28 10.5 -50t24.5 -34.5t41.5 -23t46 -15t53.5 -11.5q7 -1 10 -2q39 -8 63.5 -15t56 -21.5t49.5 -34t30.5 -51t12.5 -73.5z" />
    <glyph glyph-name="afii10055" unicode="&#x406;" horiz-adv-x="212" 
d="M129 0h-46v696h46v-696z" />
    <glyph glyph-name="afii10056" unicode="&#x407;" horiz-adv-x="212" 
d="M129 0h-46v696h46v-696zM229 787h-55v54h55v-54zM39 787h-54v54h54v-54z" />
    <glyph glyph-name="afii10057" unicode="&#x408;" horiz-adv-x="448" 
d="M378 696v-499q0 -103 -58.5 -153t-148.5 -50q-81 0 -141 55l34 32q52 -43 103 -43q74 0 119.5 41t45.5 135v482h46z" />
    <glyph glyph-name="afii10058" unicode="&#x409;" horiz-adv-x="909" 
d="M420 0v655h-234v-332q0 -104 -18.5 -171.5t-52.5 -104.5t-90 -60l-16 41q49 27 74 55t40.5 91t15.5 172v350h329v-318h213q97 0 150.5 -55.5t53.5 -131.5q0 -96 -61.5 -143.5t-156.5 -47.5h-247zM835 191q0 61 -42.5 103.5t-117.5 42.5h-207v-294h205q73 0 117.5 37
t44.5 111z" />
    <glyph glyph-name="afii10059" unicode="&#x40a;" horiz-adv-x="907" 
d="M673 0h-247v335h-300v-335h-47v696h47v-318h300v318h48v-318h209q98 0 152.5 -54.5t54.5 -132.5q0 -96 -60.5 -143.5t-156.5 -47.5zM841 190q0 60 -43.5 102.5t-118.5 42.5h-205v-292h204q74 0 118.5 36t44.5 111z" />
    <glyph glyph-name="afii10060" unicode="&#x40b;" horiz-adv-x="684" 
d="M461 471q87 0 134 -47.5t47 -134.5v-289h-45v271q0 157 -142 157q-93 0 -191 -85v-343h-46v655h-210v41h541v-41h-285v-263h1q98 79 196 79z" />
    <glyph glyph-name="afii10061" unicode="&#x40c;" horiz-adv-x="567" 
d="M123 0h-46v695h46v-315h167q99 0 133 107l67 208h45l-62 -199q-36 -114 -102 -132q45 -10 69 -43.5t41 -92.5l67 -228h-50l-65 226q-19 65 -51 89t-80 24h-179v-339zM269 729l-20 22l136 108l35 -37z" />
    <glyph glyph-name="afii10062" unicode="&#x40e;" horiz-adv-x="497" 
d="M485 697q-45 -116 -221 -569q-31 -78 -62.5 -107t-82.5 -29h-40v43h32q35 0 57 18.5t42 66.5l17 43l-210 532h52q18 -46 50.5 -131t44.5 -117q50 -123 89 -228h2l181 478h49zM134 831h39q6 -33 31 -53t58 -20q73 0 88 73h39q-7 -44 -38.5 -77t-88.5 -33q-59 0 -91.5 33.5
t-36.5 76.5z" />
    <glyph glyph-name="afii10145" unicode="&#x40f;" horiz-adv-x="618" 
d="M494 695h49v-695h-207v-166h-55v166h-206v695h49v-653h370v653z" />
    <glyph glyph-name="afii10017" unicode="&#x410;" horiz-adv-x="585" 
d="M519 0l-60 170h-335l-60 -170h-50l253 696h49q170 -464 254 -696h-51zM293 639h-3q-92 -265 -152 -428h307l-90 254q-42 116 -62 174z" />
    <glyph glyph-name="afii10018" unicode="&#x411;" horiz-adv-x="544" 
d="M295 0h-246v696h405v-42h-358v-276h209q99 0 153.5 -54.5t54.5 -132.5q0 -97 -61 -144t-157 -47zM464 190q0 60 -43.5 102.5t-118.5 42.5h-206v-292h205q73 0 118 36t45 111z" />
    <glyph glyph-name="afii10019" unicode="&#x412;" horiz-adv-x="585" 
d="M546 186q0 -83 -53.5 -134.5t-133.5 -51.5h-280v696h253q93 0 145.5 -49.5t52.5 -127.5q0 -48 -27.5 -93.5t-89.5 -64.5v-2q66 -12 99.5 -63t33.5 -110zM324 655h-199v-277h199q72 0 115.5 38t43.5 101q0 61 -42 99.5t-117 38.5zM338 337h-213v-294h214q77 0 117.5 40.5
t40.5 106.5q0 63 -41 105t-118 42z" />
    <glyph glyph-name="afii10020" unicode="&#x413;" horiz-adv-x="507" 
d="M501 653h-374v-653h-48v696h422v-43z" />
    <glyph glyph-name="afii10021" unicode="&#x414;" horiz-adv-x="695" 
d="M602 696v-654h50v-196h-47v154h-537v-154h-48v191l39 8q52 26 77 108t33 255q4 96 14 288h419zM554 42v612h-327l-13 -266q-7 -139 -26 -221.5t-60 -124.5h426z" />
    <glyph glyph-name="afii10022" unicode="&#x415;" horiz-adv-x="528" 
d="M501 0h-422v696h422v-43h-375v-279h320v-42h-320v-289h375v-43z" />
    <glyph glyph-name="afii10024" unicode="&#x416;" horiz-adv-x="859" 
d="M406 380v316h47v-316h131q100 0 133 107l68 208h44l-62 -199q-34 -113 -102 -132q45 -10 69 -43.5t41 -92.5l67 -228h-49l-66 226q-20 65 -51.5 89t-79.5 24h-143v-339h-47v339h-143q-48 0 -80 -24t-51 -89l-66 -226h-49l67 228q17 59 41 92.5t68 43.5q-67 19 -101 132
l-63 199h45l67 -208q34 -107 133 -107h132z" />
    <glyph glyph-name="afii10025" unicode="&#x417;" horiz-adv-x="548" 
d="M264 -6q-84 0 -151 38t-93 101l42 20q25 -54 81.5 -86.5t123.5 -32.5q82 0 136.5 46t54.5 126q0 69 -47 107t-109 38h-87v42h84q58 0 101.5 38.5t43.5 98.5q0 61 -48 94.5t-123 33.5q-63 0 -116.5 -30t-75.5 -76q-7 3 -21 9.5t-20 10.5q27 59 90 94.5t143 35.5
q107 0 162.5 -47t55.5 -122q0 -46 -27 -92.5t-86 -67.5q69 -20 98.5 -68t29.5 -98q0 -95 -67.5 -154t-174.5 -59z" />
    <glyph glyph-name="afii10026" unicode="&#x418;" horiz-adv-x="642" 
d="M576 0h-46v610q0 1 -1 1q-78 -117 -221.5 -330t-189.5 -281h-46v696h46v-616q1 0 1 -1q70 104 207.5 308.5t207.5 308.5h42v-696z" />
    <glyph glyph-name="afii10027" unicode="&#x419;" horiz-adv-x="642" 
d="M182 825h39q6 -33 31 -53t58 -20q73 0 88 73h39q-7 -44 -38.5 -77t-88.5 -33q-59 0 -91.5 33.5t-36.5 76.5zM576 0h-46v610q0 1 -1 1q-78 -117 -221.5 -330t-189.5 -281h-46v696h46v-616q1 0 1 -1q70 104 207.5 308.5t207.5 308.5h42v-696z" />
    <glyph glyph-name="afii10028" unicode="&#x41a;" horiz-adv-x="567" 
d="M123 0h-46v695h46v-315h167q99 0 133 107l67 208h45l-62 -199q-36 -114 -102 -132q45 -10 69 -43.5t41 -92.5l67 -228h-50l-65 226q-19 65 -51 89t-80 24h-179v-339z" />
    <glyph glyph-name="afii10029" unicode="&#x41b;" horiz-adv-x="625" 
d="M135 696h406v-696h-48v654h-311v-332q0 -157 -38 -230t-123 -105q-6 13 -16 41q49 26 74 54t40.5 91t15.5 172v351z" />
    <glyph glyph-name="afii10030" unicode="&#x41c;" horiz-adv-x="741" 
d="M626 0v591h-1l-104 -220l-126 -262h-40l-126 264l-105 218q0 -1 -1 -1v-590h-45v696h47l156 -328q32 -66 94 -200h1l251 528h45v-696h-46z" />
    <glyph glyph-name="afii10031" unicode="&#x41d;" horiz-adv-x="625" 
d="M546 0h-47v332h-374v-332h-46v696h46v-322h374v322h47v-696z" />
    <glyph glyph-name="afii10032" unicode="&#x41e;" horiz-adv-x="571" 
d="M286 701q110 0 174 -69t64 -179v-207q0 -116 -64 -184.5t-174 -68.5q-118 0 -179.5 72t-61.5 181v207q0 106 62.5 177t178.5 71zM287 657q-93 0 -143.5 -59t-50.5 -147v-207q0 -87 50.5 -147.5t143.5 -60.5q87 0 138 59t51 153v203q0 89 -51 147.5t-138 58.5z" />
    <glyph glyph-name="afii10033" unicode="&#x41f;" horiz-adv-x="625" 
d="M546 0h-47v655h-374v-655h-46v696h467v-696z" />
    <glyph glyph-name="afii10034" unicode="&#x420;" horiz-adv-x="555" 
d="M544 494q0 -77 -54 -136.5t-152 -59.5h-211v-298h-47v696h248q92 0 154 -49.5t62 -152.5zM494 497q0 76 -46.5 116t-119.5 40h-201v-311h205q81 0 121.5 45.5t40.5 109.5z" />
    <glyph glyph-name="afii10035" unicode="&#x421;" horiz-adv-x="528" 
d="M469 153l42 -19q-27 -66 -84 -103.5t-134 -37.5q-118 0 -179 72t-61 181v207q0 106 62.5 177t177.5 71q75 0 131 -35t84 -95l-42 -21q-22 49 -67 78.5t-105 29.5q-94 0 -144.5 -59t-50.5 -148v-206q0 -89 50.5 -149t144.5 -60q122 0 175 117z" />
    <glyph glyph-name="afii10036" unicode="&#x422;" horiz-adv-x="478" 
d="M471 655h-207v-655h-46v655h-210v41h463v-41z" />
    <glyph glyph-name="afii10037" unicode="&#x423;" horiz-adv-x="497" 
d="M485 697q-45 -116 -221 -569q-31 -78 -62.5 -107t-82.5 -29h-40v43h32q35 0 57 18.5t42 66.5l17 43l-210 532h52q18 -46 50.5 -131t44.5 -117q50 -123 89 -228h2l181 478h49z" />
    <glyph glyph-name="afii10038" unicode="&#x424;" horiz-adv-x="726" 
d="M685 356q0 -144 -81 -218t-217 -80v-58h-46v58q-147 6 -221 85.5t-74 212.5q0 44 7 82.5t27 79.5t51.5 71t85.5 50t124 23v34h46v-33q153 -4 225.5 -86t72.5 -221zM387 624v-527q116 3 185 65t69 194q0 133 -67 200t-187 68zM341 625q-252 -13 -252 -269q3 -248 252 -259
v528z" />
    <glyph glyph-name="afii10039" unicode="&#x425;" horiz-adv-x="500" 
d="M488 0h-51l-187 318l-187 -318h-52l213 357l-198 339h52l172 -300l172 300h52l-199 -339z" />
    <glyph glyph-name="afii10040" unicode="&#x426;" horiz-adv-x="626" 
d="M552 -154v154h-473v696h46v-654h374v654h47v-655h54v-195h-48z" />
    <glyph glyph-name="afii10041" unicode="&#x427;" horiz-adv-x="588" 
d="M509 0h-47v347h-1q-90 -59 -200 -59q-88 0 -145.5 48.5t-57.5 154.5v205h46v-194q0 -80 41 -126.5t124 -46.5q107 0 193 64v303h47v-696z" />
    <glyph glyph-name="afii10042" unicode="&#x428;" horiz-adv-x="941" 
d="M819 696h48v-696h-793v696h48v-654h321v654h48v-654h328v654z" />
    <glyph glyph-name="afii10043" unicode="&#x429;" horiz-adv-x="950" 
d="M872 -154v154h-799v696h48v-654h321v654h48v-654h328v654h48v-655h54v-195h-48z" />
    <glyph glyph-name="afii10044" unicode="&#x42a;" horiz-adv-x="693" 
d="M663 191q0 -96 -60.5 -143.5t-156.5 -47.5h-247v652h-191v44h239v-318h209q98 0 152.5 -54.5t54.5 -132.5zM614 190q0 60 -43.5 102.5t-118.5 42.5h-205v-292h204q74 0 118.5 36t44.5 111z" />
    <glyph glyph-name="afii10045" unicode="&#x42b;" horiz-adv-x="740" 
d="M328 0h-247v696h48v-318h209q98 0 153 -54.5t55 -132.5q0 -97 -61 -144t-157 -47zM664 0h-47v696h47v-696zM496 190q0 60 -43.5 102.5t-118.5 42.5h-205v-292h205q73 0 117.5 36t44.5 111z" />
    <glyph glyph-name="afii10046" unicode="&#x42c;" horiz-adv-x="548" 
d="M296 0h-247v696h48v-318h209q98 0 152.5 -54.5t54.5 -132.5q0 -97 -60.5 -144t-156.5 -47zM464 190q0 60 -43.5 102.5t-118.5 42.5h-205v-292h205q73 0 117.5 36t44.5 111z" />
    <glyph glyph-name="afii10047" unicode="&#x42d;" horiz-adv-x="532" 
d="M154 339v42h272v70q0 91 -45.5 149t-139.5 58q-61 0 -107.5 -29t-68.5 -78l-41 20q27 60 84.5 95t133.5 35q117 0 173.5 -69.5t56.5 -178.5v-207q0 -109 -62 -181t-180 -72q-78 0 -135.5 38t-84.5 103l42 19q53 -117 177 -117q98 0 147.5 59.5t49.5 149.5v94h-272z" />
    <glyph glyph-name="afii10048" unicode="&#x42e;" horiz-adv-x="741" 
d="M464 701q111 0 169 -67.5t58 -179.5v-209q0 -116 -59.5 -184t-167.5 -68q-117 0 -172.5 71t-55.5 182v86h-109v-332h-49v696h49v-323h109v80q0 107 57.5 177.5t170.5 70.5zM465 657q-93 0 -137.5 -59t-44.5 -148v-206q0 -90 45 -149t137 -59q88 0 133 58t45 154v202
q0 90 -45.5 148.5t-132.5 58.5z" />
    <glyph glyph-name="afii10049" unicode="&#x42f;" horiz-adv-x="601" 
d="M110 508q0 -71 45 -105.5t121 -34.5h200v287h-203q-69 0 -116 -38t-47 -109zM476 0v327h-197q-104 0 -136 -115l-58 -212h-49l59 220q13 49 33.5 77.5t56.5 42.5q-61 17 -92 62t-31 106q0 84 56.5 136t148.5 52h256v-696h-47z" />
    <glyph glyph-name="afii10065" unicode="&#x430;" horiz-adv-x="474" 
d="M377 54h-1q-38 -60 -166 -60q-75 0 -124.5 36.5t-49.5 104.5q0 62 41.5 100.5t117.5 38.5h182v71q0 57 -33 86t-110 29q-86 0 -138 -48l-28 30q61 59 167 59q86 0 136 -34t50 -120v-347h-44v54zM377 237h-172q-60 0 -93.5 -25.5t-33.5 -74.5q0 -50 37 -77.5t101 -27.5
q27 0 52.5 4.5t51.5 15.5t41.5 33t15.5 53v99z" />
    <glyph glyph-name="afii10066" unicode="&#x431;" horiz-adv-x="478" 
d="M86 385q2 0 3 -1q21 42 66 67.5t95 25.5q99 0 150 -68q40 -52 40 -170q0 -106 -31 -158q-51 -87 -168 -87q-114 0 -162 78q-39 64 -39 190q1 106 12 177q14 93 56.5 149t122.5 87q24 9 78.5 25.5t83.5 27.5l13 -35q-31 -11 -81.5 -26.5t-70.5 -23.5q-88 -36 -124.5 -96.5
t-43.5 -161.5zM245 437q-75 0 -117 -58q-42 -55 -42 -147q0 -86 26 -130q38 -70 128 -70q110 0 143 93q13 38 13 110q0 104 -33 149q-42 53 -118 53z" />
    <glyph glyph-name="afii10067" unicode="&#x432;" horiz-adv-x="461" 
d="M435 137q0 -60 -42.5 -98.5t-103.5 -38.5h-231v495h206q77 0 118 -36t41 -92q0 -33 -19 -63.5t-58 -45.5v-1q47 -13 68 -47.5t21 -72.5zM377 365q0 42 -30 67t-87 25h-158v-184h167q49 0 78.5 25.5t29.5 66.5zM392 136q0 42 -30 71.5t-88 29.5h-172v-198h171
q57 0 88 28.5t31 68.5z" />
    <glyph glyph-name="afii10068" unicode="&#x433;" horiz-adv-x="400" 
d="M398 457h-295v-457h-45v495h340v-38z" />
    <glyph glyph-name="afii10069" unicode="&#x434;" horiz-adv-x="564" 
d="M521 40v-172h-44v132h-416v-132h-44v169l38 4q39 24 59 79t25 166l10 209h330v-455h42zM434 40v417h-246q-4 -120 -8 -182.5t-20.5 -135t-45.5 -99.5h320z" />
    <glyph glyph-name="afii10070" unicode="&#x435;" horiz-adv-x="474" 
d="M438 241h-353q-2 -93 38.5 -151.5t131.5 -58.5q63 0 119 41l27 -30q-61 -49 -144 -49q-33 0 -61 6t-57 23t-49.5 44t-33.5 73t-13 106q0 72 17.5 124.5t48 79.5t63.5 39.5t70 12.5q94 0 145 -63t51 -163v-34zM392 277q-3 92 -42 138.5t-107 46.5q-71 0 -112 -48.5
t-45 -136.5h306z" />
    <glyph glyph-name="afii10072" unicode="&#x436;" horiz-adv-x="700" 
d="M215 270h113v225h43v-225h113q73 0 96 74l48 151h41l-44 -143q-13 -40 -29 -63.5t-42 -30.5q32 -8 48.5 -31.5t28.5 -65.5l48 -161h-44q-40 140 -45 155q-13 46 -36.5 62.5t-61.5 16.5h-121v-234h-43v234h-121q-38 0 -61 -16.5t-37 -62.5l-45 -155h-44l48 161
q12 42 28 65.5t48 31.5q-46 12 -70 94q-8 28 -25 81t-20 62h42q27 -85 47 -151q23 -74 97 -74z" />
    <glyph glyph-name="afii10073" unicode="&#x437;" horiz-adv-x="423" 
d="M328 367q0 43 -34 68.5t-93 25.5q-39 0 -79 -12.5t-62 -31.5l-27 30q64 53 169 53q87 0 129 -37t42 -92q0 -30 -21.5 -63.5t-64.5 -49.5q49 -12 72.5 -47t23.5 -68q0 -66 -51.5 -108t-139.5 -42q-116 0 -179 52l28 31q21 -18 64 -30.5t84 -12.5q68 0 108.5 29.5
t40.5 79.5q0 47 -36 72.5t-90 25.5h-63v36h63q48 0 82 25t34 66z" />
    <glyph glyph-name="afii10074" unicode="&#x438;" horiz-adv-x="515" 
d="M457 0h-44v421l-81 -111l-230 -310h-43v495h44v-428l91 124l225 304h38v-495z" />
    <glyph glyph-name="afii10075" unicode="&#x439;" horiz-adv-x="515" 
d="M132 645h39q6 -33 31 -53t58 -20q73 0 88 73h39q-7 -44 -38.5 -77t-88.5 -33q-59 0 -91.5 33.5t-36.5 76.5zM457 0h-44v421l-81 -111l-230 -310h-43v495h44v-428l91 124l225 304h38v-495z" />
    <glyph glyph-name="afii10076" unicode="&#x43a;" horiz-adv-x="467" 
d="M109 0h-44v495h44v-225h133q71 0 96 75l47 150h42l-44 -143q-13 -40 -29 -63.5t-42 -30.5q32 -8 48.5 -31t28.5 -66l48 -161h-45l-45 155q-13 46 -36.5 62.5t-61.5 16.5h-140v-234z" />
    <glyph glyph-name="afii10077" unicode="&#x43b;" horiz-adv-x="499" 
d="M427 495v-495h-44v457h-231v-184q0 -133 -31 -195.5t-102 -90.5q-1 3 -6.5 16t-7.5 20q41 22 61 46t31.5 76.5t11.5 146.5v203h318z" />
    <glyph glyph-name="afii10078" unicode="&#x43c;" horiz-adv-x="587" 
d="M539 0h-45v404l-176 -328h-36l-179 328v-404h-44v495h43q82 -149 198 -370l73 137l123 233h43v-495z" />
    <glyph glyph-name="afii10079" unicode="&#x43d;" horiz-adv-x="493" 
d="M435 0h-44v233h-288v-233h-44v495h44v-227h288v227h44v-495z" />
    <glyph glyph-name="afii10080" unicode="&#x43e;" horiz-adv-x="489" 
d="M249 501q108 0 160 -80q35 -56 35 -177q0 -119 -49 -182q-53 -68 -154 -68q-92 0 -142 56q-55 63 -55 199q0 121 54 185q56 67 151 67zM247 462q-72 0 -116 -56q-43 -55 -43 -159q0 -107 43 -162q41 -52 113 -52q77 0 119 61q37 53 37 151q0 101 -27 147q-41 70 -126 70z
" />
    <glyph glyph-name="afii10081" unicode="&#x43f;" horiz-adv-x="522" 
d="M451 0h-44v459h-293v-459h-43v495h380v-495z" />
    <glyph glyph-name="afii10082" unicode="&#x440;" horiz-adv-x="492" 
d="M58 496h44v-84h1q52 90 152 90q98 0 142 -70.5t44 -184.5q0 -50 -9.5 -92t-30 -79.5t-59.5 -59t-92 -21.5q-93 0 -147 87h-1v-281h-44v695zM102 250q0 -94 34 -154t111 -60q148 0 148 212q0 214 -148 214q-44 0 -75 -20.5t-45 -55t-19.5 -67t-5.5 -69.5z" />
    <glyph glyph-name="afii10083" unicode="&#x441;" horiz-adv-x="414" 
d="M395 49q-63 -56 -145 -56q-43 0 -81 14t-70 43t-50.5 79.5t-18.5 117.5t18.5 117.5t50.5 79.5t70 43t81 14q81 0 145 -54l-28 -33q-49 47 -111 47q-87 0 -134.5 -55.5t-47.5 -158.5t47.5 -159t134.5 -56q58 0 111 47z" />
    <glyph glyph-name="afii10084" unicode="&#x442;" horiz-adv-x="380" 
d="M377 458h-166v-458h-44v458h-165v37h375v-37z" />
    <glyph glyph-name="afii10085" unicode="&#x443;" horiz-adv-x="419" 
d="M197 -111q-15 -44 -45.5 -66.5t-68.5 -22.5h-21v39h20q26 0 47.5 18.5t31.5 52.5q18 56 28 84q-35 93 -98 264t-87 236h49l84 -233q13 -35 36.5 -105t36.5 -105h2q11 31 79 225.5t76 217.5h46z" />
    <glyph glyph-name="afii10086" unicode="&#x444;" horiz-adv-x="568" 
d="M309 460v-429q95 3 141 65q34 52 34 149q0 59 -8 95.5t-34 68.5q-42 49 -133 51zM266 501v221h43v-221q121 -3 175 -74q44 -58 44 -183q0 -110 -41 -168q-56 -82 -178 -82v-193h-43v193q-90 0 -145 44q-42 35 -58 84t-16 128q0 67 13.5 114t51.5 83q57 54 154 54zM266 31
v429q-79 0 -126 -44q-49 -43 -49 -167q0 -60 10 -102t43 -72q46 -44 122 -44z" />
    <glyph glyph-name="afii10087" unicode="&#x445;" horiz-adv-x="441" 
d="M412 0h-52l-140 223l-139 -223h-52l165 254l-157 241h52l131 -211l130 211h53l-157 -241z" />
    <glyph glyph-name="afii10088" unicode="&#x446;" horiz-adv-x="517" 
d="M442 0h-382v495h43v-457h293v457h43v-457h48v-170h-45v132z" />
    <glyph glyph-name="afii10089" unicode="&#x447;" horiz-adv-x="460" 
d="M401 0h-44v239q-85 -46 -165 -46q-72 0 -116.5 37t-44.5 119v146h44v-139q0 -123 127 -123q79 0 155 49v213h44v-495z" />
    <glyph glyph-name="afii10090" unicode="&#x448;" horiz-adv-x="779" 
d="M676 495h43v-495h-659v495h43v-456h262v456h44v-456h267v456z" />
    <glyph glyph-name="afii10091" unicode="&#x449;" horiz-adv-x="797" 
d="M722 0h-662v495h43v-456h261v456h44v-456h267v456h44v-457h47v-170h-44v132z" />
    <glyph glyph-name="afii10092" unicode="&#x44a;" horiz-adv-x="551" 
d="M488 142q0 43 -33 71.5t-92 28.5l-162 1v-204h160q56 0 91.5 26t35.5 77zM202 495v-213h165q80 0 122.5 -40.5t42.5 -99.5q0 -69 -47.5 -105.5t-126.5 -36.5h-201v457h-151v38h196z" />
    <glyph glyph-name="afii10093" unicode="&#x44b;" horiz-adv-x="582" 
d="M522 0h-44v495h44v-495zM381 142q0 43 -33.5 72t-91.5 29h-162v-204h160q56 0 91.5 26t35.5 77zM94 495v-213h166q80 0 122.5 -40.5t42.5 -99.5q0 -69 -47.5 -105.5t-126.5 -36.5h-201v495h44z" />
    <glyph glyph-name="afii10094" unicode="&#x44c;" horiz-adv-x="437" 
d="M378 142q0 43 -33 71.5t-92 28.5l-162 1v-204h160q56 0 91.5 26t35.5 77zM92 495v-213h165q80 0 122.5 -40.5t42.5 -99.5q0 -69 -47 -105.5t-126 -36.5h-202l1 495h44z" />
    <glyph glyph-name="afii10095" unicode="&#x44d;" horiz-adv-x="427" 
d="M118 235v37h218q-2 88 -42 138t-118 50q-72 0 -126 -44l-27 31q64 54 157 54q90 0 145.5 -58.5t55.5 -187.5q0 -133 -62 -197.5t-153 -64.5q-88 0 -154 52l28 32q22 -18 56.5 -30.5t66.5 -12.5q81 0 126 53.5t47 147.5h-218z" />
    <glyph glyph-name="afii10096" unicode="&#x44e;" horiz-adv-x="590" 
d="M53 0v494h43v-226h72q1 112 51 172q51 62 141 62q106 0 155 -76q35 -59 35 -181q0 -124 -47 -184q-49 -67 -146 -67q-88 0 -136 56q-52 58 -53 183h-72v-233h-43zM360 463q-67 0 -111 -56q-38 -50 -38 -159q0 -113 42 -165q39 -50 106 -50q74 0 113 59q34 50 34 154
q0 107 -26 151q-37 66 -120 66z" />
    <glyph glyph-name="afii10097" unicode="&#x44f;" horiz-adv-x="480" 
d="M44 355q0 63 39 101.5t106 38.5h229v-495h-44v226h-168q-38 0 -62 -16.5t-35 -60.5l-38 -149h-45l39 148q20 77 65 92q-43 11 -64.5 42.5t-21.5 72.5zM86 356q0 -48 33 -70.5t86 -22.5h169v194h-180q-48 0 -78 -27t-30 -74z" />
    <glyph glyph-name="afii10071" unicode="&#x451;" horiz-adv-x="474" 
d="M438 241h-353q-2 -93 38.5 -151.5t131.5 -58.5q63 0 119 41l27 -30q-61 -49 -144 -49q-33 0 -61 6t-57 23t-49.5 44t-33.5 73t-13 106q0 72 17.5 124.5t48 79.5t63.5 39.5t70 12.5q94 0 145 -63t51 -163v-34zM392 277q-3 92 -42 138.5t-107 46.5q-71 0 -112 -48.5
t-45 -136.5h306zM368 615h-55v54h55v-54zM178 615h-54v54h54v-54z" />
    <glyph glyph-name="afii10099" unicode="&#x452;" horiz-adv-x="529" 
d="M7 585v37h62v100h43v-100h248v-37h-248v-190l1 -1h1q48 100 164 100q91 0 140.5 -63.5t49.5 -186.5q0 -111 -59 -183t-165 -72h-12v37h8q87 0 136 58.5t49 155.5t-37.5 156t-121.5 59q-77 0 -115.5 -60t-38.5 -166v-229h-43v585h-62z" />
    <glyph glyph-name="afii10100" unicode="&#x453;" horiz-adv-x="392" 
d="M393 453h-296v-453h-45v491h341v-38zM215 563l-28 12l79 154l48 -19z" />
    <glyph glyph-name="afii10101" unicode="&#x454;" horiz-adv-x="407" 
d="M397 49q-64 -56 -148 -56q-97 0 -158 60t-61 190q0 129 65 193.5t158 64.5q81 0 142 -52l-28 -32q-47 44 -112 44q-77 0 -125 -50t-54 -143h216v-36h-217q6 -198 179 -198q31 0 63.5 13.5t51.5 31.5z" />
    <glyph glyph-name="afii10102" unicode="&#x455;" horiz-adv-x="446" 
d="M408 134q0 -62 -50 -101.5t-141 -39.5q-117 0 -195 61l26 34q71 -56 176 -56q55 0 97.5 25t42.5 79q0 81 -138 99q-33 5 -53 9t-46 13t-40.5 21t-25 33t-10.5 48q0 65 49 103.5t129 38.5q97 0 163 -45l-24 -35q-65 40 -136 40q-60 0 -98 -25.5t-39 -72.5q0 -24 10.5 -40
t33.5 -25.5t43 -14t56 -9.5q35 -5 61 -13t53 -23t41.5 -41.5t14.5 -62.5z" />
    <glyph glyph-name="afii10103" unicode="&#x456;" horiz-adv-x="199" 
d="M124 648h-50v49h50v-49zM122 0h-44v496h44v-496z" />
    <glyph glyph-name="afii10104" unicode="&#x457;" horiz-adv-x="191" 
d="M215 608h-55v54h55v-54zM25 608h-54v54h54v-54zM119 0h-46v496h46v-496z" />
    <glyph glyph-name="afii10105" unicode="&#x458;" horiz-adv-x="218" 
d="M87 648v48h50v-48h-50zM-8 -205v39h17q39 0 60 24.5t21 68.5v568h45v-573q0 -57 -34 -92t-87 -35h-22z" />
    <glyph glyph-name="afii10106" unicode="&#x459;" horiz-adv-x="733" 
d="M384 495v-209h165q79 0 122 -41.5t43 -98.5q0 -72 -47 -109t-127 -37h-201l1 457h-182v-184q0 -132 -31 -194t-102 -92l-15 37q41 22 62 46.5t32 77t11 144.5v203h269zM670 144q0 42 -33.5 72.5t-91.5 30.5h-162v-208h160q56 0 91.5 26.5t35.5 78.5z" />
    <glyph glyph-name="afii10107" unicode="&#x45a;" horiz-adv-x="740" 
d="M665 144q0 42 -33 72.5t-91 30.5h-162v-208h160q55 0 90.5 26.5t35.5 78.5zM335 495h44v-208h165q79 0 122.5 -42t43.5 -99q0 -72 -47.5 -109t-126.5 -37h-201v248h-231v-248h-44v495h44v-208h231v208z" />
    <glyph glyph-name="afii10108" unicode="&#x45b;" horiz-adv-x="508" 
d="M13 587v37h60v99h43v-99h234v-37h-234v-187h2q23 44 68.5 67t92.5 23q83 0 128 -44t45 -124v-322h-43v307q0 142 -139 142q-65 0 -109.5 -45t-44.5 -114v-290h-43v587h-60z" />
    <glyph glyph-name="afii10109" unicode="&#x45c;" horiz-adv-x="467" 
d="M220 563l-27 12l78 154l49 -19zM109 0h-44v495h44v-225h133q71 0 96 75l47 150h42l-44 -143q-13 -40 -29 -63.5t-42 -30.5q32 -8 48.5 -31t28.5 -66l48 -161h-45l-45 155q-13 46 -36.5 62.5t-61.5 16.5h-140v-234z" />
    <glyph glyph-name="afii10110" unicode="&#x45e;" horiz-adv-x="419" 
d="M197 -111q-15 -44 -45.5 -66.5t-68.5 -22.5h-21v39h20q26 0 47.5 18.5t31.5 52.5q18 56 28 84q-35 93 -98 264t-87 236h49l84 -233q13 -35 36.5 -105t36.5 -105h2q11 31 79 225.5t76 217.5h46zM214 601q75 0 89 73h38q-6 -45 -37.5 -78t-89.5 -33t-90.5 34t-36.5 77h39
q5 -32 30.5 -52.5t57.5 -20.5z" />
    <glyph glyph-name="afii10193" unicode="&#x45f;" horiz-adv-x="504" 
d="M398 496h44v-496h-167v-132h-47v132h-166v496h43v-457h293v457z" />
    <glyph glyph-name="afii10050" unicode="&#x490;" horiz-adv-x="507" 
d="M501 812v-159h-374v-653h-48v696h377v116h45z" />
    <glyph glyph-name="afii10098" unicode="&#x491;" horiz-adv-x="400" 
d="M398 598v-143h-295v-455h-45v495h297v103h43z" />
    <glyph glyph-name="schwacyrillic" unicode="&#x4d9;" horiz-adv-x="474" 
d="M44 253h353q2 93 -38.5 151.5t-131.5 58.5q-63 0 -119 -41l-27 30q61 49 144 49q33 0 61 -6t57 -23t49.5 -44t33.5 -73t13 -106q0 -72 -17.5 -124.5t-48 -79.5t-63.5 -39.5t-70 -12.5q-94 0 -145 63t-51 163v34zM90 217q3 -92 42 -138.5t107 -46.5q71 0 112 48.5
t45 136.5h-306z" />
    <glyph glyph-name="Wgrave" unicode="&#x1e80;" horiz-adv-x="809" 
d="M790 696l-171 -696h-43l-105 376q-9 33 -32 113.5t-35 124.5h-1l-169 -614h-44q-114 464 -170 696h48q15 -66 45 -192.5t44 -185.5l56 -239h2q39 149 65 239l105 378h40q17 -59 52 -186t54 -194l66 -237h1l54 236l89 381h49zM427 751l-20 -22l-151 93l35 37z" />
    <glyph glyph-name="wgrave" unicode="&#x1e81;" horiz-adv-x="703" 
d="M694 494l-155 -494h-44q-16 47 -45.5 135t-42.5 126l-57 166q-8 -24 -27 -80.5t-29 -85.5q-58 -174 -88 -261h-44l-154 494h48l80 -271l48 -160h2l53 159q6 18 39.5 118t50.5 154h44q50 -151 89 -271l53 -162h3l48 163l80 270h48zM376 575l-28 -12l-99 147l48 19z" />
    <glyph glyph-name="Wacute" unicode="&#x1e82;" horiz-adv-x="809" 
d="M790 696l-171 -696h-43l-105 376q-9 33 -32 113.5t-35 124.5h-1l-169 -614h-44q-114 464 -170 696h48q15 -66 45 -192.5t44 -185.5l56 -239h2q39 149 65 239l105 378h40q17 -59 52 -186t54 -194l66 -237h1l54 236l89 381h49zM405 729l-20 22l136 108l35 -37z" />
    <glyph glyph-name="wacute" unicode="&#x1e83;" horiz-adv-x="703" 
d="M694 494l-155 -494h-44q-16 47 -45.5 135t-42.5 126l-57 166q-8 -24 -27 -80.5t-29 -85.5q-58 -174 -88 -261h-44l-154 494h48l80 -271l48 -160h2l53 159q6 18 39.5 118t50.5 154h44q50 -151 89 -271l53 -162h3l48 163l80 270h48zM355 563l-27 12l78 154l49 -19z" />
    <glyph glyph-name="Wdieresis" unicode="&#x1e84;" horiz-adv-x="809" 
d="M790 696l-171 -696h-43l-105 376q-9 33 -32 113.5t-35 124.5h-1l-169 -614h-44q-114 464 -170 696h48q15 -66 45 -192.5t44 -185.5l56 -239h2q39 149 65 239l105 378h40q17 -59 52 -186t54 -194l66 -237h1l54 236l89 381h49zM343 759h-55v53h55v-53zM521 759h-54v53h54
v-53z" />
    <glyph glyph-name="wdieresis" unicode="&#x1e85;" horiz-adv-x="703" 
d="M694 494l-155 -494h-44q-16 47 -45.5 135t-42.5 126l-57 166q-8 -24 -27 -80.5t-29 -85.5q-58 -174 -88 -261h-44l-154 494h48l80 -271l48 -160h2l53 159q6 18 39.5 118t50.5 154h44q50 -151 89 -271l53 -162h3l48 163l80 270h48zM471 608h-55v54h55v-54zM281 608h-54v54
h54v-54z" />
    <glyph glyph-name="Ygrave" unicode="&#x1ef2;" horiz-adv-x="475" 
d="M259 288v-288h-44v288l-209 408h49q63 -121 182 -365q33 65 73 148q74 144 109 217h48q-70 -136 -208 -408zM273 751l-20 -22l-151 93l35 37z" />
    <glyph glyph-name="ygrave" unicode="&#x1ef3;" horiz-adv-x="419" 
d="M197 -111q-15 -44 -45.5 -66.5t-68.5 -22.5h-21v39h20q26 0 47.5 18.5t31.5 52.5q18 56 28 84q-35 93 -98 264t-87 236h49l84 -233q13 -35 36.5 -105t36.5 -105h2q11 31 79 225.5t76 217.5h46zM243 575l-28 -12l-99 147l48 19z" />
    <glyph glyph-name="uni1F00" unicode="&#x1f00;" horiz-adv-x="500" 
d="M437 0h-43v90h-2q-49 -94 -151 -94q-52 0 -89.5 21t-58 57.5t-29.5 77.5t-9 90q0 75 16.5 130.5t60 92.5t112.5 37q105 0 148 -91h2v84h43v-495zM394 250q0 37 -5.5 69.5t-20 67t-45 54.5t-75.5 20q-148 0 -148 -213q0 -212 148 -212q52 0 86 31.5t47 77.5t13 105z
M259 570l-24 12q25 45 25 74q0 44 -52 55l20 46q80 -19 80 -85q0 -52 -49 -102z" />
    <glyph glyph-name="uni1F01" unicode="&#x1f01;" horiz-adv-x="500" 
d="M437 0h-43v90h-2q-49 -94 -151 -94q-52 0 -89.5 21t-58 57.5t-29.5 77.5t-9 90q0 75 16.5 130.5t60 92.5t112.5 37q105 0 148 -91h2v84h43v-495zM394 250q0 37 -5.5 69.5t-20 67t-45 54.5t-75.5 20q-148 0 -148 -213q0 -212 148 -212q52 0 86 31.5t47 77.5t13 105z
M293 582l-24 -12q-50 50 -50 102q0 63 81 85q3 -8 9.5 -23t9.5 -23q-52 -13 -52 -55q0 -32 26 -74z" />
    <glyph glyph-name="uni1F02" unicode="&#x1f02;" horiz-adv-x="500" 
d="M437 0h-43v90h-2q-49 -94 -151 -94q-52 0 -89.5 21t-58 57.5t-29.5 77.5t-9 90q0 75 16.5 130.5t60 92.5t112.5 37q105 0 148 -91h2v84h43v-495zM394 250q0 37 -5.5 69.5t-20 67t-45 54.5t-75.5 20q-148 0 -148 -213q0 -212 148 -212q52 0 86 31.5t47 77.5t13 105z
M180 570l-24 13q25 42 25 73q0 43 -52 55l20 46q81 -19 81 -85q0 -52 -50 -102zM382 580l-26 -10l-114 176l58 11z" />
    <glyph glyph-name="uni1F03" unicode="&#x1f03;" horiz-adv-x="500" 
d="M437 0h-43v90h-2q-49 -94 -151 -94q-52 0 -89.5 21t-58 57.5t-29.5 77.5t-9 90q0 75 16.5 130.5t60 92.5t112.5 37q105 0 148 -91h2v84h43v-495zM394 250q0 37 -5.5 69.5t-20 67t-45 54.5t-75.5 20q-148 0 -148 -213q0 -212 148 -212q52 0 86 31.5t47 77.5t13 105z
M202 582l-24 -12q-50 50 -50 102q0 63 81 85q3 -8 9.5 -23t9.5 -23q-51 -13 -51 -53q0 -35 25 -76zM383 580l-26 -10l-113 176l58 11z" />
    <glyph glyph-name="uni1F04" unicode="&#x1f04;" horiz-adv-x="500" 
d="M437 0h-43v90h-2q-49 -94 -151 -94q-52 0 -89.5 21t-58 57.5t-29.5 77.5t-9 90q0 75 16.5 130.5t60 92.5t112.5 37q105 0 148 -91h2v84h43v-495zM394 250q0 37 -5.5 69.5t-20 67t-45 54.5t-75.5 20q-148 0 -148 -213q0 -212 148 -212q52 0 86 31.5t47 77.5t13 105z
M197 570l-24 12q25 45 25 74q0 42 -52 55l20 46q80 -20 80 -86q0 -52 -49 -101zM277 570l-26 10l89 177l57 -11z" />
    <glyph glyph-name="uni1F05" unicode="&#x1f05;" horiz-adv-x="500" 
d="M437 0h-43v90h-2q-49 -94 -151 -94q-52 0 -89.5 21t-58 57.5t-29.5 77.5t-9 90q0 75 16.5 130.5t60 92.5t112.5 37q105 0 148 -91h2v84h43v-495zM394 250q0 37 -5.5 69.5t-20 67t-45 54.5t-75.5 20q-148 0 -148 -213q0 -212 148 -212q52 0 86 31.5t47 77.5t13 105z
M224 582l-25 -12q-49 49 -49 101q0 66 81 86q3 -9 10 -25t9 -21q-52 -13 -52 -56q0 -32 26 -73zM277 570l-26 10l89 177l57 -11z" />
    <glyph glyph-name="uni1F06" unicode="&#x1f06;" horiz-adv-x="500" 
d="M55 242q0 116 44.5 188t144.5 72q105 0 149 -91l1 1v84h44v-496h-44v91h-1q-51 -96 -152 -96q-52 0 -89.5 21t-58 57.5t-29.5 78t-9 90.5zM101 248q0 -212 148 -212q52 0 86 31.5t46.5 77.5t12.5 105q0 212 -145 212q-148 0 -148 -214zM246 541l-22 8q27 40 27 68
q0 34 -51 46l18 41q77 -18 77 -71q0 -44 -49 -92zM314 721q-20 0 -64 20.5t-63 20.5q-32 0 -64 -38l-28 16q39 65 92 65q22 0 66 -21t60 -21q31 0 57 40l29 -17q-35 -65 -85 -65z" />
    <glyph glyph-name="uni1F07" unicode="&#x1f07;" horiz-adv-x="500" 
d="M55 242q0 116 44.5 188t144.5 72q105 0 149 -91l1 1v84h44v-496h-44v91h-1q-51 -96 -152 -96q-52 0 -89.5 21t-58 57.5t-29.5 78t-9 90.5zM101 248q0 -212 148 -212q52 0 86 31.5t46.5 77.5t12.5 105q0 212 -145 212q-148 0 -148 -214zM276 548l-22 -7q-49 48 -49 91
q0 54 77 72l18 -41q-51 -13 -51 -47q0 -27 27 -68zM326 721q-20 0 -64 20.5t-63 20.5q-32 0 -64 -38l-28 16q39 65 92 65q22 0 66 -21t60 -21q31 0 57 40l29 -17q-35 -65 -85 -65z" />
    <glyph glyph-name="uni1F08" unicode="&#x1f08;" horiz-adv-x="585" 
d="M519 0l-60 170h-335l-60 -170h-50l253 696h49q170 -464 254 -696h-51zM293 639h-3q-92 -265 -152 -428h307l-90 254q-42 116 -62 174zM45 514l-24 12q25 45 25 74q0 43 -51 55q7 18 19 46q80 -19 80 -85q0 -52 -49 -102z" />
    <glyph glyph-name="uni1F09" unicode="&#x1f09;" horiz-adv-x="585" 
d="M519 0l-60 170h-335l-60 -170h-50l253 696h49q170 -464 254 -696h-51zM293 639h-3q-92 -265 -152 -428h307l-90 254q-42 116 -62 174zM68 527l-24 -12q-49 49 -49 101q0 64 80 86q3 -8 9.5 -23t9.5 -23q-52 -13 -52 -55q0 -32 26 -74z" />
    <glyph glyph-name="uni1F0A" unicode="&#x1f0a;" horiz-adv-x="585" 
d="M519 0l-60 170h-335l-60 -170h-50l253 696h49q170 -464 254 -696h-51zM293 639h-3q-92 -265 -152 -428h307zM-85 514l-24 13q25 45 25 73q0 43 -52 55l20 46q80 -19 80 -85q0 -52 -49 -102zM115 524l-25 -10q-100 155 -113 176l57 11z" />
    <glyph glyph-name="uni1F0B" unicode="&#x1f0b;" horiz-adv-x="585" 
d="M519 0l-60 170h-335l-60 -170h-50l253 696h49q170 -464 254 -696h-51zM293 639h-3q-92 -265 -152 -428h307l-90 254q-42 116 -62 174zM-49 527l-24 -12q-49 49 -49 99q0 67 80 88l20 -46q-53 -14 -53 -53q0 -33 26 -76zM131 525l-25 -10q-100 155 -113 176l57 11z" />
    <glyph glyph-name="uni1F0C" unicode="&#x1f0c;" horiz-adv-x="585" 
d="M519 0l-60 170h-335l-60 -170h-50l253 696h49q170 -464 254 -696h-51zM293 639h-3q-92 -265 -152 -428h307l-90 254q-42 116 -62 174zM-86 513l-24 12q25 42 25 73q0 42 -51 56l19 46q81 -21 81 -86q0 -52 -50 -101zM-6 513l-26 10l89 177l56 -11q-106 -157 -119 -176z
" />
    <glyph glyph-name="uni1F0D" unicode="&#x1f0d;" horiz-adv-x="585" 
d="M519 0l-60 170h-335l-60 -170h-50l253 696h49q170 -464 254 -696h-51zM293 639h-3q-92 -265 -152 -428h307l-90 254q-42 116 -62 174zM-57 527l-24 -12q-49 49 -49 101q0 66 80 86l20 -46q-53 -14 -53 -54q0 -31 26 -75zM-4 515l-25 10q58 118 88 177l57 -11
q-12 -17 -54.5 -79.5t-65.5 -96.5z" />
    <glyph glyph-name="uni1F0E" unicode="&#x1f0e;" horiz-adv-x="585" 
d="M519 0l-60 170h-335l-60 -170h-50l253 696h49q170 -464 254 -696h-51zM293 639h-3q-92 -265 -152 -428h307l-90 254q-42 116 -62 174zM58 611q-20 0 -64 20.5t-63 20.5q-32 0 -64 -38l-28 16q39 65 92 65q22 0 66 -21t60 -21q31 0 57 40l29 -17q-35 -65 -85 -65zM-10 431
l-22 8q27 40 27 68q0 34 -51 46l18 41q77 -18 77 -71q0 -44 -49 -92z" />
    <glyph glyph-name="uni1F0F" unicode="&#x1f0f;" horiz-adv-x="585" 
d="M519 0l-60 170h-335l-60 -170h-50l253 696h49q170 -464 254 -696h-51zM293 639h-3q-92 -265 -152 -428h307l-90 254q-42 116 -62 174zM64 612q-20 0 -64 20.5t-63 20.5q-32 0 -64 -38l-28 16q39 65 92 65q22 0 66 -21t60 -21q31 0 57 40l29 -17q-35 -65 -85 -65zM14 439
l-22 -7q-49 48 -49 91q0 54 77 72l18 -41q-51 -13 -51 -47q0 -27 27 -68z" />
    <glyph glyph-name="uni1F10" unicode="&#x1f10;" horiz-adv-x="427" 
d="M144 261q-81 21 -81 107q0 54 45.5 93.5t134.5 39.5q92 0 156 -53q-1 -1 -28 -31q-24 19 -60 31t-68 12q-59 0 -97.5 -24.5t-38.5 -68.5q0 -43 32 -65.5t87 -22.5h64v-37h-67q-51 0 -89 -28.5t-38 -76.5q0 -49 43 -75t109 -26q31 0 67 11.5t61 31.5l26 -32
q-62 -51 -160 -51q-91 0 -140 39.5t-49 105.5q0 18 6 38t28.5 44.5t57.5 35.5q0 1 -0.5 1t-0.5 1zM249 570l-24 12q25 45 25 74q0 44 -52 55l20 46q80 -19 80 -85q0 -52 -49 -102z" />
    <glyph glyph-name="uni1F11" unicode="&#x1f11;" horiz-adv-x="427" 
d="M144 261q-81 21 -81 107q0 54 45.5 93.5t134.5 39.5q92 0 156 -53q-1 -1 -28 -31q-24 19 -60 31t-68 12q-59 0 -97.5 -24.5t-38.5 -68.5q0 -43 32 -65.5t87 -22.5h64v-37h-67q-51 0 -89 -28.5t-38 -76.5q0 -49 43 -75t109 -26q31 0 67 11.5t61 31.5l26 -32
q-62 -51 -160 -51q-91 0 -140 39.5t-49 105.5q0 18 6 38t28.5 44.5t57.5 35.5q0 1 -0.5 1t-0.5 1zM269 582l-24 -12q-50 50 -50 102q0 63 81 85q3 -8 9.5 -23t9.5 -23q-52 -13 -52 -55q0 -32 26 -74z" />
    <glyph glyph-name="uni1F12" unicode="&#x1f12;" horiz-adv-x="427" 
d="M144 261q-81 21 -81 107q0 54 45.5 93.5t134.5 39.5q92 0 156 -53q-1 -1 -28 -31q-24 19 -60 31t-68 12q-59 0 -97.5 -24.5t-38.5 -68.5q0 -43 32 -65.5t87 -22.5h64v-37h-67q-51 0 -89 -28.5t-38 -76.5q0 -49 43 -75t109 -26q31 0 67 11.5t61 31.5l26 -32
q-62 -51 -160 -51q-91 0 -140 39.5t-49 105.5q0 18 6 38t28.5 44.5t57.5 35.5q0 1 -0.5 1t-0.5 1zM146 570l-24 13q25 42 25 73q0 43 -52 55l20 46q81 -19 81 -85q0 -52 -50 -102zM348 580l-26 -10l-114 176l58 11z" />
    <glyph glyph-name="uni1F13" unicode="&#x1f13;" horiz-adv-x="427" 
d="M144 261q-81 21 -81 107q0 54 45.5 93.5t134.5 39.5q92 0 156 -53q-1 -1 -28 -31q-24 19 -60 31t-68 12q-59 0 -97.5 -24.5t-38.5 -68.5q0 -43 32 -65.5t87 -22.5h64v-37h-67q-51 0 -89 -28.5t-38 -76.5q0 -49 43 -75t109 -26q31 0 67 11.5t61 31.5l26 -32
q-62 -51 -160 -51q-91 0 -140 39.5t-49 105.5q0 18 6 38t28.5 44.5t57.5 35.5q0 1 -0.5 1t-0.5 1zM167 582l-24 -12q-50 50 -50 102q0 63 81 85q3 -8 9.5 -23t9.5 -23q-51 -13 -51 -53q0 -35 25 -76zM348 580l-26 -10l-113 176l58 11z" />
    <glyph glyph-name="uni1F14" unicode="&#x1f14;" horiz-adv-x="427" 
d="M144 261q-81 21 -81 107q0 54 45.5 93.5t134.5 39.5q92 0 156 -53q-1 -1 -28 -31q-24 19 -60 31t-68 12q-59 0 -97.5 -24.5t-38.5 -68.5q0 -43 32 -65.5t87 -22.5h64v-37h-67q-51 0 -89 -28.5t-38 -76.5q0 -49 43 -75t109 -26q31 0 67 11.5t61 31.5l26 -32
q-62 -51 -160 -51q-91 0 -140 39.5t-49 105.5q0 18 6 38t28.5 44.5t57.5 35.5q0 1 -0.5 1t-0.5 1zM191 570l-25 12q26 42 26 72q0 43 -52 57q2 5 9 21t10 25q81 -20 81 -86q0 -52 -49 -101zM270 570l-26 10l90 177l57 -11z" />
    <glyph glyph-name="uni1F15" unicode="&#x1f15;" horiz-adv-x="427" 
d="M144 261q-81 21 -81 107q0 54 45.5 93.5t134.5 39.5q92 0 156 -53q-1 -1 -28 -31q-24 19 -60 31t-68 12q-59 0 -97.5 -24.5t-38.5 -68.5q0 -43 32 -65.5t87 -22.5h64v-37h-67q-51 0 -89 -28.5t-38 -76.5q0 -49 43 -75t109 -26q31 0 67 11.5t61 31.5l26 -32
q-62 -51 -160 -51q-91 0 -140 39.5t-49 105.5q0 18 6 38t28.5 44.5t57.5 35.5q0 1 -0.5 1t-0.5 1zM230 582l-24 -12q-49 49 -49 101q0 66 80 86l20 -46q-52 -13 -52 -54q0 -33 25 -75zM283 570l-26 10l90 177l57 -11z" />
    <glyph glyph-name="uni1F18" unicode="&#x1f18;" horiz-adv-x="528" 
d="M78 0v696h422v-43h-375v-280h320v-41h-320v-290h375v-42h-422zM-60 520l-24 12q26 45 26 73q0 43 -52 56q3 8 9.5 23t9.5 23q38 -9 59.5 -31.5t21.5 -53.5q0 -52 -50 -102z" />
    <glyph glyph-name="uni1F19" unicode="&#x1f19;" horiz-adv-x="528" 
d="M78 0v696h422v-43h-375v-280h320v-41h-320v-290h375v-42h-422zM-25 532l-24 -12q-50 50 -50 102q0 63 81 85q12 -28 19 -46q-52 -14 -52 -53q0 -33 26 -76z" />
    <glyph glyph-name="uni1F1A" unicode="&#x1f1a;" horiz-adv-x="528" 
d="M78 0v696h422v-43h-375v-280h320v-41h-320v-290h375v-42h-422zM-191 520l-24 13q25 42 25 73q0 42 -51 55q10 27 19 46q38 -9 59.5 -31.5t21.5 -53.5q0 -52 -50 -102zM10 530q-5 -2 -13.5 -5.5t-11.5 -4.5l-114 176l58 11q9 -20 25.5 -56t30 -65.5t25.5 -55.5z" />
    <glyph glyph-name="uni1F1B" unicode="&#x1f1b;" horiz-adv-x="528" 
d="M78 0v696h422v-43h-375v-280h320v-41h-320v-290h375v-42h-422zM-173 532l-24 -12q-49 50 -49 102q0 65 80 85l20 -46q-53 -14 -53 -53q0 -30 26 -76zM8 530l-25 -10l-114 176l58 11q9 -20 25.5 -56t30 -65.5t25.5 -55.5z" />
    <glyph glyph-name="uni1F1C" unicode="&#x1f1c;" horiz-adv-x="528" 
d="M78 0v696h422v-43h-375v-280h320v-41h-320v-290h375v-42h-422zM-190 520l-24 12q25 45 25 74q0 42 -52 55l20 46q80 -20 80 -86q0 -52 -49 -101zM-110 520l-26 10l89 177l56 -11q-20 -29 -60 -88t-59 -88z" />
    <glyph glyph-name="uni1F1D" unicode="&#x1f1d;" horiz-adv-x="528" 
d="M78 0v696h422v-43h-375v-280h320v-41h-320v-290h375v-42h-422zM-175 520q-49 49 -49 101q0 66 80 86l20 -46q-52 -13 -52 -55q0 -29 25 -74zM-103 520l-26 10l89 177l56 -11q-19 -29 -59 -88t-60 -88z" />
    <glyph glyph-name="uni1F20" unicode="&#x1f20;" horiz-adv-x="508" 
d="M399 0v317q0 67 -40.5 104t-105.5 37q-64 0 -105 -43t-41 -112v-303h-44v496h44v-82h2q22 44 64.5 65t89.5 21q78 0 129 -45.5t51 -122.5v-332h-44zM247 570l-24 12q25 45 25 74q0 44 -52 55l20 46q80 -19 80 -85q0 -52 -49 -102z" />
    <glyph glyph-name="uni1F21" unicode="&#x1f21;" horiz-adv-x="508" 
d="M399 0v317q0 67 -40.5 104t-105.5 37q-64 0 -105 -43t-41 -112v-303h-44v496h44v-82h2q22 44 64.5 65t89.5 21q78 0 129 -45.5t51 -122.5v-332h-44zM274 582l-24 -12q-50 50 -50 102q0 63 81 85q3 -8 9.5 -23t9.5 -23q-52 -13 -52 -55q0 -32 26 -74z" />
    <glyph glyph-name="uni1F22" unicode="&#x1f22;" horiz-adv-x="508" 
d="M399 0v317q0 67 -40.5 104t-105.5 37q-64 0 -105 -43t-41 -112v-303h-44v496h44v-82h2q22 44 64.5 65t89.5 21q78 0 129 -45.5t51 -122.5v-332h-44zM160 570l-24 13q25 45 25 73q0 44 -52 55l20 46q80 -19 80 -85q0 -52 -49 -102zM361 580l-26 -10l-113 176l58 11z" />
    <glyph glyph-name="uni1F23" unicode="&#x1f23;" horiz-adv-x="508" 
d="M399 0v317q0 67 -40.5 104t-105.5 37q-64 0 -105 -43t-41 -112v-303h-44v496h44v-82h2q22 44 64.5 65t89.5 21q78 0 129 -45.5t51 -122.5v-332h-44zM183 582l-24 -12q-50 50 -50 102q0 63 81 85q3 -8 9.5 -23t9.5 -23q-52 -13 -52 -55q0 -32 26 -74zM364 580l-26 -10
l-113 176l58 11z" />
    <glyph glyph-name="uni1F24" unicode="&#x1f24;" horiz-adv-x="508" 
d="M399 0v317q0 67 -40.5 104t-105.5 37q-64 0 -105 -43t-41 -112v-303h-44v496h44v-82h2q22 44 64.5 65t89.5 21q78 0 129 -45.5t51 -122.5v-332h-44zM205 570l-25 12q26 42 26 72q0 43 -52 57q2 5 9 21t10 25q81 -20 81 -86q0 -52 -49 -101zM284 570l-26 10l90 177l57 -11
z" />
    <glyph glyph-name="uni1F25" unicode="&#x1f25;" horiz-adv-x="508" 
d="M399 0v317q0 67 -40.5 104t-105.5 37q-64 0 -105 -43t-41 -112v-303h-44v496h44v-82h2q22 44 64.5 65t89.5 21q78 0 129 -45.5t51 -122.5v-332h-44zM231 582l-24 -12q-49 49 -49 101q0 66 80 86l20 -46q-52 -13 -52 -54q0 -35 25 -75zM284 570l-26 10l90 177l57 -11z" />
    <glyph glyph-name="uni1F26" unicode="&#x1f26;" horiz-adv-x="508" 
d="M443 0h-43v317q0 142 -140 142q-65 0 -109 -44.5t-44 -114.5v-300h-43v495h43v-85h2q23 44 68 67t92 23q83 0 128.5 -44t45.5 -124v-332zM234 541l-22 8q27 40 27 68q0 34 -51 46l18 41q77 -18 77 -71q0 -44 -49 -92zM302 721q-20 0 -64 20.5t-63 20.5q-32 0 -64 -38
l-28 16q39 65 92 65q22 0 66 -21t60 -21q31 0 57 40l29 -17q-35 -65 -85 -65z" />
    <glyph glyph-name="uni1F27" unicode="&#x1f27;" horiz-adv-x="508" 
d="M443 0h-43v317q0 142 -140 142q-65 0 -109 -44.5t-44 -114.5v-300h-43v495h43v-85h2q23 44 68 67t92 23q83 0 128.5 -44t45.5 -124v-332zM263 547l-22 -7q-49 48 -49 91q0 54 77 72l18 -41q-51 -13 -51 -47q0 -27 27 -68zM313 720q-20 0 -64 20.5t-63 20.5q-32 0 -64 -38
l-28 16q39 65 92 65q22 0 66 -21t60 -21q31 0 57 40l29 -17q-35 -65 -85 -65z" />
    <glyph glyph-name="uni1F28" unicode="&#x1f28;" horiz-adv-x="625" 
d="M499 0v332h-374v-332h-47v696h47v-323h374v323h46v-696h-46zM-46 520l-24 12q25 45 25 74q0 43 -52 55l20 46q79 -20 79 -86q0 -52 -48 -101z" />
    <glyph glyph-name="uni1F29" unicode="&#x1f29;" horiz-adv-x="625" 
d="M499 0v332h-374v-332h-47v696h47v-323h374v323h46v-696h-46zM-23 532l-24 -12q-50 50 -50 102q0 63 81 85q13 -29 18 -46q-51 -14 -51 -53q0 -33 26 -76z" />
    <glyph glyph-name="uni1F2A" unicode="&#x1f2a;" horiz-adv-x="625" 
d="M499 0v332h-374v-332h-47v696h47v-323h374v323h46v-696h-46zM-188 520l-24 13q25 45 25 73q0 43 -52 55l20 46q80 -19 80 -85q0 -52 -49 -102zM12 530q-17 -8 -25 -10l-113 176l58 11q54 -118 80 -177z" />
    <glyph glyph-name="uni1F2B" unicode="&#x1f2b;" horiz-adv-x="625" 
d="M499 0v332h-374v-332h-47v696h47v-323h374v323h46v-696h-46zM-190 520q-49 50 -49 102q0 66 80 85l20 -46q-52 -12 -52 -55q0 -28 25 -73zM12 530q-17 -8 -25 -10l-113 176l58 11q54 -118 80 -177z" />
    <glyph glyph-name="uni1F2C" unicode="&#x1f2c;" horiz-adv-x="625" 
d="M499 0v332h-374v-332h-47v696h47v-323h374v323h46v-696h-46zM-176 520l-24 13q25 45 25 73q0 43 -52 55l20 46q80 -19 80 -85q0 -52 -49 -102zM-114 530q26 59 80 177l58 -11l-113 -176q-8 2 -25 10z" />
    <glyph glyph-name="uni1F2D" unicode="&#x1f2d;" horiz-adv-x="625" 
d="M499 0v332h-374v-332h-47v696h47v-323h374v323h46v-696h-46zM-178 520q-49 50 -49 102q0 66 80 85l20 -46q-52 -12 -52 -55q0 -28 25 -73zM-114 530q26 59 80 177l58 -11l-113 -176q-8 2 -25 10z" />
    <glyph glyph-name="uni1F2E" unicode="&#x1f2e;" horiz-adv-x="625" 
d="M546 0h-47v332h-374v-332h-46v696h46v-322h374v322h47v-696zM-134 432l-22 8q27 40 27 68q0 34 -51 46l18 41q77 -18 77 -71q0 -44 -49 -92zM-66 612q-20 0 -64 20.5t-63 20.5q-32 0 -64 -38l-28 16q39 65 92 65q22 0 66 -21t60 -21q31 0 57 40l29 -17q-35 -65 -85 -65z
" />
    <glyph glyph-name="uni1F2F" unicode="&#x1f2f;" horiz-adv-x="625" 
d="M546 0h-47v332h-374v-332h-46v696h46v-322h374v322h47v-696zM-118 439l-22 -7q-49 48 -49 91q0 54 77 72l18 -41q-51 -13 -51 -47q0 -27 27 -68zM-68 612q-20 0 -64 20.5t-63 20.5q-32 0 -64 -38l-28 16q39 65 92 65q22 0 66 -21t60 -21q31 0 57 40l29 -17
q-35 -65 -85 -65z" />
    <glyph glyph-name="uni1F30" unicode="&#x1f30;" horiz-adv-x="206" 
d="M168 36v-38h-15q-44 0 -61.5 22.5t-17.5 69.5v404h43v-406q0 -30 10.5 -41t36.5 -11h4zM102 570l-24 12q25 45 25 74q0 44 -52 55l20 46q80 -19 80 -85q0 -52 -49 -102z" />
    <glyph glyph-name="uni1F31" unicode="&#x1f31;" horiz-adv-x="206" 
d="M168 36v-38h-15q-44 0 -61.5 22.5t-17.5 69.5v404h43v-406q0 -30 10.5 -41t36.5 -11h4zM125 582l-24 -12q-50 50 -50 102q0 63 81 85q3 -8 9.5 -23t9.5 -23q-52 -13 -52 -55q0 -32 26 -74z" />
    <glyph glyph-name="uni1F32" unicode="&#x1f32;" horiz-adv-x="206" 
d="M168 36v-38h-15q-44 0 -61.5 22.5t-17.5 69.5v404h43v-406q0 -30 10.5 -41t36.5 -11h4zM14 570l-24 13q25 42 25 73q0 43 -52 55l20 46q81 -19 81 -85q0 -52 -50 -102zM216 580l-26 -10l-114 176l58 11z" />
    <glyph glyph-name="uni1F33" unicode="&#x1f33;" horiz-adv-x="206" 
d="M168 36v-38h-15q-44 0 -61.5 22.5t-17.5 69.5v404h43v-406q0 -30 10.5 -41t36.5 -11h4zM35 584l-24 -12q-50 50 -50 102q0 63 81 85q3 -8 9.5 -23t9.5 -23q-51 -13 -51 -53q0 -35 25 -76zM216 582l-26 -10l-113 176l58 11z" />
    <glyph glyph-name="uni1F34" unicode="&#x1f34;" horiz-adv-x="206" 
d="M168 36v-38h-15q-44 0 -61.5 22.5t-17.5 69.5v404h43v-406q0 -30 10.5 -41t36.5 -11h4zM35 570l-24 12q25 45 25 74q0 42 -52 55l20 46q80 -20 80 -86q0 -52 -49 -101zM115 570l-26 10l89 177l57 -11z" />
    <glyph glyph-name="uni1F35" unicode="&#x1f35;" horiz-adv-x="206" 
d="M168 36v-38h-15q-44 0 -61.5 22.5t-17.5 69.5v404h43v-406q0 -30 10.5 -41t36.5 -11h4zM71 582l-25 -12q-49 49 -49 101q0 66 81 86q3 -9 10 -25t9 -21q-52 -13 -52 -56q0 -32 26 -73zM124 570l-26 10l89 177l57 -11z" />
    <glyph glyph-name="uni1F36" unicode="&#x1f36;" horiz-adv-x="206" 
d="M168 36v-38h-15q-44 0 -61.5 22.5t-17.5 69.5v404h43v-406q0 -30 10.5 -41t36.5 -11h4zM102 541l-22 8q27 40 27 68q0 34 -51 46l18 41q77 -18 77 -71q0 -44 -49 -92zM170 721q-20 0 -64 20.5t-63 20.5q-32 0 -64 -38l-28 16q39 65 92 65q22 0 66 -21t60 -21q31 0 57 40
l29 -17q-35 -65 -85 -65z" />
    <glyph glyph-name="uni1F37" unicode="&#x1f37;" horiz-adv-x="206" 
d="M168 36v-38h-15q-44 0 -61.5 22.5t-17.5 69.5v404h43v-406q0 -30 10.5 -41t36.5 -11h4zM123 548l-22 -7q-49 48 -49 91q0 54 77 72l18 -41q-51 -13 -51 -47q0 -27 27 -68zM173 721q-20 0 -64 20.5t-63 20.5q-32 0 -64 -38l-28 16q39 65 92 65q22 0 66 -21t60 -21
q31 0 57 40l29 -17q-35 -65 -85 -65z" />
    <glyph glyph-name="uni1F38" unicode="&#x1f38;" horiz-adv-x="212" 
d="M82 0v696h47v-696h-47zM-48 520l-25 12q26 45 26 73q0 43 -52 56q3 8 9.5 23t9.5 23q80 -20 80 -86q0 -52 -48 -101z" />
    <glyph glyph-name="uni1F39" unicode="&#x1f39;" horiz-adv-x="212" 
d="M82 0v696h47v-696h-47zM-23 532l-25 -12q-49 50 -49 102q0 65 81 85q2 -5 8.5 -21t9.5 -25q-51 -13 -51 -55q0 -32 26 -74z" />
    <glyph glyph-name="uni1F3A" unicode="&#x1f3a;" horiz-adv-x="212" 
d="M82 0v696h47v-696h-47zM-199 520l-24 13q26 45 26 72q0 43 -52 56q3 9 10 25t9 21q38 -9 59.5 -31.5t21.5 -53.5q0 -52 -50 -102zM2 530l-25 -10l-114 176l59 11q54 -118 80 -177z" />
    <glyph glyph-name="uni1F3B" unicode="&#x1f3b;" horiz-adv-x="212" 
d="M82 0v696h47v-696h-47zM-178 520q-50 50 -50 102q0 31 21.5 53.5t59.5 31.5q2 -5 9 -21t10 -25q-52 -13 -52 -56q0 -27 26 -72zM23 530l-25 -10l-114 176l59 11q54 -118 80 -177z" />
    <glyph glyph-name="uni1F3C" unicode="&#x1f3c;" horiz-adv-x="212" 
d="M82 0v696h47v-696h-47zM-179 520l-24 13q26 45 26 72q0 43 -52 56q3 9 10 25t9 21q38 -9 59.5 -31.5t21.5 -53.5q0 -52 -50 -102zM-118 530q26 59 80 177l59 -11l-114 -176z" />
    <glyph glyph-name="uni1F3D" unicode="&#x1f3d;" horiz-adv-x="212" 
d="M82 0v696h47v-696h-47zM-179 520q-50 50 -50 102q0 31 21.5 53.5t59.5 31.5q2 -5 9 -21t10 -25q-52 -13 -52 -56q0 -27 26 -72zM-118 530q26 59 80 177l59 -11l-114 -176z" />
    <glyph glyph-name="uni1F3E" unicode="&#x1f3e;" horiz-adv-x="212" 
d="M129 0h-46v696h46v-696zM-121 431l-22 8q27 40 27 68q0 34 -51 46l18 41q77 -18 77 -71q0 -44 -49 -92zM-53 611q-20 0 -64 20.5t-63 20.5q-32 0 -64 -38l-28 16q39 65 92 65q22 0 66 -21t60 -21q31 0 57 40l29 -17q-35 -65 -85 -65z" />
    <glyph glyph-name="uni1F3F" unicode="&#x1f3f;" horiz-adv-x="212" 
d="M129 0h-46v696h46v-696zM-109 438l-22 -7q-49 48 -49 91q0 54 77 72l18 -41q-51 -13 -51 -47q0 -27 27 -68zM-59 611q-20 0 -64 20.5t-63 20.5q-32 0 -64 -38l-28 16q39 65 92 65q22 0 66 -21t60 -21q31 0 57 40l29 -17q-35 -65 -85 -65z" />
    <glyph glyph-name="uni1F40" unicode="&#x1f40;" horiz-adv-x="489" 
d="M249 501q108 0 160 -80q35 -56 35 -177q0 -119 -49 -182q-53 -68 -154 -68q-92 0 -142 56q-55 63 -55 199q0 121 54 185q56 67 151 67zM247 462q-72 0 -116 -56q-43 -55 -43 -159q0 -107 43 -162q41 -52 113 -52q77 0 119 61q37 53 37 151q0 101 -27 147q-41 70 -126 70z
M252 570l-24 12q25 45 25 74q0 44 -52 55l20 46q80 -19 80 -85q0 -52 -49 -102z" />
    <glyph glyph-name="uni1F41" unicode="&#x1f41;" horiz-adv-x="489" 
d="M249 501q108 0 160 -80q35 -56 35 -177q0 -119 -49 -182q-53 -68 -154 -68q-92 0 -142 56q-55 63 -55 199q0 121 54 185q56 67 151 67zM247 462q-72 0 -116 -56q-43 -55 -43 -159q0 -107 43 -162q41 -52 113 -52q77 0 119 61q37 53 37 151q0 101 -27 147q-41 70 -126 70z
M283 582l-24 -12q-50 50 -50 102q0 63 81 85q3 -8 9.5 -23t9.5 -23q-52 -13 -52 -55q0 -32 26 -74z" />
    <glyph glyph-name="uni1F42" unicode="&#x1f42;" horiz-adv-x="489" 
d="M249 501q108 0 160 -80q35 -56 35 -177q0 -119 -49 -182q-53 -68 -154 -68q-92 0 -142 56q-55 63 -55 199q0 121 54 185q56 67 151 67zM247 462q-72 0 -116 -56q-43 -55 -43 -159q0 -107 43 -162q41 -52 113 -52q77 0 119 61q37 53 37 151q0 101 -27 147q-41 70 -126 70z
M165 570l-24 13q25 42 25 73q0 43 -52 55l20 46q81 -19 81 -85q0 -52 -50 -102zM367 580l-26 -10l-114 176l58 11z" />
    <glyph glyph-name="uni1F43" unicode="&#x1f43;" horiz-adv-x="489" 
d="M249 501q108 0 160 -80q35 -56 35 -177q0 -119 -49 -182q-53 -68 -154 -68q-92 0 -142 56q-55 63 -55 199q0 121 54 185q56 67 151 67zM247 462q-72 0 -116 -56q-43 -55 -43 -159q0 -107 43 -162q41 -52 113 -52q77 0 119 61q37 53 37 151q0 101 -27 147q-41 70 -126 70z
M198 582l-24 -12q-50 50 -50 102q0 63 81 85q3 -8 9.5 -23t9.5 -23q-51 -13 -51 -53q0 -35 25 -76zM379 580l-26 -10l-113 176l58 11z" />
    <glyph glyph-name="uni1F44" unicode="&#x1f44;" horiz-adv-x="489" 
d="M249 501q108 0 160 -80q35 -56 35 -177q0 -119 -49 -182q-53 -68 -154 -68q-92 0 -142 56q-55 63 -55 199q0 121 54 185q56 67 151 67zM247 462q-72 0 -116 -56q-43 -55 -43 -159q0 -107 43 -162q41 -52 113 -52q77 0 119 61q37 53 37 151q0 101 -27 147q-41 70 -126 70z
M213 570l-25 12q26 42 26 72q0 43 -52 57q2 5 9 21t10 25q81 -20 81 -86q0 -52 -49 -101zM292 570l-26 10l90 177l57 -11z" />
    <glyph glyph-name="uni1F45" unicode="&#x1f45;" horiz-adv-x="489" 
d="M249 501q108 0 160 -80q35 -56 35 -177q0 -119 -49 -182q-53 -68 -154 -68q-92 0 -142 56q-55 63 -55 199q0 121 54 185q56 67 151 67zM247 462q-72 0 -116 -56q-43 -55 -43 -159q0 -107 43 -162q41 -52 113 -52q77 0 119 61q37 53 37 151q0 101 -27 147q-41 70 -126 70z
M233 582l-24 -12q-49 49 -49 101q0 66 80 86l20 -46q-52 -13 -52 -54q0 -35 25 -75zM286 570l-26 10l90 177l57 -11z" />
    <glyph glyph-name="uni1F48" unicode="&#x1f48;" horiz-adv-x="571" 
d="M285 701q110 0 174 -69t64 -179v-208q0 -116 -64 -183.5t-174 -67.5q-118 0 -179 71t-61 180v208q0 106 62.5 177t177.5 71zM286 656q-93 0 -143.5 -58.5t-50.5 -146.5v-207q0 -88 50.5 -148t143.5 -60q87 0 138 59t51 153v203q0 89 -51 147t-138 58zM-47 520l-25 12
q26 45 26 73q0 43 -52 56q3 8 9.5 23t9.5 23q80 -20 80 -86q0 -52 -48 -101z" />
    <glyph glyph-name="uni1F49" unicode="&#x1f49;" horiz-adv-x="571" 
d="M285 701q110 0 174 -69t64 -179v-208q0 -116 -64 -183.5t-174 -67.5q-118 0 -179 71t-61 180v208q0 106 62.5 177t177.5 71zM286 656q-93 0 -143.5 -58.5t-50.5 -146.5v-207q0 -88 50.5 -148t143.5 -60q87 0 138 59t51 153v203q0 89 -51 147t-138 58zM-21 532l-24 -12
q-50 50 -50 102q0 63 81 85q2 -5 8.5 -21t9.5 -25q-51 -14 -51 -53q0 -33 26 -76z" />
    <glyph glyph-name="uni1F4A" unicode="&#x1f4a;" horiz-adv-x="571" 
d="M285 701q110 0 174 -69t64 -179v-208q0 -116 -64 -183.5t-174 -67.5q-118 0 -179 71t-61 180v208q0 106 62.5 177t177.5 71zM286 656q-93 0 -143.5 -58.5t-50.5 -146.5v-207q0 -88 50.5 -148t143.5 -60q87 0 138 59t51 153v203q0 89 -51 147t-138 58zM-198 520l-24 13
q26 45 26 72q0 43 -52 56q3 9 10 25t9 21q38 -9 59.5 -31.5t21.5 -53.5q0 -52 -50 -102zM3 530l-25 -10l-114 176l59 11q13 -30 40 -89t40 -88z" />
    <glyph glyph-name="uni1F4B" unicode="&#x1f4b;" horiz-adv-x="571" 
d="M285 701q110 0 174 -69t64 -179v-208q0 -116 -64 -183.5t-174 -67.5q-118 0 -179 71t-61 180v208q0 106 62.5 177t177.5 71zM286 656q-93 0 -143.5 -58.5t-50.5 -146.5v-207q0 -88 50.5 -148t143.5 -60q87 0 138 59t51 153v203q0 89 -51 147t-138 58zM-198 520
q-50 50 -50 102q0 31 21.5 53.5t59.5 31.5q2 -5 9 -21t10 -25q-52 -13 -52 -56q0 -27 26 -72zM3 530l-25 -10l-114 176l59 11q13 -30 40 -89t40 -88z" />
    <glyph glyph-name="uni1F4C" unicode="&#x1f4c;" horiz-adv-x="571" 
d="M285 701q110 0 174 -69t64 -179v-208q0 -116 -64 -183.5t-174 -67.5q-118 0 -179 71t-61 180v208q0 106 62.5 177t177.5 71zM286 656q-93 0 -143.5 -58.5t-50.5 -146.5v-207q0 -88 50.5 -148t143.5 -60q87 0 138 59t51 153v203q0 89 -51 147t-138 58zM-187 520l-25 12
q26 45 26 72q0 43 -52 57q9 19 19 46q81 -20 81 -86q0 -52 -49 -101zM-108 520l-25 10l89 177l56 -11q-23 -34 -65.5 -96.5t-54.5 -79.5z" />
    <glyph glyph-name="uni1F4D" unicode="&#x1f4d;" horiz-adv-x="571" 
d="M285 701q110 0 174 -69t64 -179v-208q0 -116 -64 -183.5t-174 -67.5q-118 0 -179 71t-61 180v208q0 106 62.5 177t177.5 71zM286 656q-93 0 -143.5 -58.5t-50.5 -146.5v-207q0 -88 50.5 -148t143.5 -60q87 0 138 59t51 153v203q0 89 -51 147t-138 58zM-160 532l-24 -12
q-49 49 -49 101q0 66 80 86l20 -46q-53 -14 -53 -54q0 -31 26 -75zM-107 520l-25 10l89 177l56 -11q-23 -34 -65.5 -96.5t-54.5 -79.5z" />
    <glyph glyph-name="uni1F50" unicode="&#x1f50;" horiz-adv-x="522" 
d="M260 -6q-85 0 -137 50.5t-52 130.5v320h43v-302q0 -72 39.5 -115.5t107.5 -43.5t107.5 40.5t39.5 108.5v312h43v-317q0 -88 -52 -136t-139 -48zM252 570l-24 12q25 42 25 74q0 44 -52 55l20 46q80 -19 80 -85q0 -52 -49 -102z" />
    <glyph glyph-name="uni1F51" unicode="&#x1f51;" horiz-adv-x="522" 
d="M260 -6q-85 0 -137 50.5t-52 130.5v320h43v-302q0 -72 39.5 -115.5t107.5 -43.5t107.5 40.5t39.5 108.5v312h43v-317q0 -88 -52 -136t-139 -48zM290 582l-24 -12q-50 50 -50 102q0 63 81 85q3 -8 9.5 -23t9.5 -23q-52 -13 -52 -55q0 -32 26 -74z" />
    <glyph glyph-name="uni1F52" unicode="&#x1f52;" horiz-adv-x="522" 
d="M260 -6q-85 0 -137 50.5t-52 130.5v320h43v-302q0 -72 39.5 -115.5t107.5 -43.5t107.5 40.5t39.5 108.5v312h43v-317q0 -88 -52 -136t-139 -48zM175 570l-24 13q25 42 25 73q0 43 -52 55l20 46q81 -19 81 -85q0 -52 -50 -102zM377 580l-26 -10l-114 176l58 11z" />
    <glyph glyph-name="uni1F53" unicode="&#x1f53;" horiz-adv-x="522" 
d="M260 -6q-85 0 -137 50.5t-52 130.5v320h43v-302q0 -72 39.5 -115.5t107.5 -43.5t107.5 40.5t39.5 108.5v312h43v-317q0 -88 -52 -136t-139 -48zM215 582l-25 -12q-49 50 -49 102q0 65 81 85q7 -18 19 -46q-52 -13 -52 -55q0 -32 26 -74zM396 580l-26 -10
q-100 155 -113 176l58 11z" />
    <glyph glyph-name="uni1F54" unicode="&#x1f54;" horiz-adv-x="522" 
d="M260 -6q-85 0 -137 50.5t-52 130.5v320h43v-302q0 -72 39.5 -115.5t107.5 -43.5t107.5 40.5t39.5 108.5v312h43v-317q0 -88 -52 -136t-139 -48zM230 570l-24 12q25 45 25 74q0 42 -52 55l20 46q80 -20 80 -86q0 -52 -49 -101zM310 570l-26 10l89 177l57 -11z" />
    <glyph glyph-name="uni1F55" unicode="&#x1f55;" horiz-adv-x="522" 
d="M260 -6q-85 0 -137 50.5t-52 130.5v320h43v-302q0 -72 39.5 -115.5t107.5 -43.5t107.5 40.5t39.5 108.5v312h43v-317q0 -88 -52 -136t-139 -48zM252 582l-24 -12q-50 49 -50 101q0 65 81 86q3 -9 10 -25t9 -21q-51 -13 -51 -54q0 -35 25 -75zM305 570l-26 10l89 177
l57 -11z" />
    <glyph glyph-name="uni1F56" unicode="&#x1f56;" horiz-adv-x="522" 
d="M452 495v-317q0 -88 -52 -136.5t-139 -48.5q-85 0 -137.5 51t-52.5 132v319h43v-302q0 -71 40 -115t108 -44t107 40.5t39 109.5v311h44zM253 541l-22 8q27 40 27 68q0 34 -51 46l18 41q77 -18 77 -71q0 -44 -49 -92zM321 721q-20 0 -64 20.5t-63 20.5q-32 0 -64 -38
l-28 16q39 65 92 65q22 0 66 -21t60 -21q31 0 57 40l29 -17q-35 -65 -85 -65z" />
    <glyph glyph-name="uni1F57" unicode="&#x1f57;" horiz-adv-x="522" 
d="M452 495v-317q0 -88 -52 -136.5t-139 -48.5q-85 0 -137.5 51t-52.5 132v319h43v-302q0 -71 40 -115t108 -44t107 40.5t39 109.5v311h44zM274 548l-22 -7q-49 48 -49 91q0 54 77 72l18 -41q-51 -13 -51 -47q0 -27 27 -68zM324 721q-20 0 -64 20.5t-63 20.5q-32 0 -64 -38
l-28 16q39 65 92 65q22 0 66 -21t60 -21q31 0 57 40l29 -17q-35 -65 -85 -65z" />
    <glyph glyph-name="uni1F59" unicode="&#x1f59;" horiz-adv-x="475" 
d="M259 288v-288h-44v288l-209 408h49q63 -121 182 -365q33 65 73 148q74 144 109 217h48q-70 -136 -208 -408zM-64 532l-24 -12q-49 50 -49 102q0 65 80 85l20 -46q-53 -14 -53 -53q0 -30 26 -76z" />
    <glyph glyph-name="uni1F5B" unicode="&#x1f5b;" horiz-adv-x="475" 
d="M259 288v-288h-44v288l-209 408h49q63 -121 182 -365q33 65 73 148q74 144 109 217h48q-70 -136 -208 -408zM-198 520q-50 50 -50 102q0 31 21.5 53.5t59.5 31.5q2 -5 9 -21t10 -25q-52 -13 -52 -56q0 -27 26 -72zM3 530l-25 -10l-114 176l59 11q13 -30 40 -89t40 -88z
" />
    <glyph glyph-name="uni1F5D" unicode="&#x1f5d;" horiz-adv-x="475" 
d="M259 288v-288h-44v288l-209 408h49q63 -121 182 -365q33 65 73 148q74 144 109 217h48q-70 -136 -208 -408zM-208 532l-24 -12q-49 49 -49 101q0 66 80 86l20 -46q-53 -14 -53 -54q0 -31 26 -75zM-155 520l-25 10l89 177l57 -11z" />
    <glyph glyph-name="uni1F5F" unicode="&#x1f5f;" horiz-adv-x="475" 
d="M259 288v-288h-44v288l-209 408h49q63 -121 182 -365q33 65 73 148q74 144 109 217h48q-70 -136 -208 -408zM-108 613q-20 0 -64 20.5t-63 20.5q-32 0 -64 -38l-28 16q39 65 92 65q22 0 66 -21t60 -21q31 0 57 40l29 -17q-35 -65 -85 -65zM-158 440l-22 -7q-49 48 -49 91
q0 54 77 72l18 -41q-51 -13 -51 -47q0 -27 27 -68z" />
    <glyph glyph-name="uni1F60" unicode="&#x1f60;" horiz-adv-x="758" 
d="M537 -5q-117 0 -157 100q-48 -101 -156 -101q-54 0 -90.5 20t-55 57.5t-25.5 79t-7 97.5q0 68 12.5 116.5t49 85.5t97.5 47l5 -41q-28 -5 -48.5 -17t-33.5 -31t-21 -39t-11.5 -49t-4.5 -51.5t-1 -56.5q0 -77 33.5 -128t100.5 -51q61 0 96.5 44t35.5 102v190h43v-190
q0 -58 36.5 -101.5t102.5 -43.5q74 0 103.5 54.5t29.5 159.5q0 87 -25.5 142t-94.5 67l5 41q61 -9 98 -46.5t49.5 -86t12.5 -116.5q0 -55 -7 -97t-25.5 -79.5t-55.5 -57.5t-91 -20zM373 570l-24 12q25 42 25 74q0 43 -52 55l20 46q80 -19 80 -85q0 -52 -49 -102z" />
    <glyph glyph-name="uni1F61" unicode="&#x1f61;" horiz-adv-x="758" 
d="M537 -5q-117 0 -157 100q-48 -101 -156 -101q-54 0 -90.5 20t-55 57.5t-25.5 79t-7 97.5q0 68 12.5 116.5t49 85.5t97.5 47l5 -41q-28 -5 -48.5 -17t-33.5 -31t-21 -39t-11.5 -49t-4.5 -51.5t-1 -56.5q0 -77 33.5 -128t100.5 -51q61 0 96.5 44t35.5 102v190h43v-190
q0 -58 36.5 -101.5t102.5 -43.5q74 0 103.5 54.5t29.5 159.5q0 87 -25.5 142t-94.5 67l5 41q61 -9 98 -46.5t49.5 -86t12.5 -116.5q0 -55 -7 -97t-25.5 -79.5t-55.5 -57.5t-91 -20zM409 582l-24 -12q-49 50 -49 102q0 65 80 85l20 -46q-52 -13 -52 -53q0 -35 25 -76z" />
    <glyph glyph-name="uni1F62" unicode="&#x1f62;" horiz-adv-x="758" 
d="M537 -5q-117 0 -157 100q-48 -101 -156 -101q-54 0 -90.5 20t-55 57.5t-25.5 79t-7 97.5q0 68 12.5 116.5t49 85.5t97.5 47l5 -41q-28 -5 -48.5 -17t-33.5 -31t-21 -39t-11.5 -49t-4.5 -51.5t-1 -56.5q0 -77 33.5 -128t100.5 -51q61 0 96.5 44t35.5 102v190h43v-190
q0 -58 36.5 -101.5t102.5 -43.5q74 0 103.5 54.5t29.5 159.5q0 87 -25.5 142t-94.5 67l5 41q61 -9 98 -46.5t49.5 -86t12.5 -116.5q0 -55 -7 -97t-25.5 -79.5t-55.5 -57.5t-91 -20zM298 570l-24 13q25 42 25 73q0 43 -52 55l20 46q81 -19 81 -85q0 -52 -50 -102zM500 580
l-26 -10l-114 176l58 11z" />
    <glyph glyph-name="uni1F63" unicode="&#x1f63;" horiz-adv-x="758" 
d="M537 -5q-117 0 -157 100q-48 -101 -156 -101q-54 0 -90.5 20t-55 57.5t-25.5 79t-7 97.5q0 68 12.5 116.5t49 85.5t97.5 47l5 -41q-28 -5 -48.5 -17t-33.5 -31t-21 -39t-11.5 -49t-4.5 -51.5t-1 -56.5q0 -77 33.5 -128t100.5 -51q61 0 96.5 44t35.5 102v190h43v-190
q0 -58 36.5 -101.5t102.5 -43.5q74 0 103.5 54.5t29.5 159.5q0 87 -25.5 142t-94.5 67l5 41q61 -9 98 -46.5t49.5 -86t12.5 -116.5q0 -55 -7 -97t-25.5 -79.5t-55.5 -57.5t-91 -20zM322 582l-24 -12q-49 50 -49 102q0 65 80 85l20 -46q-52 -13 -52 -53q0 -35 25 -76z
M504 580l-26 -10l-114 176l58 11z" />
    <glyph glyph-name="uni1F64" unicode="&#x1f64;" horiz-adv-x="758" 
d="M537 -5q-117 0 -157 100q-48 -101 -156 -101q-54 0 -90.5 20t-55 57.5t-25.5 79t-7 97.5q0 68 12.5 116.5t49 85.5t97.5 47l5 -41q-28 -5 -48.5 -17t-33.5 -31t-21 -39t-11.5 -49t-4.5 -51.5t-1 -56.5q0 -77 33.5 -128t100.5 -51q61 0 96.5 44t35.5 102v190h43v-190
q0 -58 36.5 -101.5t102.5 -43.5q74 0 103.5 54.5t29.5 159.5q0 87 -25.5 142t-94.5 67l5 41q61 -9 98 -46.5t49.5 -86t12.5 -116.5q0 -55 -7 -97t-25.5 -79.5t-55.5 -57.5t-91 -20zM347 570l-25 12q26 42 26 72q0 5 -2 13q-5 32 -50 44q2 5 9 21t10 25q81 -20 81 -86
q0 -52 -49 -101zM426 570l-26 10l90 177l57 -11z" />
    <glyph glyph-name="uni1F65" unicode="&#x1f65;" horiz-adv-x="758" 
d="M537 -5q-117 0 -157 100q-48 -101 -156 -101q-54 0 -90.5 20t-55 57.5t-25.5 79t-7 97.5q0 68 12.5 116.5t49 85.5t97.5 47l5 -41q-28 -5 -48.5 -17t-33.5 -31t-21 -39t-11.5 -49t-4.5 -51.5t-1 -56.5q0 -77 33.5 -128t100.5 -51q61 0 96.5 44t35.5 102v190h43v-190
q0 -58 36.5 -101.5t102.5 -43.5q74 0 103.5 54.5t29.5 159.5q0 87 -25.5 142t-94.5 67l5 41q61 -9 98 -46.5t49.5 -86t12.5 -116.5q0 -55 -7 -97t-25.5 -79.5t-55.5 -57.5t-91 -20zM369 582l-24 -12q-49 49 -49 101q0 66 80 86l20 -46q-52 -13 -52 -54q0 -33 25 -75z
M422 570l-26 10l90 177l57 -11z" />
    <glyph glyph-name="uni1F66" unicode="&#x1f66;" horiz-adv-x="737" 
d="M533 457l8 41q155 -21 155 -252q0 -119 -44.5 -185t-134.5 -66q-112 0 -149 101q-45 -102 -146 -102q-179 0 -179 253q0 225 157 250l7 -41q-120 -23 -120 -210q0 -212 135 -212q58 0 90 43.5t32 102.5v189h44v-189q0 -59 33.5 -102t95.5 -43q66 0 100 55t34 156
q0 191 -118 211zM370 541l-22 8q27 40 27 68q0 34 -51 46l18 41q77 -18 77 -71q0 -44 -49 -92zM438 721q-20 0 -64 20.5t-63 20.5q-32 0 -64 -38l-28 16q39 65 92 65q22 0 66 -21t60 -21q31 0 57 40l29 -17q-35 -65 -85 -65z" />
    <glyph glyph-name="uni1F67" unicode="&#x1f67;" horiz-adv-x="737" 
d="M533 457l8 41q155 -21 155 -252q0 -119 -44.5 -185t-134.5 -66q-112 0 -149 101q-45 -102 -146 -102q-179 0 -179 253q0 225 157 250l7 -41q-120 -23 -120 -210q0 -212 135 -212q58 0 90 43.5t32 102.5v189h44v-189q0 -59 33.5 -102t95.5 -43q66 0 100 55t34 156
q0 191 -118 211zM381 548l-22 -7q-49 48 -49 91q0 54 77 72l18 -41q-51 -13 -51 -47q0 -27 27 -68zM431 721q-20 0 -64 20.5t-63 20.5q-32 0 -64 -38l-28 16q39 65 92 65q22 0 66 -21t60 -21q31 0 57 40l29 -17q-35 -65 -85 -65z" />
    <glyph glyph-name="uni1F68" unicode="&#x1f68;" horiz-adv-x="566" 
d="M147 42q-105 54 -105 215v196q0 106 62.5 177t177.5 71q110 0 174 -69t64 -179v-196q0 -154 -102 -214l1 -1h117v-42h-191v51q60 19 93.5 74t33.5 131v195q0 90 -50.5 148t-138.5 58q-94 0 -144 -58.5t-50 -147.5v-195q0 -71 33.5 -128.5t95.5 -77.5v-50h-191v42h120z
M-47 520l-25 12q26 45 26 73q0 43 -52 56q3 8 9.5 23t9.5 23q80 -20 80 -86q0 -52 -48 -101z" />
    <glyph glyph-name="uni1F69" unicode="&#x1f69;" horiz-adv-x="566" 
d="M147 42q-105 54 -105 215v196q0 106 62.5 177t177.5 71q110 0 174 -69t64 -179v-196q0 -154 -102 -214l1 -1h117v-42h-191v51q60 19 93.5 74t33.5 131v195q0 90 -50.5 148t-138.5 58q-94 0 -144 -58.5t-50 -147.5v-195q0 -71 33.5 -128.5t95.5 -77.5v-50h-191v42h120z
M-22 532l-25 -12q-49 50 -49 102q0 65 81 85q2 -5 8.5 -21t9.5 -25q-51 -13 -51 -55q0 -32 26 -74z" />
    <glyph glyph-name="uni1F6A" unicode="&#x1f6a;" horiz-adv-x="566" 
d="M147 42q-105 54 -105 215v196q0 106 62.5 177t177.5 71q110 0 174 -69t64 -179v-196q0 -154 -102 -214l1 -1h117v-42h-191v51q60 19 93.5 74t33.5 131v195q0 90 -50.5 148t-138.5 58q-94 0 -144 -58.5t-50 -147.5v-195q0 -71 33.5 -128.5t95.5 -77.5v-50h-191v42h120z
M-199 520l-24 13q25 42 25 73q0 43 -52 55l20 46q80 -19 80 -85q0 -52 -49 -102zM1 530l-24 -10l-114 176l58 11q54 -118 80 -177z" />
    <glyph glyph-name="uni1F6B" unicode="&#x1f6b;" horiz-adv-x="566" 
d="M147 42q-105 54 -105 215v196q0 106 62.5 177t177.5 71q110 0 174 -69t64 -179v-196q0 -154 -102 -214l1 -1h117v-42h-191v51q60 19 93.5 74t33.5 131v195q0 90 -50.5 148t-138.5 58q-94 0 -144 -58.5t-50 -147.5v-195q0 -71 33.5 -128.5t95.5 -77.5v-50h-191v42h120z
M-198 520q-50 50 -50 102q0 31 21.5 53.5t59.5 31.5q2 -5 9 -21t10 -25q-52 -13 -52 -56q0 -27 26 -72zM3 530l-25 -10l-114 176l59 11q13 -30 40 -89t40 -88z" />
    <glyph glyph-name="uni1F6C" unicode="&#x1f6c;" horiz-adv-x="566" 
d="M147 42q-105 54 -105 215v196q0 106 62.5 177t177.5 71q110 0 174 -69t64 -179v-196q0 -154 -102 -214l1 -1h117v-42h-191v51q60 19 93.5 74t33.5 131v195q0 90 -50.5 148t-138.5 58q-94 0 -144 -58.5t-50 -147.5v-195q0 -71 33.5 -128.5t95.5 -77.5v-50h-191v42h120z
M-184 520l-24 12q25 45 25 74q0 42 -52 55l20 46q80 -20 80 -86q0 -52 -49 -101zM-104 520l-26 10l89 177l56 -11q-13 -19 -119 -176z" />
    <glyph glyph-name="uni1F6D" unicode="&#x1f6d;" horiz-adv-x="566" 
d="M147 42q-105 54 -105 215v196q0 106 62.5 177t177.5 71q110 0 174 -69t64 -179v-196q0 -154 -102 -214l1 -1h117v-42h-191v51q60 19 93.5 74t33.5 131v195q0 90 -50.5 148t-138.5 58q-94 0 -144 -58.5t-50 -147.5v-195q0 -71 33.5 -128.5t95.5 -77.5v-50h-191v42h120z
M-155 532l-24 -12q-49 49 -49 101q0 66 80 86l20 -46q-53 -14 -53 -54q0 -31 26 -75zM-102 520l-25 10l89 177l56 -11q-23 -34 -65.5 -96.5t-54.5 -79.5z" />
    <glyph glyph-name="uni1F6E" unicode="&#x1f6e;" horiz-adv-x="566" 
d="M147 42q-48 22 -76.5 81.5t-28.5 133.5v196q0 106 62.5 177t177.5 71q110 0 174 -69t64 -179v-196q0 -154 -102 -214l1 -1h117v-42h-191v51q60 19 93.5 74t33.5 131v195q0 90 -50.5 148t-138.5 58q-94 0 -144 -58.5t-50 -147.5v-195q0 -71 33.5 -128.5t95.5 -77.5v-50
h-191v42h120zM-128 430l-22 8q27 40 27 68q0 34 -51 46l18 41q77 -18 77 -71q0 -44 -49 -92zM-60 610q-20 0 -64 20.5t-63 20.5q-32 0 -64 -38l-28 16q39 65 92 65q22 0 66 -21t60 -21q31 0 57 40l29 -17q-35 -65 -85 -65z" />
    <glyph glyph-name="uni1F6F" unicode="&#x1f6f;" horiz-adv-x="566" 
d="M147 42q-48 22 -76.5 81.5t-28.5 133.5v196q0 106 62.5 177t177.5 71q110 0 174 -69t64 -179v-196q0 -154 -102 -214l1 -1h117v-42h-191v51q60 19 93.5 74t33.5 131v195q0 90 -50.5 148t-138.5 58q-94 0 -144 -58.5t-50 -147.5v-195q0 -71 33.5 -128.5t95.5 -77.5v-50
h-191v42h120zM-115 438l-22 -7q-49 48 -49 91q0 54 77 72l18 -41q-51 -13 -51 -47q0 -27 27 -68zM-65 611q-20 0 -64 20.5t-63 20.5q-32 0 -64 -38l-28 16q39 65 92 65q22 0 66 -21t60 -21q31 0 57 40l29 -17q-35 -65 -85 -65z" />
    <glyph glyph-name="uni1F70" unicode="&#x1f70;" horiz-adv-x="500" 
d="M55 242q0 116 44.5 188t144.5 72q105 0 149 -91l1 1v84h44v-496h-44v91h-1q-51 -96 -152 -96q-52 0 -89.5 21t-58 57.5t-29.5 78t-9 90.5zM101 248q0 -212 148 -212q52 0 86 31.5t46.5 77.5t12.5 105q0 212 -145 212q-148 0 -148 -214zM256 571l-114 172l58 12l82 -175z
" />
    <glyph glyph-name="uni1F71" unicode="&#x1f71;" horiz-adv-x="500" 
d="M55 242q0 116 44.5 188t144.5 72q105 0 149 -91l1 1v84h44v-496h-44v91h-1q-51 -96 -152 -96q-52 0 -89.5 21t-58 57.5t-29.5 78t-9 90.5zM101 248q0 -212 148 -212q52 0 86 31.5t46.5 77.5t12.5 105q0 212 -145 212q-148 0 -148 -214zM378 743l-121 -172l-26 9l90 175z
" />
    <glyph glyph-name="uni1F72" unicode="&#x1f72;" horiz-adv-x="427" 
d="M145 259v2q-81 22 -81 107q0 54 45.5 93.5t134.5 39.5q92 0 155 -52l-27 -32q-56 44 -129 44q-59 0 -97.5 -25t-38.5 -69q0 -42 32 -64.5t88 -22.5h64v-37h-67q-51 0 -89 -29t-38 -76q0 -49 43 -75.5t109 -26.5q31 0 67 12t60 31l27 -32q-63 -51 -160 -51
q-92 0 -141 39.5t-49 105.5q0 31 21 66.5t71 51.5zM239 571l-114 172l59 12l81 -175z" />
    <glyph glyph-name="uni1F73" unicode="&#x1f73;" horiz-adv-x="427" 
d="M145 259v2q-81 22 -81 107q0 54 45.5 93.5t134.5 39.5q92 0 155 -52l-27 -32q-56 44 -129 44q-59 0 -97.5 -25t-38.5 -69q0 -42 32 -64.5t88 -22.5h64v-37h-67q-51 0 -89 -29t-38 -76q0 -49 43 -75.5t109 -26.5q31 0 67 12t60 31l27 -32q-63 -51 -160 -51
q-92 0 -141 39.5t-49 105.5q0 31 21 66.5t71 51.5zM351 743l-120 -172l-26 9l89 175z" />
    <glyph glyph-name="uni1F74" unicode="&#x1f74;" horiz-adv-x="508" 
d="M443 0h-44v317q0 67 -40.5 104.5t-104.5 37.5t-105.5 -43.5t-41.5 -112.5v-303h-43v496h43v-81h2q45 85 154 85q79 0 129.5 -45t50.5 -122v-333zM242 571l-113 172l58 12l81 -175z" />
    <glyph glyph-name="uni1F75" unicode="&#x1f75;" horiz-adv-x="508" 
d="M443 0h-44v317q0 67 -40.5 104.5t-104.5 37.5t-105.5 -43.5t-41.5 -112.5v-303h-43v496h43v-81h2q45 85 154 85q79 0 129.5 -45t50.5 -122v-333zM361 743l-120 -172l-26 9l89 175z" />
    <glyph glyph-name="uni1F76" unicode="&#x1f76;" horiz-adv-x="206" 
d="M95 571l-114 172l58 12l82 -175zM168 36v-38h-15q-44 0 -61.5 22.5t-17.5 69.5v404h43v-406q0 -30 10.5 -41t36.5 -11h4z" />
    <glyph glyph-name="uni1F77" unicode="&#x1f77;" horiz-adv-x="206" 
d="M221 743l-120 -172l-26 9l89 175zM168 36v-38h-15q-44 0 -61.5 22.5t-17.5 69.5v404h43v-406q0 -30 10.5 -41t36.5 -11h4z" />
    <glyph glyph-name="uni1F78" unicode="&#x1f78;" horiz-adv-x="489" 
d="M244 571l-114 172l58 12l82 -175zM249 501q108 0 160 -80q35 -56 35 -177q0 -119 -49 -182q-53 -68 -154 -68q-92 0 -142 56q-55 63 -55 199q0 121 54 185q56 67 151 67zM247 462q-72 0 -116 -56q-43 -55 -43 -159q0 -107 43 -162q41 -52 113 -52q77 0 119 61
q37 53 37 151q0 101 -27 147q-41 70 -126 70z" />
    <glyph glyph-name="uni1F79" unicode="&#x1f79;" horiz-adv-x="489" 
d="M367 743l-120 -172l-26 9l89 175zM249 501q108 0 160 -80q35 -56 35 -177q0 -119 -49 -182q-53 -68 -154 -68q-92 0 -142 56q-55 63 -55 199q0 121 54 185q56 67 151 67zM247 462q-72 0 -116 -56q-43 -55 -43 -159q0 -107 43 -162q41 -52 113 -52q77 0 119 61
q37 53 37 151q0 101 -27 147q-41 70 -126 70z" />
    <glyph glyph-name="uni1F7A" unicode="&#x1f7a;" horiz-adv-x="522" 
d="M452 495v-317q0 -88 -52 -136.5t-139 -48.5q-85 0 -137.5 51t-52.5 132v319h43v-302q0 -71 40 -115t108 -44t107 40.5t39 109.5v311h44zM258 571l-113 172l58 12l81 -175z" />
    <glyph glyph-name="uni1F7B" unicode="&#x1f7b;" horiz-adv-x="522" 
d="M452 495v-317q0 -88 -52 -136.5t-139 -48.5q-85 0 -137.5 51t-52.5 132v319h43v-302q0 -71 40 -115t108 -44t107 40.5t39 109.5v311h44zM371 743l-120 -172l-26 9l90 175z" />
    <glyph glyph-name="uni1F7C" unicode="&#x1f7c;" horiz-adv-x="758" 
d="M537 -5q-117 0 -157 100q-48 -101 -156 -101q-54 0 -90.5 20t-55 57.5t-25.5 79t-7 97.5q0 68 12.5 116.5t49 85.5t97.5 47l5 -41q-28 -5 -48.5 -17t-33.5 -31t-21 -39t-11.5 -49t-4.5 -51.5t-1 -56.5q0 -77 33.5 -128t100.5 -51q61 0 96.5 44t35.5 102v190h43v-190
q0 -58 36.5 -101.5t102.5 -43.5q74 0 103.5 54.5t29.5 159.5q0 87 -25.5 142t-94.5 67l5 41q61 -9 98 -46.5t49.5 -86t12.5 -116.5q0 -55 -7 -97t-25.5 -79.5t-55.5 -57.5t-91 -20zM401 580l-26 -10l-114 172l58 12z" />
    <glyph glyph-name="uni1F7D" unicode="&#x1f7d;" horiz-adv-x="758" 
d="M537 -5q-117 0 -157 100q-48 -101 -156 -101q-54 0 -90.5 20t-55 57.5t-25.5 79t-7 97.5q0 68 12.5 116.5t49 85.5t97.5 47l5 -41q-28 -5 -48.5 -17t-33.5 -31t-21 -39t-11.5 -49t-4.5 -51.5t-1 -56.5q0 -77 33.5 -128t100.5 -51q61 0 96.5 44t35.5 102v190h43v-190
q0 -58 36.5 -101.5t102.5 -43.5q74 0 103.5 54.5t29.5 159.5q0 87 -25.5 142t-94.5 67l5 41q61 -9 98 -46.5t49.5 -86t12.5 -116.5q0 -55 -7 -97t-25.5 -79.5t-55.5 -57.5t-91 -20zM380 570l-26 10l90 174l56 -12z" />
    <glyph glyph-name="uni1F80" unicode="&#x1f80;" horiz-adv-x="500" 
d="M437 0h-43v90h-2q-49 -94 -151 -94q-52 0 -89.5 21t-58 57.5t-29.5 77.5t-9 90q0 75 16.5 130.5t60 92.5t112.5 37q105 0 148 -91h2v84h43v-495zM394 250q0 37 -5.5 69.5t-20 67t-45 54.5t-75.5 20q-148 0 -148 -213q0 -212 148 -212q52 0 86 31.5t47 77.5t13 105z
M358 -254h-21q-98 0 -98 102v85h42v-67q0 -41 12.5 -62t52.5 -21h12v-37zM259 570l-24 12q25 45 25 74q0 44 -52 55l20 46q80 -19 80 -85q0 -52 -49 -102z" />
    <glyph glyph-name="uni1F81" unicode="&#x1f81;" horiz-adv-x="500" 
d="M437 0h-43v90h-2q-49 -94 -151 -94q-52 0 -89.5 21t-58 57.5t-29.5 77.5t-9 90q0 75 16.5 130.5t60 92.5t112.5 37q105 0 148 -91h2v84h43v-495zM394 250q0 37 -5.5 69.5t-20 67t-45 54.5t-75.5 20q-148 0 -148 -213q0 -212 148 -212q52 0 86 31.5t47 77.5t13 105z
M358 -254h-21q-98 0 -98 102v85h42v-67q0 -41 12.5 -62t52.5 -21h12v-37zM293 582l-24 -12q-50 50 -50 102q0 63 81 85q3 -8 9.5 -23t9.5 -23q-52 -13 -52 -55q0 -32 26 -74z" />
    <glyph glyph-name="uni1F82" unicode="&#x1f82;" horiz-adv-x="500" 
d="M437 0h-43v90h-2q-49 -94 -151 -94q-52 0 -89.5 21t-58 57.5t-29.5 77.5t-9 90q0 75 16.5 130.5t60 92.5t112.5 37q105 0 148 -91h2v84h43v-495zM394 250q0 37 -5.5 69.5t-20 67t-45 54.5t-75.5 20q-148 0 -148 -213q0 -212 148 -212q52 0 86 31.5t47 77.5t13 105z
M358 -254h-21q-98 0 -98 102v85h42v-67q0 -41 12.5 -62t52.5 -21h12v-37zM180 570l-24 13q25 42 25 73q0 43 -52 55l20 46q81 -19 81 -85q0 -52 -50 -102zM382 580l-26 -10l-114 176l58 11z" />
    <glyph glyph-name="uni1F83" unicode="&#x1f83;" horiz-adv-x="500" 
d="M437 0h-43v90h-2q-49 -94 -151 -94q-52 0 -89.5 21t-58 57.5t-29.5 77.5t-9 90q0 75 16.5 130.5t60 92.5t112.5 37q105 0 148 -91h2v84h43v-495zM394 250q0 37 -5.5 69.5t-20 67t-45 54.5t-75.5 20q-148 0 -148 -213q0 -212 148 -212q52 0 86 31.5t47 77.5t13 105z
M358 -254h-21q-98 0 -98 102v85h42v-67q0 -41 12.5 -62t52.5 -21h12v-37zM202 582l-24 -12q-50 50 -50 102q0 63 81 85q3 -8 9.5 -23t9.5 -23q-51 -13 -51 -53q0 -35 25 -76zM383 580l-26 -10l-113 176l58 11z" />
    <glyph glyph-name="uni1F84" unicode="&#x1f84;" horiz-adv-x="500" 
d="M437 0h-43v90h-2q-49 -94 -151 -94q-52 0 -89.5 21t-58 57.5t-29.5 77.5t-9 90q0 75 16.5 130.5t60 92.5t112.5 37q105 0 148 -91h2v84h43v-495zM394 250q0 37 -5.5 69.5t-20 67t-45 54.5t-75.5 20q-148 0 -148 -213q0 -212 148 -212q52 0 86 31.5t47 77.5t13 105z
M358 -254h-21q-98 0 -98 102v85h42v-67q0 -41 12.5 -62t52.5 -21h12v-37zM197 570l-24 12q25 45 25 74q0 42 -52 55l20 46q80 -20 80 -86q0 -52 -49 -101zM277 570l-26 10l89 177l57 -11z" />
    <glyph glyph-name="uni1F85" unicode="&#x1f85;" horiz-adv-x="500" 
d="M437 0h-43v90h-2q-49 -94 -151 -94q-52 0 -89.5 21t-58 57.5t-29.5 77.5t-9 90q0 75 16.5 130.5t60 92.5t112.5 37q105 0 148 -91h2v84h43v-495zM394 250q0 37 -5.5 69.5t-20 67t-45 54.5t-75.5 20q-148 0 -148 -213q0 -212 148 -212q52 0 86 31.5t47 77.5t13 105z
M358 -254h-21q-98 0 -98 102v85h42v-67q0 -41 12.5 -62t52.5 -21h12v-37zM224 582l-25 -12q-49 49 -49 101q0 66 81 86q3 -9 10 -25t9 -21q-52 -13 -52 -56q0 -32 26 -73zM277 570l-26 10l89 177l57 -11z" />
    <glyph glyph-name="uni1F86" unicode="&#x1f86;" horiz-adv-x="500" 
d="M55 242q0 116 44.5 188t144.5 72q105 0 149 -91l1 1v84h44v-496h-44v91h-1q-51 -96 -152 -96q-52 0 -89.5 21t-58 57.5t-29.5 78t-9 90.5zM101 248q0 -212 148 -212q52 0 86 31.5t46.5 77.5t12.5 105q0 212 -145 212q-148 0 -148 -214zM258 541l-22 8q27 40 27 68
q0 34 -51 46l18 41q77 -18 77 -71q0 -44 -49 -92zM326 721q-20 0 -64 20.5t-63 20.5q-32 0 -64 -38l-28 16q39 65 92 65q22 0 66 -21t60 -21q31 0 57 40l29 -17q-35 -65 -85 -65zM239 -67h43v-75q0 -36 13.5 -55.5t50.5 -19.5h13v-38h-22q-98 0 -98 103v85z" />
    <glyph glyph-name="uni1F87" unicode="&#x1f87;" horiz-adv-x="500" 
d="M55 242q0 116 44.5 188t144.5 72q105 0 149 -91l1 1v84h44v-496h-44v91h-1q-51 -96 -152 -96q-52 0 -89.5 21t-58 57.5t-29.5 78t-9 90.5zM101 248q0 -212 148 -212q52 0 86 31.5t46.5 77.5t12.5 105q0 212 -145 212q-148 0 -148 -214zM276 548l-22 -7q-49 48 -49 91
q0 54 77 72l18 -41q-51 -13 -51 -47q0 -27 27 -68zM326 721q-20 0 -64 20.5t-63 20.5q-32 0 -64 -38l-28 16q39 65 92 65q22 0 66 -21t60 -21q31 0 57 40l29 -17q-35 -65 -85 -65zM239 -67h43v-75q0 -36 13.5 -55.5t50.5 -19.5h13v-38h-22q-98 0 -98 103v85z" />
    <glyph glyph-name="uni1F88" unicode="&#x1f88;" horiz-adv-x="801" 
d="M519 0l-60 170h-335l-60 -170h-50l253 696h49q170 -464 254 -696h-51zM293 639h-3q-92 -265 -152 -428h307zM777 0h-22q-50 0 -78.5 26t-28.5 78v392h44v-350v-30t3.5 -27t11 -27.5t22.5 -16t37 -7.5h11v-38zM45 514l-24 12q25 45 25 74q0 43 -51 55q7 18 19 46
q80 -19 80 -85q0 -52 -49 -102z" />
    <glyph glyph-name="uni1F89" unicode="&#x1f89;" horiz-adv-x="801" 
d="M519 0l-60 170h-335l-60 -170h-50l253 696h49q170 -464 254 -696h-51zM293 639h-3q-92 -265 -152 -428h307zM777 0h-22q-50 0 -78.5 26t-28.5 78v392h44v-350v-30t3.5 -27t11 -27.5t22.5 -16t37 -7.5h11v-38zM68 527l-24 -12q-49 49 -49 101q0 64 80 86q3 -8 9.5 -23
t9.5 -23q-52 -13 -52 -55q0 -32 26 -74z" />
    <glyph glyph-name="uni1F8A" unicode="&#x1f8a;" horiz-adv-x="801" 
d="M519 0l-60 170h-335l-60 -170h-50l253 696h49q170 -464 254 -696h-51zM293 639h-3q-92 -265 -152 -428h307zM777 0h-22q-50 0 -78.5 26t-28.5 78v392h44v-350v-30t3.5 -27t11 -27.5t22.5 -16t37 -7.5h11v-38zM-85 514l-24 13q25 45 25 73q0 43 -52 55l20 46
q80 -19 80 -85q0 -52 -49 -102zM115 524l-25 -10q-100 155 -113 176l57 11z" />
    <glyph glyph-name="uni1F8B" unicode="&#x1f8b;" horiz-adv-x="801" 
d="M519 0l-60 170h-335l-60 -170h-50l253 696h49q170 -464 254 -696h-51zM293 639h-3q-92 -265 -152 -428h307zM777 0h-22q-50 0 -78.5 26t-28.5 78v392h44v-350v-30t3.5 -27t11 -27.5t22.5 -16t37 -7.5h11v-38zM-49 527l-24 -12q-49 49 -49 99q0 67 80 88l20 -46
q-53 -14 -53 -53q0 -33 26 -76zM131 525l-25 -10q-100 155 -113 176l57 11z" />
    <glyph glyph-name="uni1F8C" unicode="&#x1f8c;" horiz-adv-x="801" 
d="M519 0l-60 170h-335l-60 -170h-50l253 696h49q170 -464 254 -696h-51zM293 639h-3q-92 -265 -152 -428h307zM777 0h-22q-50 0 -78.5 26t-28.5 78v392h44v-350v-30t3.5 -27t11 -27.5t22.5 -16t37 -7.5h11v-38zM-86 513l-24 12q25 42 25 73q0 42 -51 56l19 46
q81 -21 81 -86q0 -52 -50 -101zM-6 513l-26 10l89 177l56 -11q-106 -157 -119 -176z" />
    <glyph glyph-name="uni1F8D" unicode="&#x1f8d;" horiz-adv-x="801" 
d="M519 0l-60 170h-335l-60 -170h-50l253 696h49q170 -464 254 -696h-51zM293 639h-3q-92 -265 -152 -428h307zM777 0h-22q-50 0 -78.5 26t-28.5 78v392h44v-350v-30t3.5 -27t11 -27.5t22.5 -16t37 -7.5h11v-38zM-57 527l-24 -12q-49 49 -49 101q0 66 80 86l20 -46
q-53 -14 -53 -54q0 -31 26 -75zM-4 515l-25 10q58 118 88 177l57 -11q-12 -17 -54.5 -79.5t-65.5 -96.5z" />
    <glyph glyph-name="uni1F8E" unicode="&#x1f8e;" horiz-adv-x="801" 
d="M519 0l-60 170h-335l-60 -170h-50l253 696h49q170 -464 254 -696h-51zM293 639h-3q-92 -265 -152 -428h307l-90 254q-42 116 -62 174zM777 0h-22q-50 0 -78.5 26t-28.5 78v392h44v-350v-30t3.5 -27t11 -27.5t22.5 -16t37 -7.5h11v-38zM52 611q-20 0 -64 20.5t-63 20.5
q-32 0 -64 -38l-28 16q39 65 92 65q22 0 66 -21t60 -21q31 0 57 40l29 -17q-35 -65 -85 -65zM-16 431l-22 8q27 40 27 68q0 34 -51 46l18 41q77 -18 77 -71q0 -44 -49 -92z" />
    <glyph glyph-name="uni1F8F" unicode="&#x1f8f;" horiz-adv-x="801" 
d="M519 0l-60 170h-335l-60 -170h-50l253 696h49q170 -464 254 -696h-51zM293 639h-3q-92 -265 -152 -428h307l-90 254q-42 116 -62 174zM777 0h-22q-50 0 -78.5 26t-28.5 78v392h44v-350v-30t3.5 -27t11 -27.5t22.5 -16t37 -7.5h11v-38zM47 612q-20 0 -64 20.5t-63 20.5
q-32 0 -64 -38l-28 16q39 65 92 65q22 0 66 -21t60 -21q31 0 57 40l29 -17q-35 -65 -85 -65zM-3 439l-22 -7q-49 48 -49 91q0 54 77 72l18 -41q-51 -13 -51 -47q0 -27 27 -68z" />
    <glyph glyph-name="uni1F90" unicode="&#x1f90;" horiz-adv-x="508" 
d="M399 0v317q0 67 -40.5 104t-105.5 37q-64 0 -105 -43t-41 -112v-303h-44v496h44v-82h2q22 44 64.5 65t89.5 21q78 0 129 -45.5t51 -122.5v-332h-44zM353 -254h-22q-97 0 -97 102v85h42v-67q0 -41 12 -62t52 -21h13v-37zM247 570l-24 12q25 45 25 74q0 44 -52 55l20 46
q80 -19 80 -85q0 -52 -49 -102z" />
    <glyph glyph-name="uni1F91" unicode="&#x1f91;" horiz-adv-x="508" 
d="M399 0v317q0 67 -40.5 104t-105.5 37q-64 0 -105 -43t-41 -112v-303h-44v496h44v-82h2q22 44 64.5 65t89.5 21q78 0 129 -45.5t51 -122.5v-332h-44zM353 -254h-22q-97 0 -97 102v85h42v-67q0 -41 12 -62t52 -21h13v-37zM274 582l-24 -12q-50 50 -50 102q0 63 81 85
q3 -8 9.5 -23t9.5 -23q-52 -13 -52 -55q0 -32 26 -74z" />
    <glyph glyph-name="uni1F92" unicode="&#x1f92;" horiz-adv-x="508" 
d="M399 0v317q0 67 -40.5 104t-105.5 37q-64 0 -105 -43t-41 -112v-303h-44v496h44v-82h2q22 44 64.5 65t89.5 21q78 0 129 -45.5t51 -122.5v-332h-44zM353 -254h-22q-97 0 -97 102v85h42v-67q0 -41 12 -62t52 -21h13v-37zM160 570l-24 13q25 45 25 73q0 44 -52 55l20 46
q80 -19 80 -85q0 -52 -49 -102zM361 580l-26 -10l-113 176l58 11z" />
    <glyph glyph-name="uni1F93" unicode="&#x1f93;" horiz-adv-x="508" 
d="M399 0v317q0 67 -40.5 104t-105.5 37q-64 0 -105 -43t-41 -112v-303h-44v496h44v-82h2q22 44 64.5 65t89.5 21q78 0 129 -45.5t51 -122.5v-332h-44zM353 -254h-22q-97 0 -97 102v85h42v-67q0 -41 12 -62t52 -21h13v-37zM183 582l-24 -12q-50 50 -50 102q0 63 81 85
q3 -8 9.5 -23t9.5 -23q-52 -13 -52 -55q0 -32 26 -74zM364 580l-26 -10l-113 176l58 11z" />
    <glyph glyph-name="uni1F94" unicode="&#x1f94;" horiz-adv-x="508" 
d="M399 0v317q0 67 -40.5 104t-105.5 37q-64 0 -105 -43t-41 -112v-303h-44v496h44v-82h2q22 44 64.5 65t89.5 21q78 0 129 -45.5t51 -122.5v-332h-44zM353 -254h-22q-97 0 -97 102v85h42v-67q0 -41 12 -62t52 -21h13v-37zM205 570l-25 12q26 42 26 72q0 43 -52 57q2 5 9 21
t10 25q81 -20 81 -86q0 -52 -49 -101zM284 570l-26 10l90 177l57 -11z" />
    <glyph glyph-name="uni1F95" unicode="&#x1f95;" horiz-adv-x="508" 
d="M399 0v317q0 67 -40.5 104t-105.5 37q-64 0 -105 -43t-41 -112v-303h-44v496h44v-82h2q22 44 64.5 65t89.5 21q78 0 129 -45.5t51 -122.5v-332h-44zM353 -254h-22q-97 0 -97 102v85h42v-67q0 -41 12 -62t52 -21h13v-37zM231 582l-24 -12q-49 49 -49 101q0 66 80 86
l20 -46q-52 -13 -52 -54q0 -35 25 -75zM284 570l-26 10l90 177l57 -11z" />
    <glyph glyph-name="uni1F96" unicode="&#x1f96;" horiz-adv-x="508" 
d="M443 0h-43v317q0 142 -140 142q-65 0 -109 -44.5t-44 -114.5v-300h-43v495h43v-85h2q23 44 68 67t92 23q83 0 128.5 -44t45.5 -124v-332zM236 541l-22 8q27 40 27 68q0 34 -51 46l18 41q77 -18 77 -71q0 -44 -49 -92zM304 721q-20 0 -64 20.5t-63 20.5q-32 0 -64 -38
l-28 16q39 65 92 65q22 0 66 -21t60 -21q31 0 57 40l29 -17q-35 -65 -85 -65zM239 -67h43v-75q0 -36 13.5 -55.5t50.5 -19.5h13v-38h-22q-98 0 -98 103v85z" />
    <glyph glyph-name="uni1F97" unicode="&#x1f97;" horiz-adv-x="508" 
d="M443 0h-43v317q0 142 -140 142q-65 0 -109 -44.5t-44 -114.5v-300h-43v495h43v-85h2q23 44 68 67t92 23q83 0 128.5 -44t45.5 -124v-332zM275 547l-22 -7q-49 48 -49 91q0 54 77 72l18 -41q-51 -13 -51 -47q0 -27 27 -68zM325 720q-20 0 -64 20.5t-63 20.5q-32 0 -64 -38
l-28 16q39 65 92 65q22 0 66 -21t60 -21q31 0 57 40l29 -17q-35 -65 -85 -65zM239 -67h43v-75q0 -36 13.5 -55.5t50.5 -19.5h13v-38h-22q-98 0 -98 103v85z" />
    <glyph glyph-name="uni1F98" unicode="&#x1f98;" horiz-adv-x="827" 
d="M499 0v332h-374v-332h-47v696h47v-323h374v323h46v-696h-46zM804 0h-23q-50 0 -78 26t-28 78v392h44v-350v-6q0 -24 1.5 -36.5t7.5 -30.5t22.5 -26.5t42.5 -8.5h11v-38zM-46 520l-24 12q25 45 25 74q0 43 -52 55l20 46q79 -20 79 -86q0 -52 -48 -101z" />
    <glyph glyph-name="uni1F99" unicode="&#x1f99;" horiz-adv-x="827" 
d="M804 0h-23q-50 0 -78 26t-28 78v392h44v-350v-6q0 -24 1.5 -36.5t7.5 -30.5t22.5 -26.5t42.5 -8.5h11v-38zM499 0v332h-374v-332h-47v696h47v-323h374v323h46v-696h-46zM-23 532l-24 -12q-50 50 -50 102q0 63 81 85q13 -29 18 -46q-51 -14 -51 -53q0 -33 26 -76z" />
    <glyph glyph-name="uni1F9A" unicode="&#x1f9a;" horiz-adv-x="827" 
d="M499 0v332h-374v-332h-47v696h47v-323h374v323h46v-696h-46zM804 0h-23q-50 0 -78 26t-28 78v392h44v-350v-6q0 -24 1.5 -36.5t7.5 -30.5t22.5 -26.5t42.5 -8.5h11v-38zM-198 520l-24 13q25 45 25 73q0 43 -52 55l20 46q80 -19 80 -85q0 -52 -49 -102zM2 530
q-18 -8 -25 -10l-113 176l58 11q54 -118 80 -177z" />
    <glyph glyph-name="uni1F9B" unicode="&#x1f9b;" horiz-adv-x="827" 
d="M499 0v332h-374v-332h-47v696h47v-323h374v323h46v-696h-46zM804 0h-23q-50 0 -78 26t-28 78v392h44v-350q0 -45 7 -71q11 -37 67 -37h11v-38zM-194 520q-49 50 -49 102q0 66 80 85l20 -46q-52 -12 -52 -55q0 -28 25 -73zM8 530q-17 -8 -25 -10l-113 176l58 11
q54 -118 80 -177z" />
    <glyph glyph-name="uni1F9C" unicode="&#x1f9c;" horiz-adv-x="827" 
d="M499 0v332h-374v-332h-47v696h47v-323h374v323h46v-696h-46zM804 0h-23q-50 0 -78 26t-28 78v392h44v-350q0 -45 7 -71q11 -37 67 -37h11v-38zM-188 520l-24 13q25 45 25 73q0 43 -52 55l20 46q80 -19 80 -85q0 -52 -49 -102zM-126 530q26 59 80 177l58 -11l-113 -176
q-8 2 -25 10z" />
    <glyph glyph-name="uni1F9D" unicode="&#x1f9d;" horiz-adv-x="827" 
d="M499 0v332h-374v-332h-47v696h47v-323h374v323h46v-696h-46zM804 0h-23q-50 0 -78 26t-28 78v392h44v-350q0 -45 7 -71q11 -37 67 -37h11v-38zM-190 520q-49 50 -49 102q0 66 80 85l20 -46q-52 -12 -52 -55q0 -28 25 -73zM-126 530q26 59 80 177l58 -11l-113 -176
q-8 2 -25 10z" />
    <glyph glyph-name="uni1F9E" unicode="&#x1f9e;" horiz-adv-x="827" 
d="M804 0h-23q-50 0 -78 26t-28 78v392h44v-350q0 -45 7 -71q11 -37 67 -37h11v-38zM546 0h-47v332h-374v-332h-46v696h46v-322h374v322h47v-696zM-131 432l-22 8q27 40 27 68q0 34 -51 46l18 41q77 -18 77 -71q0 -44 -49 -92zM-63 612q-20 0 -64 20.5t-63 20.5
q-32 0 -64 -38l-28 16q39 65 92 65q22 0 66 -21t60 -21q31 0 57 40l29 -17q-35 -65 -85 -65z" />
    <glyph glyph-name="uni1F9F" unicode="&#x1f9f;" horiz-adv-x="827" 
d="M804 0h-23q-50 0 -78 26t-28 78v392h44v-350q0 -45 7 -71q11 -37 67 -37h11v-38zM546 0h-47v332h-374v-332h-46v696h46v-322h374v322h47v-696zM-122 439l-22 -7q-49 48 -49 91q0 54 77 72l18 -41q-51 -13 -51 -47q0 -27 27 -68zM-72 612q-20 0 -64 20.5t-63 20.5
q-32 0 -64 -38l-28 16q39 65 92 65q22 0 66 -21t60 -21q31 0 57 40l29 -17q-35 -65 -85 -65z" />
    <glyph glyph-name="uni1FA0" unicode="&#x1fa0;" horiz-adv-x="758" 
d="M537 -5q-117 0 -157 100q-48 -101 -156 -101q-54 0 -90.5 20t-55 57.5t-25.5 79t-7 97.5q0 68 12.5 116.5t49 85.5t97.5 47l5 -41q-28 -5 -48.5 -17t-33.5 -31t-21 -39t-11.5 -49t-4.5 -51.5t-1 -56.5q0 -77 33.5 -128t100.5 -51q61 0 96.5 44t35.5 102v190h43v-190
q0 -58 36.5 -101.5t102.5 -43.5q74 0 103.5 54.5t29.5 159.5q0 87 -25.5 142t-94.5 67l5 41q61 -9 98 -46.5t49.5 -86t12.5 -116.5q0 -55 -7 -97t-25.5 -79.5t-55.5 -57.5t-91 -20zM475 -254h-21q-98 0 -98 102v85h42v-67q0 -40 13 -61.5t52 -21.5h12v-37zM373 570l-24 12
q25 42 25 74q0 43 -52 55l20 46q80 -19 80 -85q0 -52 -49 -102z" />
    <glyph glyph-name="uni1FA1" unicode="&#x1fa1;" horiz-adv-x="758" 
d="M537 -5q-117 0 -157 100q-48 -101 -156 -101q-54 0 -90.5 20t-55 57.5t-25.5 79t-7 97.5q0 68 12.5 116.5t49 85.5t97.5 47l5 -41q-28 -5 -48.5 -17t-33.5 -31t-21 -39t-11.5 -49t-4.5 -51.5t-1 -56.5q0 -77 33.5 -128t100.5 -51q61 0 96.5 44t35.5 102v190h43v-190
q0 -58 36.5 -101.5t102.5 -43.5q74 0 103.5 54.5t29.5 159.5q0 87 -25.5 142t-94.5 67l5 41q61 -9 98 -46.5t49.5 -86t12.5 -116.5q0 -55 -7 -97t-25.5 -79.5t-55.5 -57.5t-91 -20zM475 -254h-22q-98 0 -98 102v85h42v-67q0 -40 13 -61.5t52 -21.5h13v-37zM409 582l-24 -12
q-49 50 -49 102q0 65 80 85l20 -46q-52 -13 -52 -53q0 -35 25 -76z" />
    <glyph glyph-name="uni1FA2" unicode="&#x1fa2;" horiz-adv-x="758" 
d="M537 -5q-117 0 -157 100q-48 -101 -156 -101q-54 0 -90.5 20t-55 57.5t-25.5 79t-7 97.5q0 68 12.5 116.5t49 85.5t97.5 47l5 -41q-28 -5 -48.5 -17t-33.5 -31t-21 -39t-11.5 -49t-4.5 -51.5t-1 -56.5q0 -77 33.5 -128t100.5 -51q61 0 96.5 44t35.5 102v190h43v-190
q0 -58 36.5 -101.5t102.5 -43.5q74 0 103.5 54.5t29.5 159.5q0 87 -25.5 142t-94.5 67l5 41q61 -9 98 -46.5t49.5 -86t12.5 -116.5q0 -55 -7 -97t-25.5 -79.5t-55.5 -57.5t-91 -20zM475 -254h-21q-98 0 -98 102v85h42v-67q0 -40 13 -61.5t52 -21.5h12v-37zM298 570l-24 13
q25 42 25 73q0 43 -52 55l20 46q81 -19 81 -85q0 -52 -50 -102zM500 580l-26 -10l-114 176l58 11z" />
    <glyph glyph-name="uni1FA3" unicode="&#x1fa3;" horiz-adv-x="758" 
d="M537 -5q-117 0 -157 100q-48 -101 -156 -101q-54 0 -90.5 20t-55 57.5t-25.5 79t-7 97.5q0 68 12.5 116.5t49 85.5t97.5 47l5 -41q-28 -5 -48.5 -17t-33.5 -31t-21 -39t-11.5 -49t-4.5 -51.5t-1 -56.5q0 -77 33.5 -128t100.5 -51q61 0 96.5 44t35.5 102v190h43v-190
q0 -58 36.5 -101.5t102.5 -43.5q74 0 103.5 54.5t29.5 159.5q0 87 -25.5 142t-94.5 67l5 41q61 -9 98 -46.5t49.5 -86t12.5 -116.5q0 -55 -7 -97t-25.5 -79.5t-55.5 -57.5t-91 -20zM475 -254h-21q-98 0 -98 102v85h42v-67q0 -40 13 -61.5t52 -21.5h12v-37zM322 582l-24 -12
q-49 50 -49 102q0 65 80 85l20 -46q-52 -13 -52 -53q0 -35 25 -76zM504 580l-26 -10l-114 176l58 11z" />
    <glyph glyph-name="uni1FA4" unicode="&#x1fa4;" horiz-adv-x="758" 
d="M537 -5q-117 0 -157 100q-48 -101 -156 -101q-54 0 -90.5 20t-55 57.5t-25.5 79t-7 97.5q0 68 12.5 116.5t49 85.5t97.5 47l5 -41q-28 -5 -48.5 -17t-33.5 -31t-21 -39t-11.5 -49t-4.5 -51.5t-1 -56.5q0 -77 33.5 -128t100.5 -51q61 0 96.5 44t35.5 102v190h43v-190
q0 -58 36.5 -101.5t102.5 -43.5q74 0 103.5 54.5t29.5 159.5q0 87 -25.5 142t-94.5 67l5 41q61 -9 98 -46.5t49.5 -86t12.5 -116.5q0 -55 -7 -97t-25.5 -79.5t-55.5 -57.5t-91 -20zM475 -254h-21q-98 0 -98 102v85h42v-67q0 -40 13 -61.5t52 -21.5h12v-37zM347 570l-25 12
q26 42 26 72q0 43 -52 57q2 5 9 21t10 25q81 -20 81 -86q0 -52 -49 -101zM426 570l-26 10l90 177l57 -11z" />
    <glyph glyph-name="uni1FA5" unicode="&#x1fa5;" horiz-adv-x="758" 
d="M537 -5q-117 0 -157 100q-48 -101 -156 -101q-54 0 -90.5 20t-55 57.5t-25.5 79t-7 97.5q0 68 12.5 116.5t49 85.5t97.5 47l5 -41q-28 -5 -48.5 -17t-33.5 -31t-21 -39t-11.5 -49t-4.5 -51.5t-1 -56.5q0 -77 33.5 -128t100.5 -51q61 0 96.5 44t35.5 102v190h43v-190
q0 -58 36.5 -101.5t102.5 -43.5q74 0 103.5 54.5t29.5 159.5q0 87 -25.5 142t-94.5 67l5 41q61 -9 98 -46.5t49.5 -86t12.5 -116.5q0 -55 -7 -97t-25.5 -79.5t-55.5 -57.5t-91 -20zM475 -254h-21q-98 0 -98 102v85h42v-67q0 -40 13 -61.5t52 -21.5h12v-37zM369 582l-24 -12
q-49 49 -49 101q0 66 80 86l20 -46q-52 -13 -52 -54q0 -33 25 -75zM422 570l-26 10l90 177l57 -11z" />
    <glyph glyph-name="uni1FA6" unicode="&#x1fa6;" horiz-adv-x="737" 
d="M533 457l8 41q155 -21 155 -252q0 -119 -44.5 -185t-134.5 -66q-112 0 -149 101q-45 -102 -146 -102q-179 0 -179 253q0 225 157 250l7 -41q-120 -23 -120 -210q0 -212 135 -212q58 0 90 43.5t32 102.5v189h44v-189q0 -59 33.5 -102t95.5 -43q66 0 100 55t34 156
q0 191 -118 211zM370 541l-22 8q27 40 27 68q0 34 -51 46l18 41q77 -18 77 -71q0 -44 -49 -92zM438 721q-20 0 -64 20.5t-63 20.5q-32 0 -64 -38l-28 16q39 65 92 65q22 0 66 -21t60 -21q31 0 57 40l29 -17q-35 -65 -85 -65zM349 -67h43v-75q0 -36 13.5 -55.5t50.5 -19.5h13
v-38h-22q-98 0 -98 103v85z" />
    <glyph glyph-name="uni1FA7" unicode="&#x1fa7;" horiz-adv-x="737" 
d="M533 457l8 41q155 -21 155 -252q0 -119 -44.5 -185t-134.5 -66q-112 0 -149 101q-45 -102 -146 -102q-179 0 -179 253q0 225 157 250l7 -41q-120 -23 -120 -210q0 -212 135 -212q58 0 90 43.5t32 102.5v189h44v-189q0 -59 33.5 -102t95.5 -43q66 0 100 55t34 156
q0 191 -118 211zM381 548l-22 -7q-49 48 -49 91q0 54 77 72l18 -41q-51 -13 -51 -47q0 -27 27 -68zM431 721q-20 0 -64 20.5t-63 20.5q-32 0 -64 -38l-28 16q39 65 92 65q22 0 66 -21t60 -21q31 0 57 40l29 -17q-35 -65 -85 -65zM349 -67h43v-75q0 -36 13.5 -55.5
t50.5 -19.5h13v-38h-22q-98 0 -98 103v85z" />
    <glyph glyph-name="uni1FA8" unicode="&#x1fa8;" horiz-adv-x="800" 
d="M147 42q-105 54 -105 215v196q0 106 62.5 177t177.5 71q110 0 174 -69t64 -179v-196q0 -154 -102 -214l1 -1h117v-42h-191v51q60 19 93.5 74t33.5 131v195q0 90 -50.5 148t-138.5 58q-94 0 -144 -58.5t-50 -147.5v-195q0 -71 33.5 -128.5t95.5 -77.5v-50h-191v42h120z
M777 0h-23q-50 0 -78 26t-28 78v392h44v-350v-6q0 -24 1.5 -36.5t7.5 -30.5t22.5 -26.5t42.5 -8.5h11v-38zM-47 520l-25 12q26 45 26 73q0 43 -52 56q3 8 9.5 23t9.5 23q80 -20 80 -86q0 -52 -48 -101z" />
    </font>
</defs>
</svg>
